<?xml version="1.0" encoding="UTF-8" standalone="no"?>
<!-- Created with Inkscape (http://www.inkscape.org/) -->

<svg
   xmlns:dc="http://purl.org/dc/elements/1.1/"
   xmlns:cc="http://creativecommons.org/ns#"
   xmlns:rdf="http://www.w3.org/1999/02/22-rdf-syntax-ns#"
   xmlns:svg="http://www.w3.org/2000/svg"
   xmlns="http://www.w3.org/2000/svg"
   xmlns:sodipodi="http://sodipodi.sourceforge.net/DTD/sodipodi-0.dtd"
   xmlns:inkscape="http://www.inkscape.org/namespaces/inkscape"
   width="110mm"
   height="120mm"
   viewBox="0 0 389.76378 425.19685"
   id="svg2"
   version="1.1"
   inkscape:version="0.91 r13725"
   sodipodi:docname="PCB-Bottom-3mm-Acrylic.svg">
  <defs
     id="defs4" />
  <sodipodi:namedview
     id="base"
     pagecolor="#ffffff"
     bordercolor="#666666"
     borderopacity="1.0"
     inkscape:pageopacity="0.0"
     inkscape:pageshadow="2"
     inkscape:zoom="0.62"
     inkscape:cx="-284.3318"
     inkscape:cy="250.96774"
     inkscape:document-units="mm"
     inkscape:current-layer="layer1"
     showgrid="true"
     inkscape:showpageshadow="false"
     inkscape:window-width="1366"
     inkscape:window-height="705"
     inkscape:window-x="-8"
     inkscape:window-y="-8"
     inkscape:window-maximized="1">
    <inkscape:grid
       type="xygrid"
       id="grid4136" />
  </sodipodi:namedview>
  <metadata
     id="metadata7">
    <rdf:RDF>
      <cc:Work
         rdf:about="">
        <dc:format>image/svg+xml</dc:format>
        <dc:type
           rdf:resource="http://purl.org/dc/dcmitype/StillImage" />
        <dc:title></dc:title>
      </cc:Work>
    </rdf:RDF>
  </metadata>
  <g
     inkscape:label="Layer 1"
     inkscape:groupmode="layer"
     id="layer1"
     transform="translate(0,-627.16535)">
    <path
       style="fill:#0000ff;fill-rule:evenodd;stroke:none;stroke-width:0.99754727px;stroke-linecap:butt;stroke-linejoin:miter;stroke-opacity:1"
       d="m 35.433071,627.16534 318.897649,0 c 19.62992,0 35.43307,15.80316 35.43307,35.43308 l 0,354.33068 c 0,19.6299 -15.80315,35.4331 -35.43307,35.4331 l -318.897649,0 C 15.80315,1052.3622 0,1036.559 0,1016.9291 L 0,662.59842 C 0,642.9685 15.80315,627.16534 35.433071,627.16534 Z"
       id="rect4138" />
    <path
       style="fill:#ff0000;fill-opacity:1;stroke:none;stroke-width:0.35433072;stroke-miterlimit:4;stroke-dasharray:none;stroke-opacity:1"
       d="m 67.322835,992.12598 a 7.0866141,7.0866141 0 0 1 -7.086614,7.08661 7.0866141,7.0866141 0 0 1 -7.086614,-7.08661 7.0866141,7.0866141 0 0 1 7.086614,-7.08662 7.0866141,7.0866141 0 0 1 7.086614,7.08662 z"
       id="path4140" />
    <path
       style="fill:#ff0000;fill-opacity:1;stroke:none;stroke-width:0.35433072;stroke-miterlimit:4;stroke-dasharray:none;stroke-opacity:1"
       d="m 67.322835,673.22833 a 7.0866141,7.0866141 0 0 1 -7.086614,7.08662 7.0866141,7.0866141 0 0 1 -7.086614,-7.08662 7.0866141,7.0866141 0 0 1 7.086614,-7.08661 7.0866141,7.0866141 0 0 1 7.086614,7.08661 z"
       id="path4140-0" />
    <path
       style="fill:#ff0000;fill-opacity:1;stroke:none;stroke-width:0.35433072;stroke-miterlimit:4;stroke-dasharray:none;stroke-opacity:1"
       d="m 350.78739,992.12598 a 7.0866141,7.0866141 0 0 1 -7.08661,7.08661 7.0866141,7.0866141 0 0 1 -7.08662,-7.08661 7.0866141,7.0866141 0 0 1 7.08662,-7.08662 7.0866141,7.0866141 0 0 1 7.08661,7.08662 z"
       id="path4140-1" />
    <path
       style="fill:#ff0000;fill-opacity:1;stroke:none;stroke-width:0.35433072;stroke-miterlimit:4;stroke-dasharray:none;stroke-opacity:1"
       d="m 350.78739,673.22833 a 7.0866141,7.0866141 0 0 1 -7.08661,7.08662 7.0866141,7.0866141 0 0 1 -7.08662,-7.08662 7.0866141,7.0866141 0 0 1 7.08662,-7.08661 7.0866141,7.0866141 0 0 1 7.08661,7.08661 z"
       id="path4140-3" />
    <path
       inkscape:connector-curvature="0"
       style="fill:#ff0000;fill-opacity:1;stroke:none;stroke-width:0.35433072;stroke-miterlimit:4;stroke-dasharray:none;stroke-opacity:1"
       d="m 102.75591,956.6929 a 7.0866141,7.0866141 0 0 1 -7.086623,7.08662 7.0866141,7.0866141 0 0 1 -7.08661,-7.08662 7.0866141,7.0866141 0 0 1 7.08661,-7.08661 7.0866141,7.0866141 0 0 1 7.086623,7.08661 z"
       id="path4140-0-1" />
    <path
       inkscape:connector-curvature="0"
       style="fill:#ff0000;fill-opacity:1;stroke:none;stroke-width:0.35433072;stroke-miterlimit:4;stroke-dasharray:none;stroke-opacity:1"
       d="m 315.35433,956.6929 a 7.0866133,7.0866141 0 0 1 -7.08662,7.08662 7.0866133,7.0866141 0 0 1 -7.08661,-7.08662 7.0866133,7.0866141 0 0 1 7.08661,-7.08661 7.0866133,7.0866141 0 0 1 7.08662,7.08661 z"
       id="path4140-0-1-5" />
    <path
       inkscape:connector-curvature="0"
       style="fill:#ff0000;fill-opacity:1;stroke:none;stroke-width:0.35433072;stroke-miterlimit:4;stroke-dasharray:none;stroke-opacity:1"
       d="m 315.35433,708.66141 a 7.0866141,7.0866141 0 0 1 -7.08662,7.08662 7.0866141,7.0866141 0 0 1 -7.08661,-7.08662 7.0866141,7.0866141 0 0 1 7.08661,-7.08661 7.0866141,7.0866141 0 0 1 7.08662,7.08661 z"
       id="path4140-0-1-9" />
    <path
       inkscape:connector-curvature="0"
       style="fill:#ff0000;fill-opacity:1;stroke:none;stroke-width:0.35433072;stroke-miterlimit:4;stroke-dasharray:none;stroke-opacity:1"
       d="m 102.75591,708.66141 a 7.0866141,7.0866141 0 0 1 -7.086623,7.08662 7.0866141,7.0866141 0 0 1 -7.08661,-7.08662 7.0866141,7.0866141 0 0 1 7.08661,-7.08661 7.0866141,7.0866141 0 0 1 7.086623,7.08661 z"
       id="path4140-0-1-6" />
  </g>
</svg>
