<?xml version="1.0" encoding="UTF-8" standalone="no"?>
<!-- Created with Inkscape (http://www.inkscape.org/) -->

<svg
   xmlns:dc="http://purl.org/dc/elements/1.1/"
   xmlns:cc="http://creativecommons.org/ns#"
   xmlns:rdf="http://www.w3.org/1999/02/22-rdf-syntax-ns#"
   xmlns:svg="http://www.w3.org/2000/svg"
   xmlns="http://www.w3.org/2000/svg"
   xmlns:sodipodi="http://sodipodi.sourceforge.net/DTD/sodipodi-0.dtd"
   xmlns:inkscape="http://www.inkscape.org/namespaces/inkscape"
   width="210mm"
   height="297mm"
   viewBox="0 0 744.09448819 1052.3622047"
   id="svg8242"
   version="1.1"
   inkscape:version="0.91 r13725"
   sodipodi:docname="FormKeep-FanPanel-Acrylic-3mm-Clear.svg">
  <defs
     id="defs8244" />
  <sodipodi:namedview
     id="base"
     pagecolor="#ffffff"
     bordercolor="#666666"
     borderopacity="1.0"
     inkscape:pageopacity="0.0"
     inkscape:pageshadow="2"
     inkscape:zoom="0.98994949"
     inkscape:cx="139.45459"
     inkscape:cy="237.38363"
     inkscape:document-units="mm"
     inkscape:current-layer="layer1"
     showgrid="true"
     inkscape:showpageshadow="false"
     inkscape:window-width="1366"
     inkscape:window-height="705"
     inkscape:window-x="-8"
     inkscape:window-y="-8"
     inkscape:window-maximized="1">
    <inkscape:grid
       type="xygrid"
       id="grid8790" />
  </sodipodi:namedview>
  <metadata
     id="metadata8247">
    <rdf:RDF>
      <cc:Work
         rdf:about="">
        <dc:format>image/svg+xml</dc:format>
        <dc:type
           rdf:resource="http://purl.org/dc/dcmitype/StillImage" />
        <dc:title></dc:title>
      </cc:Work>
    </rdf:RDF>
  </metadata>
  <g
     inkscape:label="Layer 1"
     inkscape:groupmode="layer"
     id="layer1">
    <text
       xml:space="preserve"
       style="font-style:normal;font-weight:normal;font-size:40px;line-height:125%;font-family:Sans;letter-spacing:0px;word-spacing:0px;fill:#000000;fill-opacity:1;stroke:none;stroke-width:1px;stroke-linecap:butt;stroke-linejoin:miter;stroke-opacity:1"
       x="6.5804281"
       y="597.66028"
       id="text8879"
       sodipodi:linespacing="125%"><tspan
         sodipodi:role="line"
         id="tspan8881"
         x="6.5804281"
         y="597.66028">120x120 - Fan Panel</tspan></text>
    <flowRoot
       xml:space="preserve"
       id="flowRoot8883"
       style="fill:black;stroke:none;stroke-opacity:1;stroke-width:1px;stroke-linejoin:miter;stroke-linecap:butt;fill-opacity:1;font-family:Sans;font-style:normal;font-weight:normal;font-size:40px;line-height:125%;letter-spacing:0px;word-spacing:0px"><flowRegion
         id="flowRegion8885"><rect
           id="rect8887"
           width="602.36218"
           height="726.37793"
           x="-53.149605"
           y="503.1496" /></flowRegion><flowPara
         id="flowPara8889" /></flowRoot>    <path
       style="opacity:1;fill:#9ec000;fill-opacity:1;fill-rule:evenodd;stroke:#0000ff;stroke-width:0;stroke-linejoin:miter;stroke-miterlimit:4;stroke-dasharray:none;stroke-opacity:1"
       d="m 34.842523,634.25207 348.425187,0 c 19.30276,0 34.84252,15.53977 34.84252,34.84252 l 0,348.42521 c 0,19.3027 -15.53976,34.8425 -34.84252,34.8425 l -348.425187,0 C 15.539768,1052.3623 4.9583328e-6,1036.8225 4.9583328e-6,1017.5198 l 0,-348.42521 C 4.9583328e-6,649.79184 15.539768,634.25207 34.842523,634.25207 Z"
       id="rect8877"
       inkscape:connector-curvature="0" />
    <path
       style="opacity:1;fill:#00ff00;fill-opacity:1;fill-rule:evenodd;stroke:#0000ff;stroke-width:0;stroke-linejoin:miter;stroke-miterlimit:4;stroke-dasharray:none;stroke-opacity:1"
       d="M 343.69914,843.30724 A 134.64568,134.64568 0 0 1 209.05346,977.95292 134.64568,134.64568 0 0 1 74.407786,843.30724 134.64568,134.64568 0 0 1 209.05346,708.66157 134.64568,134.64568 0 0 1 343.69914,843.30724 Z"
       id="path8891"
       inkscape:connector-curvature="0" />
    <path
       style="opacity:1;fill:#00ff00;fill-opacity:1;fill-rule:evenodd;stroke:#0000ff;stroke-width:0;stroke-linejoin:miter;stroke-miterlimit:4;stroke-dasharray:none;stroke-opacity:1"
       d="m 24.803145,992.12598 a 7.0866094,7.0866094 0 0 1 -7.086609,7.08661 7.0866094,7.0866094 0 0 1 -7.08661,-7.08661 7.0866094,7.0866094 0 0 1 7.08661,-7.08661 7.0866094,7.0866094 0 0 1 7.086609,7.08661 z"
       id="path8893" />
    <path
       style="opacity:1;fill:#00ff00;fill-opacity:1;fill-rule:evenodd;stroke:#0000ff;stroke-width:0;stroke-linejoin:miter;stroke-miterlimit:4;stroke-dasharray:none;stroke-opacity:1"
       d="m 24.803145,687.40155 a 7.0866094,7.0866094 0 0 1 -7.086609,7.08661 7.0866094,7.0866094 0 0 1 -7.08661,-7.08661 7.0866094,7.0866094 0 0 1 7.08661,-7.08661 7.0866094,7.0866094 0 0 1 7.086609,7.08661 z"
       id="path8893-6" />
    <path
       style="opacity:1;fill:#00ff00;fill-opacity:1;fill-rule:evenodd;stroke:#0000ff;stroke-width:0;stroke-linejoin:miter;stroke-miterlimit:4;stroke-dasharray:none;stroke-opacity:1"
       d="m 411.02362,992.12598 a 7.0866094,7.0866094 0 0 1 -7.08661,7.08661 7.0866094,7.0866094 0 0 1 -7.08661,-7.08661 7.0866094,7.0866094 0 0 1 7.08661,-7.08661 7.0866094,7.0866094 0 0 1 7.08661,7.08661 z"
       id="path8893-1"
       inkscape:connector-curvature="0" />
    <path
       style="opacity:1;fill:#00ff00;fill-opacity:1;fill-rule:evenodd;stroke:#0000ff;stroke-width:0;stroke-linejoin:miter;stroke-miterlimit:4;stroke-dasharray:none;stroke-opacity:1"
       d="m 411.02362,687.40155 a 7.0866094,7.0866094 0 0 1 -7.08661,7.08661 7.0866094,7.0866094 0 0 1 -7.08661,-7.08661 7.0866094,7.0866094 0 0 1 7.08661,-7.08661 7.0866094,7.0866094 0 0 1 7.08661,7.08661 z"
       id="path8893-6-8"
       inkscape:connector-curvature="0" />
    <path
       style="opacity:1;fill:#00ff00;fill-opacity:1;fill-rule:evenodd;stroke:#0000ff;stroke-width:0;stroke-linejoin:miter;stroke-miterlimit:4;stroke-dasharray:none;stroke-opacity:1"
       d="m 88.370074,715.83642 a 7.0866094,7.0866094 0 0 1 -7.086609,7.08661 7.0866094,7.0866094 0 0 1 -7.08661,-7.08661 7.0866094,7.0866094 0 0 1 7.08661,-7.08661 7.0866094,7.0866094 0 0 1 7.086609,7.08661 z"
       id="path8893-6-1"
       inkscape:connector-curvature="0" />
    <path
       style="opacity:1;fill:#00ff00;fill-opacity:1;fill-rule:evenodd;stroke:#0000ff;stroke-width:0;stroke-linejoin:miter;stroke-miterlimit:4;stroke-dasharray:none;stroke-opacity:1"
       d="m 343.72297,715.83636 a 7.0866094,7.0866094 0 0 1 -7.0866,7.08661 7.0866094,7.0866094 0 0 1 -7.08661,-7.08661 7.0866094,7.0866094 0 0 1 7.08661,-7.08661 7.0866094,7.0866094 0 0 1 7.0866,7.08661 z"
       id="path8893-6-1-6"
       inkscape:connector-curvature="0" />
    <path
       style="opacity:1;fill:#00ff00;fill-opacity:1;fill-rule:evenodd;stroke:#0000ff;stroke-width:0;stroke-linejoin:miter;stroke-miterlimit:4;stroke-dasharray:none;stroke-opacity:1"
       d="m 343.75111,970.86517 a 7.0866094,7.0866094 0 0 1 -7.08661,7.08661 7.0866094,7.0866094 0 0 1 -7.08661,-7.08661 7.0866094,7.0866094 0 0 1 7.08661,-7.08661 7.0866094,7.0866094 0 0 1 7.08661,7.08661 z"
       id="path8893-6-1-6-1"
       inkscape:connector-curvature="0" />
    <path
       style="opacity:1;fill:#00ff00;fill-opacity:1;fill-rule:evenodd;stroke:#0000ff;stroke-width:0;stroke-linejoin:miter;stroke-miterlimit:4;stroke-dasharray:none;stroke-opacity:1"
       d="m 88.604861,970.92638 a 7.0866094,7.0866094 0 0 1 -7.086609,7.08661 7.0866094,7.0866094 0 0 1 -7.08661,-7.08661 7.0866094,7.0866094 0 0 1 7.08661,-7.0866 7.0866094,7.0866094 0 0 1 7.086609,7.0866 z"
       id="path8893-6-1-6-3"
       inkscape:connector-curvature="0" />
  </g>
</svg>
