<?xml version="1.0" encoding="UTF-8" standalone="no"?>
<!-- Created with Inkscape (http://www.inkscape.org/) -->

<svg
   xmlns:dc="http://purl.org/dc/elements/1.1/"
   xmlns:cc="http://creativecommons.org/ns#"
   xmlns:rdf="http://www.w3.org/1999/02/22-rdf-syntax-ns#"
   xmlns:svg="http://www.w3.org/2000/svg"
   xmlns="http://www.w3.org/2000/svg"
   xmlns:sodipodi="http://sodipodi.sourceforge.net/DTD/sodipodi-0.dtd"
   xmlns:inkscape="http://www.inkscape.org/namespaces/inkscape"
   width="210mm"
   height="297mm"
   viewBox="0 0 744.09448819 1052.3622047"
   id="svg8242"
   version="1.1"
   inkscape:version="0.91 r13725"
   sodipodi:docname="FormKeep-BasePanel-Acrylic-3mm-Clear.svg">
  <defs
     id="defs8244" />
  <sodipodi:namedview
     id="base"
     pagecolor="#ffffff"
     bordercolor="#666666"
     borderopacity="1.0"
     inkscape:pageopacity="0.0"
     inkscape:pageshadow="2"
     inkscape:zoom="0.98994949"
     inkscape:cx="41.049749"
     inkscape:cy="519.85056"
     inkscape:document-units="mm"
     inkscape:current-layer="layer1"
     showgrid="true"
     inkscape:showpageshadow="false"
     inkscape:window-width="1366"
     inkscape:window-height="705"
     inkscape:window-x="-8"
     inkscape:window-y="-8"
     inkscape:window-maximized="1">
    <inkscape:grid
       type="xygrid"
       id="grid8790" />
  </sodipodi:namedview>
  <metadata
     id="metadata8247">
    <rdf:RDF>
      <cc:Work
         rdf:about="">
        <dc:format>image/svg+xml</dc:format>
        <dc:type
           rdf:resource="http://purl.org/dc/dcmitype/StillImage" />
        <dc:title />
      </cc:Work>
    </rdf:RDF>
  </metadata>
  <g
     inkscape:label="Layer 1"
     inkscape:groupmode="layer"
     id="layer1">
    <path
       style="opacity:1;fill:#00ff00;fill-opacity:1;fill-rule:evenodd;stroke:#00ff00;stroke-width:0.98823518;stroke-linejoin:miter;stroke-miterlimit:4;stroke-dasharray:none;stroke-opacity:1"
       d="m 35.136293,457.58068 525.003007,0 c 19.19177,0 34.64217,15.4504 34.64217,34.64217 l 0,525.00305 c 0,19.1918 -15.4504,34.6421 -34.64217,34.6421 l -525.003007,0 c -19.191765,0 -34.6421754,-15.4503 -34.6421754,-34.6421 l 0,-525.00305 c 0,-19.19177 15.4504104,-34.64217 34.6421754,-34.64217 z"
       id="rect4138-3"
       inkscape:connector-curvature="0" />
    <text
       xml:space="preserve"
       style="font-style:normal;font-weight:normal;font-size:40px;line-height:125%;font-family:Sans;letter-spacing:0px;word-spacing:0px;fill:#000000;fill-opacity:1;stroke:none;stroke-width:1px;stroke-linecap:butt;stroke-linejoin:miter;stroke-opacity:1"
       x="35.433071"
       y="396.8504"
       id="text9545"
       sodipodi:linespacing="125%"><tspan
         sodipodi:role="line"
         id="tspan9547"
         x="35.433071"
         y="396.8504">170x170 - Base Panel</tspan></text>
    <path
       style="opacity:1;fill:#0000ff;fill-opacity:1;fill-rule:evenodd;stroke:#0000ff;stroke-width:0;stroke-linejoin:miter;stroke-miterlimit:4;stroke-dasharray:none;stroke-opacity:1"
       d="m 21.259838,974.40942 a 7.0866094,7.0866094 0 0 1 -7.086609,7.08661 7.0866094,7.0866094 0 0 1 -7.0866098,-7.08661 7.0866094,7.0866094 0 0 1 7.0866098,-7.08661 7.0866094,7.0866094 0 0 1 7.086609,7.08661 z"
       id="path9549"
       inkscape:connector-curvature="0" />
    <path
       style="opacity:1;fill:#0000ff;fill-opacity:1;fill-rule:evenodd;stroke:#0000ff;stroke-width:0;stroke-linejoin:miter;stroke-miterlimit:4;stroke-dasharray:none;stroke-opacity:1"
       d="m 588.18897,974.40942 a 7.0866094,7.0866094 0 0 1 -7.08661,7.08661 7.0866094,7.0866094 0 0 1 -7.08661,-7.08661 7.0866094,7.0866094 0 0 1 7.08661,-7.08661 7.0866094,7.0866094 0 0 1 7.08661,7.08661 z"
       id="path9549-2"
       inkscape:connector-curvature="0" />
    <path
       style="opacity:1;fill:#0000ff;fill-opacity:1;fill-rule:evenodd;stroke:#0000ff;stroke-width:0;stroke-linejoin:miter;stroke-miterlimit:4;stroke-dasharray:none;stroke-opacity:1"
       d="m 21.259838,527.95276 a 7.0866094,7.0866094 0 0 1 -7.086609,7.08661 7.0866094,7.0866094 0 0 1 -7.0866098,-7.08661 7.0866094,7.0866094 0 0 1 7.0866098,-7.08661 7.0866094,7.0866094 0 0 1 7.086609,7.08661 z"
       id="path9549-9"
       inkscape:connector-curvature="0" />
    <path
       style="opacity:1;fill:#0000ff;fill-opacity:1;fill-rule:evenodd;stroke:#0000ff;stroke-width:0;stroke-linejoin:miter;stroke-miterlimit:4;stroke-dasharray:none;stroke-opacity:1"
       d="m 588.18897,527.95276 a 7.0866094,7.0866094 0 0 1 -7.08661,7.08661 7.0866094,7.0866094 0 0 1 -7.08661,-7.08661 7.0866094,7.0866094 0 0 1 7.08661,-7.08661 7.0866094,7.0866094 0 0 1 7.08661,7.08661 z"
       id="path9549-2-4"
       inkscape:connector-curvature="0" />
    <path
       style="opacity:1;fill:#0000ff;fill-opacity:1;fill-rule:evenodd;stroke:#0000ff;stroke-width:0;stroke-linejoin:miter;stroke-miterlimit:4;stroke-dasharray:none;stroke-opacity:1"
       d="m 60.073113,504.52194 a 7.0866094,7.0866094 0 0 1 -7.086609,7.08661 7.0866094,7.0866094 0 0 1 -7.08661,-7.08661 7.0866094,7.0866094 0 0 1 7.08661,-7.08661 7.0866094,7.0866094 0 0 1 7.086609,7.08661 z"
       id="path9549-9-7" />
    <path
       style="opacity:1;fill:#0000ff;fill-opacity:1;fill-rule:evenodd;stroke:#0000ff;stroke-width:0;stroke-linejoin:miter;stroke-miterlimit:4;stroke-dasharray:none;stroke-opacity:1"
       d="m 95.684754,503.21332 a 7.0866094,7.0866094 0 0 1 -7.086609,7.08661 7.0866094,7.0866094 0 0 1 -7.08661,-7.08661 7.0866094,7.0866094 0 0 1 7.08661,-7.08661 7.0866094,7.0866094 0 0 1 7.086609,7.08661 z"
       id="path9549-9-7-9" />
    <path
       style="opacity:1;fill:#0000ff;fill-opacity:1;fill-rule:evenodd;stroke:#0000ff;stroke-width:0;stroke-linejoin:miter;stroke-miterlimit:4;stroke-dasharray:none;stroke-opacity:1"
       d="m 131.11784,503.18265 a 7.0866094,7.0866094 0 0 1 -7.08661,7.08661 7.0866094,7.0866094 0 0 1 -7.08661,-7.08661 7.0866094,7.0866094 0 0 1 7.08661,-7.08661 7.0866094,7.0866094 0 0 1 7.08661,7.08661 z"
       id="path9549-9-7-4" />
    <path
       style="opacity:1;fill:#0000ff;fill-opacity:1;fill-rule:evenodd;stroke:#0000ff;stroke-width:0;stroke-linejoin:miter;stroke-miterlimit:4;stroke-dasharray:none;stroke-opacity:1"
       d="m 166.5509,503.18265 a 7.0866094,7.0866094 0 0 1 -7.08661,7.08661 7.0866094,7.0866094 0 0 1 -7.0866,-7.08661 7.0866094,7.0866094 0 0 1 7.0866,-7.08661 7.0866094,7.0866094 0 0 1 7.08661,7.08661 z"
       id="path9549-9-7-4-7" />
    <path
       style="opacity:1;fill:#0000ff;fill-opacity:1;fill-rule:evenodd;stroke:#0000ff;stroke-width:0;stroke-linejoin:miter;stroke-miterlimit:4;stroke-dasharray:none;stroke-opacity:1"
       d="m 201.98398,503.18265 a 7.0866094,7.0866094 0 0 1 -7.08661,7.08661 7.0866094,7.0866094 0 0 1 -7.08661,-7.08661 7.0866094,7.0866094 0 0 1 7.08661,-7.08661 7.0866094,7.0866094 0 0 1 7.08661,7.08661 z"
       id="path9549-9-7-4-5" />
    <path
       style="opacity:1;fill:#0000ff;fill-opacity:1;fill-rule:evenodd;stroke:#0000ff;stroke-width:0;stroke-linejoin:miter;stroke-miterlimit:4;stroke-dasharray:none;stroke-opacity:1"
       d="m 237.41705,503.18265 a 7.0866094,7.0866094 0 0 1 -7.08661,7.08661 7.0866094,7.0866094 0 0 1 -7.08661,-7.08661 7.0866094,7.0866094 0 0 1 7.08661,-7.08661 7.0866094,7.0866094 0 0 1 7.08661,7.08661 z"
       id="path9549-9-7-4-73" />
    <path
       style="opacity:1;fill:#0000ff;fill-opacity:1;fill-rule:evenodd;stroke:#0000ff;stroke-width:0;stroke-linejoin:miter;stroke-miterlimit:4;stroke-dasharray:none;stroke-opacity:1"
       d="m 272.85013,503.18265 a 7.0866094,7.0866094 0 0 1 -7.08661,7.08661 7.0866094,7.0866094 0 0 1 -7.08661,-7.08661 7.0866094,7.0866094 0 0 1 7.08661,-7.08661 7.0866094,7.0866094 0 0 1 7.08661,7.08661 z"
       id="path9549-9-7-4-8" />
    <path
       style="opacity:1;fill:#0000ff;fill-opacity:1;fill-rule:evenodd;stroke:#0000ff;stroke-width:0;stroke-linejoin:miter;stroke-miterlimit:4;stroke-dasharray:none;stroke-opacity:1"
       d="m 308.28317,503.18265 a 7.0866094,7.0866094 0 0 1 -7.08661,7.08661 7.0866094,7.0866094 0 0 1 -7.08661,-7.08661 7.0866094,7.0866094 0 0 1 7.08661,-7.08661 7.0866094,7.0866094 0 0 1 7.08661,7.08661 z"
       id="path9549-9-7-4-2" />
    <path
       style="opacity:1;fill:#0000ff;fill-opacity:1;fill-rule:evenodd;stroke:#0000ff;stroke-width:0;stroke-linejoin:miter;stroke-miterlimit:4;stroke-dasharray:none;stroke-opacity:1"
       d="m 343.71625,503.18265 a 7.0866094,7.0866094 0 0 1 -7.08661,7.08661 7.0866094,7.0866094 0 0 1 -7.08661,-7.08661 7.0866094,7.0866094 0 0 1 7.08661,-7.08661 7.0866094,7.0866094 0 0 1 7.08661,7.08661 z"
       id="path9549-9-7-4-3" />
    <path
       style="opacity:1;fill:#0000ff;fill-opacity:1;fill-rule:evenodd;stroke:#0000ff;stroke-width:0;stroke-linejoin:miter;stroke-miterlimit:4;stroke-dasharray:none;stroke-opacity:1"
       d="m 379.14932,503.18265 a 7.0866094,7.0866094 0 0 1 -7.08661,7.08661 7.0866094,7.0866094 0 0 1 -7.08661,-7.08661 7.0866094,7.0866094 0 0 1 7.08661,-7.08661 7.0866094,7.0866094 0 0 1 7.08661,7.08661 z"
       id="path9549-9-7-4-0" />
    <path
       style="opacity:1;fill:#0000ff;fill-opacity:1;fill-rule:evenodd;stroke:#0000ff;stroke-width:0;stroke-linejoin:miter;stroke-miterlimit:4;stroke-dasharray:none;stroke-opacity:1"
       d="m 414.5824,503.18265 a 7.0866094,7.0866094 0 0 1 -7.08661,7.08661 7.0866094,7.0866094 0 0 1 -7.08661,-7.08661 7.0866094,7.0866094 0 0 1 7.08661,-7.08661 7.0866094,7.0866094 0 0 1 7.08661,7.08661 z"
       id="path9549-9-7-4-1" />
    <path
       style="opacity:1;fill:#0000ff;fill-opacity:1;fill-rule:evenodd;stroke:#0000ff;stroke-width:0;stroke-linejoin:miter;stroke-miterlimit:4;stroke-dasharray:none;stroke-opacity:1"
       d="m 450.01547,503.18265 a 7.0866094,7.0866094 0 0 1 -7.08661,7.08661 7.0866094,7.0866094 0 0 1 -7.08661,-7.08661 7.0866094,7.0866094 0 0 1 7.08661,-7.08661 7.0866094,7.0866094 0 0 1 7.08661,7.08661 z"
       id="path9549-9-7-4-76" />
    <path
       style="opacity:1;fill:#0000ff;fill-opacity:1;fill-rule:evenodd;stroke:#0000ff;stroke-width:0;stroke-linejoin:miter;stroke-miterlimit:4;stroke-dasharray:none;stroke-opacity:1"
       d="m 485.44855,503.18265 a 7.0866094,7.0866094 0 0 1 -7.08661,7.08661 7.0866094,7.0866094 0 0 1 -7.08661,-7.08661 7.0866094,7.0866094 0 0 1 7.08661,-7.08661 7.0866094,7.0866094 0 0 1 7.08661,7.08661 z"
       id="path9549-9-7-4-26" />
    <path
       style="opacity:1;fill:#0000ff;fill-opacity:1;fill-rule:evenodd;stroke:#0000ff;stroke-width:0;stroke-linejoin:miter;stroke-miterlimit:4;stroke-dasharray:none;stroke-opacity:1"
       d="m 520.88159,503.18265 a 7.0866094,7.0866094 0 0 1 -7.08661,7.08661 7.0866094,7.0866094 0 0 1 -7.08661,-7.08661 7.0866094,7.0866094 0 0 1 7.08661,-7.08661 7.0866094,7.0866094 0 0 1 7.08661,7.08661 z"
       id="path9549-9-7-4-08" />
    <path
       style="opacity:1;fill:#0000ff;fill-opacity:1;fill-rule:evenodd;stroke:#0000ff;stroke-width:0;stroke-linejoin:miter;stroke-miterlimit:4;stroke-dasharray:none;stroke-opacity:1"
       d="m 556.3147,503.18265 a 7.0866094,7.0866094 0 0 1 -7.08661,7.08661 7.0866094,7.0866094 0 0 1 -7.08661,-7.08661 7.0866094,7.0866094 0 0 1 7.08661,-7.08661 7.0866094,7.0866094 0 0 1 7.08661,7.08661 z"
       id="path9549-9-7-4-00" />
    <path
       style="opacity:1;fill:#0000ff;fill-opacity:1;fill-rule:evenodd;stroke:#0000ff;stroke-width:0;stroke-linejoin:miter;stroke-miterlimit:4;stroke-dasharray:none;stroke-opacity:1"
       d="m 60.286599,557.1665 a 7.0866094,7.0866094 0 0 1 -7.08661,7.08661 7.0866094,7.0866094 0 0 1 -7.086609,-7.08661 7.0866094,7.0866094 0 0 1 7.086609,-7.08661 7.0866094,7.0866094 0 0 1 7.08661,7.08661 z"
       id="path9549-9-7-46" />
    <path
       style="opacity:1;fill:#0000ff;fill-opacity:1;fill-rule:evenodd;stroke:#0000ff;stroke-width:0;stroke-linejoin:miter;stroke-miterlimit:4;stroke-dasharray:none;stroke-opacity:1"
       d="m 95.898247,555.85785 a 7.0866094,7.0866094 0 0 1 -7.086609,7.08661 7.0866094,7.0866094 0 0 1 -7.086609,-7.08661 7.0866094,7.0866094 0 0 1 7.086609,-7.08661 7.0866094,7.0866094 0 0 1 7.086609,7.08661 z"
       id="path9549-9-7-9-8" />
    <path
       style="opacity:1;fill:#0000ff;fill-opacity:1;fill-rule:evenodd;stroke:#0000ff;stroke-width:0;stroke-linejoin:miter;stroke-miterlimit:4;stroke-dasharray:none;stroke-opacity:1"
       d="m 131.33133,555.82721 a 7.0866094,7.0866094 0 0 1 -7.08661,7.08661 7.0866094,7.0866094 0 0 1 -7.08661,-7.08661 7.0866094,7.0866094 0 0 1 7.08661,-7.08661 7.0866094,7.0866094 0 0 1 7.08661,7.08661 z"
       id="path9549-9-7-4-17" />
    <path
       style="opacity:1;fill:#0000ff;fill-opacity:1;fill-rule:evenodd;stroke:#0000ff;stroke-width:0;stroke-linejoin:miter;stroke-miterlimit:4;stroke-dasharray:none;stroke-opacity:1"
       d="m 166.7644,555.82721 a 7.0866094,7.0866094 0 0 1 -7.0866,7.08661 7.0866094,7.0866094 0 0 1 -7.08661,-7.08661 7.0866094,7.0866094 0 0 1 7.08661,-7.08661 7.0866094,7.0866094 0 0 1 7.0866,7.08661 z"
       id="path9549-9-7-4-7-8" />
    <path
       style="opacity:1;fill:#0000ff;fill-opacity:1;fill-rule:evenodd;stroke:#0000ff;stroke-width:0;stroke-linejoin:miter;stroke-miterlimit:4;stroke-dasharray:none;stroke-opacity:1"
       d="m 202.19748,555.82721 a 7.0866094,7.0866094 0 0 1 -7.08661,7.08661 7.0866094,7.0866094 0 0 1 -7.08661,-7.08661 7.0866094,7.0866094 0 0 1 7.08661,-7.08661 7.0866094,7.0866094 0 0 1 7.08661,7.08661 z"
       id="path9549-9-7-4-5-6" />
    <path
       style="opacity:1;fill:#0000ff;fill-opacity:1;fill-rule:evenodd;stroke:#0000ff;stroke-width:0;stroke-linejoin:miter;stroke-miterlimit:4;stroke-dasharray:none;stroke-opacity:1"
       d="m 237.63055,555.82721 a 7.0866094,7.0866094 0 0 1 -7.0866,7.08661 7.0866094,7.0866094 0 0 1 -7.08661,-7.08661 7.0866094,7.0866094 0 0 1 7.08661,-7.08661 7.0866094,7.0866094 0 0 1 7.0866,7.08661 z"
       id="path9549-9-7-4-73-7" />
    <path
       style="opacity:1;fill:#0000ff;fill-opacity:1;fill-rule:evenodd;stroke:#0000ff;stroke-width:0;stroke-linejoin:miter;stroke-miterlimit:4;stroke-dasharray:none;stroke-opacity:1"
       d="m 273.06363,555.82721 a 7.0866094,7.0866094 0 0 1 -7.08661,7.08661 7.0866094,7.0866094 0 0 1 -7.08661,-7.08661 7.0866094,7.0866094 0 0 1 7.08661,-7.08661 7.0866094,7.0866094 0 0 1 7.08661,7.08661 z"
       id="path9549-9-7-4-8-5" />
    <path
       style="opacity:1;fill:#0000ff;fill-opacity:1;fill-rule:evenodd;stroke:#0000ff;stroke-width:0;stroke-linejoin:miter;stroke-miterlimit:4;stroke-dasharray:none;stroke-opacity:1"
       d="m 308.49667,555.82721 a 7.0866094,7.0866094 0 0 1 -7.08661,7.08661 7.0866094,7.0866094 0 0 1 -7.0866,-7.08661 7.0866094,7.0866094 0 0 1 7.0866,-7.08661 7.0866094,7.0866094 0 0 1 7.08661,7.08661 z"
       id="path9549-9-7-4-2-6" />
    <path
       style="opacity:1;fill:#0000ff;fill-opacity:1;fill-rule:evenodd;stroke:#0000ff;stroke-width:0;stroke-linejoin:miter;stroke-miterlimit:4;stroke-dasharray:none;stroke-opacity:1"
       d="m 343.92972,555.82721 a 7.0866094,7.0866094 0 0 1 -7.08661,7.08661 7.0866094,7.0866094 0 0 1 -7.08661,-7.08661 7.0866094,7.0866094 0 0 1 7.08661,-7.08661 7.0866094,7.0866094 0 0 1 7.08661,7.08661 z"
       id="path9549-9-7-4-3-9" />
    <path
       style="opacity:1;fill:#0000ff;fill-opacity:1;fill-rule:evenodd;stroke:#0000ff;stroke-width:0;stroke-linejoin:miter;stroke-miterlimit:4;stroke-dasharray:none;stroke-opacity:1"
       d="m 379.36279,555.82721 a 7.0866094,7.0866094 0 0 1 -7.08661,7.08661 7.0866094,7.0866094 0 0 1 -7.08661,-7.08661 7.0866094,7.0866094 0 0 1 7.08661,-7.08661 7.0866094,7.0866094 0 0 1 7.08661,7.08661 z"
       id="path9549-9-7-4-0-4" />
    <path
       style="opacity:1;fill:#0000ff;fill-opacity:1;fill-rule:evenodd;stroke:#0000ff;stroke-width:0;stroke-linejoin:miter;stroke-miterlimit:4;stroke-dasharray:none;stroke-opacity:1"
       d="m 414.79587,555.82721 a 7.0866094,7.0866094 0 0 1 -7.08661,7.08661 7.0866094,7.0866094 0 0 1 -7.08661,-7.08661 7.0866094,7.0866094 0 0 1 7.08661,-7.08661 7.0866094,7.0866094 0 0 1 7.08661,7.08661 z"
       id="path9549-9-7-4-1-0" />
    <path
       style="opacity:1;fill:#0000ff;fill-opacity:1;fill-rule:evenodd;stroke:#0000ff;stroke-width:0;stroke-linejoin:miter;stroke-miterlimit:4;stroke-dasharray:none;stroke-opacity:1"
       d="m 450.22894,555.82721 a 7.0866094,7.0866094 0 0 1 -7.08661,7.08661 7.0866094,7.0866094 0 0 1 -7.08661,-7.08661 7.0866094,7.0866094 0 0 1 7.08661,-7.08661 7.0866094,7.0866094 0 0 1 7.08661,7.08661 z"
       id="path9549-9-7-4-76-0" />
    <path
       style="opacity:1;fill:#0000ff;fill-opacity:1;fill-rule:evenodd;stroke:#0000ff;stroke-width:0;stroke-linejoin:miter;stroke-miterlimit:4;stroke-dasharray:none;stroke-opacity:1"
       d="m 485.66202,555.82721 a 7.0866094,7.0866094 0 0 1 -7.08661,7.08661 7.0866094,7.0866094 0 0 1 -7.08661,-7.08661 7.0866094,7.0866094 0 0 1 7.08661,-7.08661 7.0866094,7.0866094 0 0 1 7.08661,7.08661 z"
       id="path9549-9-7-4-26-5" />
    <path
       style="opacity:1;fill:#0000ff;fill-opacity:1;fill-rule:evenodd;stroke:#0000ff;stroke-width:0;stroke-linejoin:miter;stroke-miterlimit:4;stroke-dasharray:none;stroke-opacity:1"
       d="m 521.09509,555.82721 a 7.0866094,7.0866094 0 0 1 -7.08661,7.08661 7.0866094,7.0866094 0 0 1 -7.08661,-7.08661 7.0866094,7.0866094 0 0 1 7.08661,-7.08661 7.0866094,7.0866094 0 0 1 7.08661,7.08661 z"
       id="path9549-9-7-4-08-1" />
    <path
       style="opacity:1;fill:#0000ff;fill-opacity:1;fill-rule:evenodd;stroke:#0000ff;stroke-width:0;stroke-linejoin:miter;stroke-miterlimit:4;stroke-dasharray:none;stroke-opacity:1"
       d="m 556.5282,555.82721 a 7.0866094,7.0866094 0 0 1 -7.08661,7.08661 7.0866094,7.0866094 0 0 1 -7.08661,-7.08661 7.0866094,7.0866094 0 0 1 7.08661,-7.08661 7.0866094,7.0866094 0 0 1 7.08661,7.08661 z"
       id="path9549-9-7-4-00-5" />
    <path
       style="opacity:1;fill:#0000ff;fill-opacity:1;fill-rule:evenodd;stroke:#0000ff;stroke-width:0;stroke-linejoin:miter;stroke-miterlimit:4;stroke-dasharray:none;stroke-opacity:1"
       d="m 60.073113,610.82117 a 7.0866094,7.0866094 0 0 1 -7.086609,7.08661 7.0866094,7.0866094 0 0 1 -7.08661,-7.08661 7.0866094,7.0866094 0 0 1 7.08661,-7.08661 7.0866094,7.0866094 0 0 1 7.086609,7.08661 z"
       id="path9549-9-7-0" />
    <path
       style="opacity:1;fill:#0000ff;fill-opacity:1;fill-rule:evenodd;stroke:#0000ff;stroke-width:0;stroke-linejoin:miter;stroke-miterlimit:4;stroke-dasharray:none;stroke-opacity:1"
       d="m 95.684754,609.51251 a 7.0866094,7.0866094 0 0 1 -7.086609,7.08661 7.0866094,7.0866094 0 0 1 -7.08661,-7.08661 7.0866094,7.0866094 0 0 1 7.08661,-7.08661 7.0866094,7.0866094 0 0 1 7.086609,7.08661 z"
       id="path9549-9-7-9-3" />
    <path
       style="opacity:1;fill:#0000ff;fill-opacity:1;fill-rule:evenodd;stroke:#0000ff;stroke-width:0;stroke-linejoin:miter;stroke-miterlimit:4;stroke-dasharray:none;stroke-opacity:1"
       d="m 131.11784,609.48187 a 7.0866094,7.0866094 0 0 1 -7.08661,7.08661 7.0866094,7.0866094 0 0 1 -7.08661,-7.08661 7.0866094,7.0866094 0 0 1 7.08661,-7.08661 7.0866094,7.0866094 0 0 1 7.08661,7.08661 z"
       id="path9549-9-7-4-71" />
    <path
       style="opacity:1;fill:#0000ff;fill-opacity:1;fill-rule:evenodd;stroke:#0000ff;stroke-width:0;stroke-linejoin:miter;stroke-miterlimit:4;stroke-dasharray:none;stroke-opacity:1"
       d="m 166.5509,609.48187 a 7.0866094,7.0866094 0 0 1 -7.08661,7.08661 7.0866094,7.0866094 0 0 1 -7.0866,-7.08661 7.0866094,7.0866094 0 0 1 7.0866,-7.08661 7.0866094,7.0866094 0 0 1 7.08661,7.08661 z"
       id="path9549-9-7-4-7-7" />
    <path
       style="opacity:1;fill:#0000ff;fill-opacity:1;fill-rule:evenodd;stroke:#0000ff;stroke-width:0;stroke-linejoin:miter;stroke-miterlimit:4;stroke-dasharray:none;stroke-opacity:1"
       d="m 201.98398,609.48187 a 7.0866094,7.0866094 0 0 1 -7.08661,7.08661 7.0866094,7.0866094 0 0 1 -7.08661,-7.08661 7.0866094,7.0866094 0 0 1 7.08661,-7.08661 7.0866094,7.0866094 0 0 1 7.08661,7.08661 z"
       id="path9549-9-7-4-5-4" />
    <path
       style="opacity:1;fill:#0000ff;fill-opacity:1;fill-rule:evenodd;stroke:#0000ff;stroke-width:0;stroke-linejoin:miter;stroke-miterlimit:4;stroke-dasharray:none;stroke-opacity:1"
       d="m 237.41705,609.48187 a 7.0866094,7.0866094 0 0 1 -7.08661,7.08661 7.0866094,7.0866094 0 0 1 -7.08661,-7.08661 7.0866094,7.0866094 0 0 1 7.08661,-7.08661 7.0866094,7.0866094 0 0 1 7.08661,7.08661 z"
       id="path9549-9-7-4-73-6" />
    <path
       style="opacity:1;fill:#0000ff;fill-opacity:1;fill-rule:evenodd;stroke:#0000ff;stroke-width:0;stroke-linejoin:miter;stroke-miterlimit:4;stroke-dasharray:none;stroke-opacity:1"
       d="m 272.85013,609.48187 a 7.0866094,7.0866094 0 0 1 -7.08661,7.08661 7.0866094,7.0866094 0 0 1 -7.08661,-7.08661 7.0866094,7.0866094 0 0 1 7.08661,-7.08661 7.0866094,7.0866094 0 0 1 7.08661,7.08661 z"
       id="path9549-9-7-4-8-52" />
    <path
       style="opacity:1;fill:#0000ff;fill-opacity:1;fill-rule:evenodd;stroke:#0000ff;stroke-width:0;stroke-linejoin:miter;stroke-miterlimit:4;stroke-dasharray:none;stroke-opacity:1"
       d="m 308.28317,609.48187 a 7.0866094,7.0866094 0 0 1 -7.08661,7.08661 7.0866094,7.0866094 0 0 1 -7.08661,-7.08661 7.0866094,7.0866094 0 0 1 7.08661,-7.08661 7.0866094,7.0866094 0 0 1 7.08661,7.08661 z"
       id="path9549-9-7-4-2-2" />
    <path
       style="opacity:1;fill:#0000ff;fill-opacity:1;fill-rule:evenodd;stroke:#0000ff;stroke-width:0;stroke-linejoin:miter;stroke-miterlimit:4;stroke-dasharray:none;stroke-opacity:1"
       d="m 343.71625,609.48187 a 7.0866094,7.0866094 0 0 1 -7.08661,7.08661 7.0866094,7.0866094 0 0 1 -7.08661,-7.08661 7.0866094,7.0866094 0 0 1 7.08661,-7.08661 7.0866094,7.0866094 0 0 1 7.08661,7.08661 z"
       id="path9549-9-7-4-3-93" />
    <path
       style="opacity:1;fill:#0000ff;fill-opacity:1;fill-rule:evenodd;stroke:#0000ff;stroke-width:0;stroke-linejoin:miter;stroke-miterlimit:4;stroke-dasharray:none;stroke-opacity:1"
       d="m 379.14932,609.48187 a 7.0866094,7.0866094 0 0 1 -7.08661,7.08661 7.0866094,7.0866094 0 0 1 -7.08661,-7.08661 7.0866094,7.0866094 0 0 1 7.08661,-7.08661 7.0866094,7.0866094 0 0 1 7.08661,7.08661 z"
       id="path9549-9-7-4-0-0" />
    <path
       style="opacity:1;fill:#0000ff;fill-opacity:1;fill-rule:evenodd;stroke:#0000ff;stroke-width:0;stroke-linejoin:miter;stroke-miterlimit:4;stroke-dasharray:none;stroke-opacity:1"
       d="m 414.5824,609.48187 a 7.0866094,7.0866094 0 0 1 -7.08661,7.08661 7.0866094,7.0866094 0 0 1 -7.08661,-7.08661 7.0866094,7.0866094 0 0 1 7.08661,-7.08661 7.0866094,7.0866094 0 0 1 7.08661,7.08661 z"
       id="path9549-9-7-4-1-2" />
    <path
       style="opacity:1;fill:#0000ff;fill-opacity:1;fill-rule:evenodd;stroke:#0000ff;stroke-width:0;stroke-linejoin:miter;stroke-miterlimit:4;stroke-dasharray:none;stroke-opacity:1"
       d="m 450.01547,609.48187 a 7.0866094,7.0866094 0 0 1 -7.08661,7.08661 7.0866094,7.0866094 0 0 1 -7.08661,-7.08661 7.0866094,7.0866094 0 0 1 7.08661,-7.08661 7.0866094,7.0866094 0 0 1 7.08661,7.08661 z"
       id="path9549-9-7-4-76-6" />
    <path
       style="opacity:1;fill:#0000ff;fill-opacity:1;fill-rule:evenodd;stroke:#0000ff;stroke-width:0;stroke-linejoin:miter;stroke-miterlimit:4;stroke-dasharray:none;stroke-opacity:1"
       d="m 485.44855,609.48187 a 7.0866094,7.0866094 0 0 1 -7.08661,7.08661 7.0866094,7.0866094 0 0 1 -7.08661,-7.08661 7.0866094,7.0866094 0 0 1 7.08661,-7.08661 7.0866094,7.0866094 0 0 1 7.08661,7.08661 z"
       id="path9549-9-7-4-26-6" />
    <path
       style="opacity:1;fill:#0000ff;fill-opacity:1;fill-rule:evenodd;stroke:#0000ff;stroke-width:0;stroke-linejoin:miter;stroke-miterlimit:4;stroke-dasharray:none;stroke-opacity:1"
       d="m 520.88159,609.48187 a 7.0866094,7.0866094 0 0 1 -7.08661,7.08661 7.0866094,7.0866094 0 0 1 -7.08661,-7.08661 7.0866094,7.0866094 0 0 1 7.08661,-7.08661 7.0866094,7.0866094 0 0 1 7.08661,7.08661 z"
       id="path9549-9-7-4-08-3" />
    <path
       style="opacity:1;fill:#0000ff;fill-opacity:1;fill-rule:evenodd;stroke:#0000ff;stroke-width:0;stroke-linejoin:miter;stroke-miterlimit:4;stroke-dasharray:none;stroke-opacity:1"
       d="m 556.3147,609.48187 a 7.0866094,7.0866094 0 0 1 -7.08661,7.08661 7.0866094,7.0866094 0 0 1 -7.08661,-7.08661 7.0866094,7.0866094 0 0 1 7.08661,-7.08661 7.0866094,7.0866094 0 0 1 7.08661,7.08661 z"
       id="path9549-9-7-4-00-3" />
    <path
       style="opacity:1;fill:#0000ff;fill-opacity:1;fill-rule:evenodd;stroke:#0000ff;stroke-width:0;stroke-linejoin:miter;stroke-miterlimit:4;stroke-dasharray:none;stroke-opacity:1"
       d="m 60.073113,663.97076 a 7.0866094,7.0866094 0 0 1 -7.086609,7.08661 7.0866094,7.0866094 0 0 1 -7.08661,-7.08661 7.0866094,7.0866094 0 0 1 7.08661,-7.08661 7.0866094,7.0866094 0 0 1 7.086609,7.08661 z"
       id="path9549-9-7-1" />
    <path
       style="opacity:1;fill:#0000ff;fill-opacity:1;fill-rule:evenodd;stroke:#0000ff;stroke-width:0;stroke-linejoin:miter;stroke-miterlimit:4;stroke-dasharray:none;stroke-opacity:1"
       d="m 95.684754,662.66211 a 7.0866094,7.0866094 0 0 1 -7.086609,7.08661 7.0866094,7.0866094 0 0 1 -7.08661,-7.08661 7.0866094,7.0866094 0 0 1 7.08661,-7.08661 7.0866094,7.0866094 0 0 1 7.086609,7.08661 z"
       id="path9549-9-7-9-6" />
    <path
       style="opacity:1;fill:#0000ff;fill-opacity:1;fill-rule:evenodd;stroke:#0000ff;stroke-width:0;stroke-linejoin:miter;stroke-miterlimit:4;stroke-dasharray:none;stroke-opacity:1"
       d="m 131.11784,662.63147 a 7.0866094,7.0866094 0 0 1 -7.08661,7.08661 7.0866094,7.0866094 0 0 1 -7.08661,-7.08661 7.0866094,7.0866094 0 0 1 7.08661,-7.08661 7.0866094,7.0866094 0 0 1 7.08661,7.08661 z"
       id="path9549-9-7-4-59" />
    <path
       style="opacity:1;fill:#0000ff;fill-opacity:1;fill-rule:evenodd;stroke:#0000ff;stroke-width:0;stroke-linejoin:miter;stroke-miterlimit:4;stroke-dasharray:none;stroke-opacity:1"
       d="m 166.5509,662.63147 a 7.0866094,7.0866094 0 0 1 -7.08661,7.08661 7.0866094,7.0866094 0 0 1 -7.0866,-7.08661 7.0866094,7.0866094 0 0 1 7.0866,-7.08661 7.0866094,7.0866094 0 0 1 7.08661,7.08661 z"
       id="path9549-9-7-4-7-3" />
    <path
       style="opacity:1;fill:#0000ff;fill-opacity:1;fill-rule:evenodd;stroke:#0000ff;stroke-width:0;stroke-linejoin:miter;stroke-miterlimit:4;stroke-dasharray:none;stroke-opacity:1"
       d="m 201.98398,662.63147 a 7.0866094,7.0866094 0 0 1 -7.08661,7.08661 7.0866094,7.0866094 0 0 1 -7.08661,-7.08661 7.0866094,7.0866094 0 0 1 7.08661,-7.08661 7.0866094,7.0866094 0 0 1 7.08661,7.08661 z"
       id="path9549-9-7-4-5-63" />
    <path
       style="opacity:1;fill:#0000ff;fill-opacity:1;fill-rule:evenodd;stroke:#0000ff;stroke-width:0;stroke-linejoin:miter;stroke-miterlimit:4;stroke-dasharray:none;stroke-opacity:1"
       d="m 237.41705,662.63147 a 7.0866094,7.0866094 0 0 1 -7.08661,7.08661 7.0866094,7.0866094 0 0 1 -7.08661,-7.08661 7.0866094,7.0866094 0 0 1 7.08661,-7.08661 7.0866094,7.0866094 0 0 1 7.08661,7.08661 z"
       id="path9549-9-7-4-73-5" />
    <path
       style="opacity:1;fill:#0000ff;fill-opacity:1;fill-rule:evenodd;stroke:#0000ff;stroke-width:0;stroke-linejoin:miter;stroke-miterlimit:4;stroke-dasharray:none;stroke-opacity:1"
       d="m 272.85013,662.63147 a 7.0866094,7.0866094 0 0 1 -7.08661,7.08661 7.0866094,7.0866094 0 0 1 -7.08661,-7.08661 7.0866094,7.0866094 0 0 1 7.08661,-7.08661 7.0866094,7.0866094 0 0 1 7.08661,7.08661 z"
       id="path9549-9-7-4-8-1" />
    <path
       style="opacity:1;fill:#0000ff;fill-opacity:1;fill-rule:evenodd;stroke:#0000ff;stroke-width:0;stroke-linejoin:miter;stroke-miterlimit:4;stroke-dasharray:none;stroke-opacity:1"
       d="m 308.28317,662.63147 a 7.0866094,7.0866094 0 0 1 -7.08661,7.08661 7.0866094,7.0866094 0 0 1 -7.08661,-7.08661 7.0866094,7.0866094 0 0 1 7.08661,-7.08661 7.0866094,7.0866094 0 0 1 7.08661,7.08661 z"
       id="path9549-9-7-4-2-8" />
    <path
       style="opacity:1;fill:#0000ff;fill-opacity:1;fill-rule:evenodd;stroke:#0000ff;stroke-width:0;stroke-linejoin:miter;stroke-miterlimit:4;stroke-dasharray:none;stroke-opacity:1"
       d="m 343.71625,662.63147 a 7.0866094,7.0866094 0 0 1 -7.08661,7.08661 7.0866094,7.0866094 0 0 1 -7.08661,-7.08661 7.0866094,7.0866094 0 0 1 7.08661,-7.08661 7.0866094,7.0866094 0 0 1 7.08661,7.08661 z"
       id="path9549-9-7-4-3-3" />
    <path
       style="opacity:1;fill:#0000ff;fill-opacity:1;fill-rule:evenodd;stroke:#0000ff;stroke-width:0;stroke-linejoin:miter;stroke-miterlimit:4;stroke-dasharray:none;stroke-opacity:1"
       d="m 379.14932,662.63147 a 7.0866094,7.0866094 0 0 1 -7.08661,7.08661 7.0866094,7.0866094 0 0 1 -7.08661,-7.08661 7.0866094,7.0866094 0 0 1 7.08661,-7.08661 7.0866094,7.0866094 0 0 1 7.08661,7.08661 z"
       id="path9549-9-7-4-0-08" />
    <path
       style="opacity:1;fill:#0000ff;fill-opacity:1;fill-rule:evenodd;stroke:#0000ff;stroke-width:0;stroke-linejoin:miter;stroke-miterlimit:4;stroke-dasharray:none;stroke-opacity:1"
       d="m 414.5824,662.63147 a 7.0866094,7.0866094 0 0 1 -7.08661,7.08661 7.0866094,7.0866094 0 0 1 -7.08661,-7.08661 7.0866094,7.0866094 0 0 1 7.08661,-7.08661 7.0866094,7.0866094 0 0 1 7.08661,7.08661 z"
       id="path9549-9-7-4-1-7" />
    <path
       style="opacity:1;fill:#0000ff;fill-opacity:1;fill-rule:evenodd;stroke:#0000ff;stroke-width:0;stroke-linejoin:miter;stroke-miterlimit:4;stroke-dasharray:none;stroke-opacity:1"
       d="m 450.01547,662.63147 a 7.0866094,7.0866094 0 0 1 -7.08661,7.08661 7.0866094,7.0866094 0 0 1 -7.08661,-7.08661 7.0866094,7.0866094 0 0 1 7.08661,-7.08661 7.0866094,7.0866094 0 0 1 7.08661,7.08661 z"
       id="path9549-9-7-4-76-7" />
    <path
       style="opacity:1;fill:#0000ff;fill-opacity:1;fill-rule:evenodd;stroke:#0000ff;stroke-width:0;stroke-linejoin:miter;stroke-miterlimit:4;stroke-dasharray:none;stroke-opacity:1"
       d="m 485.44855,662.63147 a 7.0866094,7.0866094 0 0 1 -7.08661,7.08661 7.0866094,7.0866094 0 0 1 -7.08661,-7.08661 7.0866094,7.0866094 0 0 1 7.08661,-7.08661 7.0866094,7.0866094 0 0 1 7.08661,7.08661 z"
       id="path9549-9-7-4-26-9" />
    <path
       style="opacity:1;fill:#0000ff;fill-opacity:1;fill-rule:evenodd;stroke:#0000ff;stroke-width:0;stroke-linejoin:miter;stroke-miterlimit:4;stroke-dasharray:none;stroke-opacity:1"
       d="m 520.88159,662.63147 a 7.0866094,7.0866094 0 0 1 -7.08661,7.08661 7.0866094,7.0866094 0 0 1 -7.08661,-7.08661 7.0866094,7.0866094 0 0 1 7.08661,-7.08661 7.0866094,7.0866094 0 0 1 7.08661,7.08661 z"
       id="path9549-9-7-4-08-8" />
    <path
       style="opacity:1;fill:#0000ff;fill-opacity:1;fill-rule:evenodd;stroke:#0000ff;stroke-width:0;stroke-linejoin:miter;stroke-miterlimit:4;stroke-dasharray:none;stroke-opacity:1"
       d="m 556.3147,662.63147 a 7.0866094,7.0866094 0 0 1 -7.08661,7.08661 7.0866094,7.0866094 0 0 1 -7.08661,-7.08661 7.0866094,7.0866094 0 0 1 7.08661,-7.08661 7.0866094,7.0866094 0 0 1 7.08661,7.08661 z"
       id="path9549-9-7-4-00-8" />
    <path
       style="opacity:1;fill:#0000ff;fill-opacity:1;fill-rule:evenodd;stroke:#0000ff;stroke-width:0;stroke-linejoin:miter;stroke-miterlimit:4;stroke-dasharray:none;stroke-opacity:1"
       d="m 60.073113,717.12036 a 7.0866094,7.0866094 0 0 1 -7.086609,7.08661 7.0866094,7.0866094 0 0 1 -7.08661,-7.08661 7.0866094,7.0866094 0 0 1 7.08661,-7.08661 7.0866094,7.0866094 0 0 1 7.086609,7.08661 z"
       id="path9549-9-7-47" />
    <path
       style="opacity:1;fill:#0000ff;fill-opacity:1;fill-rule:evenodd;stroke:#0000ff;stroke-width:0;stroke-linejoin:miter;stroke-miterlimit:4;stroke-dasharray:none;stroke-opacity:1"
       d="m 95.684754,715.81177 a 7.0866094,7.0866094 0 0 1 -7.086609,7.08661 7.0866094,7.0866094 0 0 1 -7.08661,-7.08661 7.0866094,7.0866094 0 0 1 7.08661,-7.08661 7.0866094,7.0866094 0 0 1 7.086609,7.08661 z"
       id="path9549-9-7-9-2" />
    <path
       style="opacity:1;fill:#0000ff;fill-opacity:1;fill-rule:evenodd;stroke:#0000ff;stroke-width:0;stroke-linejoin:miter;stroke-miterlimit:4;stroke-dasharray:none;stroke-opacity:1"
       d="m 131.11784,715.78107 a 7.0866094,7.0866094 0 0 1 -7.08661,7.08661 7.0866094,7.0866094 0 0 1 -7.08661,-7.08661 7.0866094,7.0866094 0 0 1 7.08661,-7.08661 7.0866094,7.0866094 0 0 1 7.08661,7.08661 z"
       id="path9549-9-7-4-6" />
    <path
       style="opacity:1;fill:#0000ff;fill-opacity:1;fill-rule:evenodd;stroke:#0000ff;stroke-width:0;stroke-linejoin:miter;stroke-miterlimit:4;stroke-dasharray:none;stroke-opacity:1"
       d="m 166.5509,715.78107 a 7.0866094,7.0866094 0 0 1 -7.08661,7.08661 7.0866094,7.0866094 0 0 1 -7.0866,-7.08661 7.0866094,7.0866094 0 0 1 7.0866,-7.08661 7.0866094,7.0866094 0 0 1 7.08661,7.08661 z"
       id="path9549-9-7-4-7-1" />
    <path
       style="opacity:1;fill:#0000ff;fill-opacity:1;fill-rule:evenodd;stroke:#0000ff;stroke-width:0;stroke-linejoin:miter;stroke-miterlimit:4;stroke-dasharray:none;stroke-opacity:1"
       d="m 201.98398,715.78107 a 7.0866094,7.0866094 0 0 1 -7.08661,7.08661 7.0866094,7.0866094 0 0 1 -7.08661,-7.08661 7.0866094,7.0866094 0 0 1 7.08661,-7.08661 7.0866094,7.0866094 0 0 1 7.08661,7.08661 z"
       id="path9549-9-7-4-5-1" />
    <path
       style="opacity:1;fill:#0000ff;fill-opacity:1;fill-rule:evenodd;stroke:#0000ff;stroke-width:0;stroke-linejoin:miter;stroke-miterlimit:4;stroke-dasharray:none;stroke-opacity:1"
       d="m 237.41705,715.78107 a 7.0866094,7.0866094 0 0 1 -7.08661,7.08661 7.0866094,7.0866094 0 0 1 -7.08661,-7.08661 7.0866094,7.0866094 0 0 1 7.08661,-7.08661 7.0866094,7.0866094 0 0 1 7.08661,7.08661 z"
       id="path9549-9-7-4-73-69" />
    <path
       style="opacity:1;fill:#0000ff;fill-opacity:1;fill-rule:evenodd;stroke:#0000ff;stroke-width:0;stroke-linejoin:miter;stroke-miterlimit:4;stroke-dasharray:none;stroke-opacity:1"
       d="m 272.85013,715.78107 a 7.0866094,7.0866094 0 0 1 -7.08661,7.08661 7.0866094,7.0866094 0 0 1 -7.08661,-7.08661 7.0866094,7.0866094 0 0 1 7.08661,-7.08661 7.0866094,7.0866094 0 0 1 7.08661,7.08661 z"
       id="path9549-9-7-4-8-0" />
    <path
       style="opacity:1;fill:#0000ff;fill-opacity:1;fill-rule:evenodd;stroke:#0000ff;stroke-width:0;stroke-linejoin:miter;stroke-miterlimit:4;stroke-dasharray:none;stroke-opacity:1"
       d="m 308.28317,715.78107 a 7.0866094,7.0866094 0 0 1 -7.08661,7.08661 7.0866094,7.0866094 0 0 1 -7.08661,-7.08661 7.0866094,7.0866094 0 0 1 7.08661,-7.08661 7.0866094,7.0866094 0 0 1 7.08661,7.08661 z"
       id="path9549-9-7-4-2-7" />
    <path
       style="opacity:1;fill:#0000ff;fill-opacity:1;fill-rule:evenodd;stroke:#0000ff;stroke-width:0;stroke-linejoin:miter;stroke-miterlimit:4;stroke-dasharray:none;stroke-opacity:1"
       d="m 343.71625,715.78107 a 7.0866094,7.0866094 0 0 1 -7.08661,7.08661 7.0866094,7.0866094 0 0 1 -7.08661,-7.08661 7.0866094,7.0866094 0 0 1 7.08661,-7.08661 7.0866094,7.0866094 0 0 1 7.08661,7.08661 z"
       id="path9549-9-7-4-3-97" />
    <path
       style="opacity:1;fill:#0000ff;fill-opacity:1;fill-rule:evenodd;stroke:#0000ff;stroke-width:0;stroke-linejoin:miter;stroke-miterlimit:4;stroke-dasharray:none;stroke-opacity:1"
       d="m 379.14932,715.78107 a 7.0866094,7.0866094 0 0 1 -7.08661,7.08661 7.0866094,7.0866094 0 0 1 -7.08661,-7.08661 7.0866094,7.0866094 0 0 1 7.08661,-7.08661 7.0866094,7.0866094 0 0 1 7.08661,7.08661 z"
       id="path9549-9-7-4-0-1" />
    <path
       style="opacity:1;fill:#0000ff;fill-opacity:1;fill-rule:evenodd;stroke:#0000ff;stroke-width:0;stroke-linejoin:miter;stroke-miterlimit:4;stroke-dasharray:none;stroke-opacity:1"
       d="m 414.5824,715.78107 a 7.0866094,7.0866094 0 0 1 -7.08661,7.08661 7.0866094,7.0866094 0 0 1 -7.08661,-7.08661 7.0866094,7.0866094 0 0 1 7.08661,-7.08661 7.0866094,7.0866094 0 0 1 7.08661,7.08661 z"
       id="path9549-9-7-4-1-28" />
    <path
       style="opacity:1;fill:#0000ff;fill-opacity:1;fill-rule:evenodd;stroke:#0000ff;stroke-width:0;stroke-linejoin:miter;stroke-miterlimit:4;stroke-dasharray:none;stroke-opacity:1"
       d="m 450.01547,715.78107 a 7.0866094,7.0866094 0 0 1 -7.08661,7.08661 7.0866094,7.0866094 0 0 1 -7.08661,-7.08661 7.0866094,7.0866094 0 0 1 7.08661,-7.08661 7.0866094,7.0866094 0 0 1 7.08661,7.08661 z"
       id="path9549-9-7-4-76-1" />
    <path
       style="opacity:1;fill:#0000ff;fill-opacity:1;fill-rule:evenodd;stroke:#0000ff;stroke-width:0;stroke-linejoin:miter;stroke-miterlimit:4;stroke-dasharray:none;stroke-opacity:1"
       d="m 485.44855,715.78107 a 7.0866094,7.0866094 0 0 1 -7.08661,7.08661 7.0866094,7.0866094 0 0 1 -7.08661,-7.08661 7.0866094,7.0866094 0 0 1 7.08661,-7.08661 7.0866094,7.0866094 0 0 1 7.08661,7.08661 z"
       id="path9549-9-7-4-26-3" />
    <path
       style="opacity:1;fill:#0000ff;fill-opacity:1;fill-rule:evenodd;stroke:#0000ff;stroke-width:0;stroke-linejoin:miter;stroke-miterlimit:4;stroke-dasharray:none;stroke-opacity:1"
       d="m 520.88159,715.78107 a 7.0866094,7.0866094 0 0 1 -7.08661,7.08661 7.0866094,7.0866094 0 0 1 -7.08661,-7.08661 7.0866094,7.0866094 0 0 1 7.08661,-7.08661 7.0866094,7.0866094 0 0 1 7.08661,7.08661 z"
       id="path9549-9-7-4-08-86" />
    <path
       style="opacity:1;fill:#0000ff;fill-opacity:1;fill-rule:evenodd;stroke:#0000ff;stroke-width:0;stroke-linejoin:miter;stroke-miterlimit:4;stroke-dasharray:none;stroke-opacity:1"
       d="m 556.3147,715.78107 a 7.0866094,7.0866094 0 0 1 -7.08661,7.08661 7.0866094,7.0866094 0 0 1 -7.08661,-7.08661 7.0866094,7.0866094 0 0 1 7.08661,-7.08661 7.0866094,7.0866094 0 0 1 7.08661,7.08661 z"
       id="path9549-9-7-4-00-9" />
    <path
       style="opacity:1;fill:#0000ff;fill-opacity:1;fill-rule:evenodd;stroke:#0000ff;stroke-width:0;stroke-linejoin:miter;stroke-miterlimit:4;stroke-dasharray:none;stroke-opacity:1"
       d="m 60.073113,770.26996 a 7.0866094,7.0866094 0 0 1 -7.086609,7.08661 7.0866094,7.0866094 0 0 1 -7.08661,-7.08661 7.0866094,7.0866094 0 0 1 7.08661,-7.08661 7.0866094,7.0866094 0 0 1 7.086609,7.08661 z"
       id="path9549-9-7-43" />
    <path
       style="opacity:1;fill:#0000ff;fill-opacity:1;fill-rule:evenodd;stroke:#0000ff;stroke-width:0;stroke-linejoin:miter;stroke-miterlimit:4;stroke-dasharray:none;stroke-opacity:1"
       d="m 95.684754,768.96136 a 7.0866094,7.0866094 0 0 1 -7.086609,7.08661 7.0866094,7.0866094 0 0 1 -7.08661,-7.08661 7.0866094,7.0866094 0 0 1 7.08661,-7.0866 7.0866094,7.0866094 0 0 1 7.086609,7.0866 z"
       id="path9549-9-7-9-9" />
    <path
       style="opacity:1;fill:#0000ff;fill-opacity:1;fill-rule:evenodd;stroke:#0000ff;stroke-width:0;stroke-linejoin:miter;stroke-miterlimit:4;stroke-dasharray:none;stroke-opacity:1"
       d="m 131.11784,768.93066 a 7.0866094,7.0866094 0 0 1 -7.08661,7.08661 7.0866094,7.0866094 0 0 1 -7.08661,-7.08661 7.0866094,7.0866094 0 0 1 7.08661,-7.08661 7.0866094,7.0866094 0 0 1 7.08661,7.08661 z"
       id="path9549-9-7-4-31" />
    <path
       style="opacity:1;fill:#0000ff;fill-opacity:1;fill-rule:evenodd;stroke:#0000ff;stroke-width:0;stroke-linejoin:miter;stroke-miterlimit:4;stroke-dasharray:none;stroke-opacity:1"
       d="m 166.5509,768.93066 a 7.0866094,7.0866094 0 0 1 -7.08661,7.08661 7.0866094,7.0866094 0 0 1 -7.0866,-7.08661 7.0866094,7.0866094 0 0 1 7.0866,-7.08661 7.0866094,7.0866094 0 0 1 7.08661,7.08661 z"
       id="path9549-9-7-4-7-13" />
    <path
       style="opacity:1;fill:#0000ff;fill-opacity:1;fill-rule:evenodd;stroke:#0000ff;stroke-width:0;stroke-linejoin:miter;stroke-miterlimit:4;stroke-dasharray:none;stroke-opacity:1"
       d="m 201.98398,768.93066 a 7.0866094,7.0866094 0 0 1 -7.08661,7.08661 7.0866094,7.0866094 0 0 1 -7.08661,-7.08661 7.0866094,7.0866094 0 0 1 7.08661,-7.08661 7.0866094,7.0866094 0 0 1 7.08661,7.08661 z"
       id="path9549-9-7-4-5-3" />
    <path
       style="opacity:1;fill:#0000ff;fill-opacity:1;fill-rule:evenodd;stroke:#0000ff;stroke-width:0;stroke-linejoin:miter;stroke-miterlimit:4;stroke-dasharray:none;stroke-opacity:1"
       d="m 237.41705,768.93066 a 7.0866094,7.0866094 0 0 1 -7.08661,7.08661 7.0866094,7.0866094 0 0 1 -7.08661,-7.08661 7.0866094,7.0866094 0 0 1 7.08661,-7.08661 7.0866094,7.0866094 0 0 1 7.08661,7.08661 z"
       id="path9549-9-7-4-73-0" />
    <path
       style="opacity:1;fill:#0000ff;fill-opacity:1;fill-rule:evenodd;stroke:#0000ff;stroke-width:0;stroke-linejoin:miter;stroke-miterlimit:4;stroke-dasharray:none;stroke-opacity:1"
       d="m 272.85013,768.93066 a 7.0866094,7.0866094 0 0 1 -7.08661,7.08661 7.0866094,7.0866094 0 0 1 -7.08661,-7.08661 7.0866094,7.0866094 0 0 1 7.08661,-7.08661 7.0866094,7.0866094 0 0 1 7.08661,7.08661 z"
       id="path9549-9-7-4-8-00" />
    <path
       style="opacity:1;fill:#0000ff;fill-opacity:1;fill-rule:evenodd;stroke:#0000ff;stroke-width:0;stroke-linejoin:miter;stroke-miterlimit:4;stroke-dasharray:none;stroke-opacity:1"
       d="m 308.28317,768.93066 a 7.0866094,7.0866094 0 0 1 -7.08661,7.08661 7.0866094,7.0866094 0 0 1 -7.08661,-7.08661 7.0866094,7.0866094 0 0 1 7.08661,-7.08661 7.0866094,7.0866094 0 0 1 7.08661,7.08661 z"
       id="path9549-9-7-4-2-26" />
    <path
       style="opacity:1;fill:#0000ff;fill-opacity:1;fill-rule:evenodd;stroke:#0000ff;stroke-width:0;stroke-linejoin:miter;stroke-miterlimit:4;stroke-dasharray:none;stroke-opacity:1"
       d="m 343.71625,768.93066 a 7.0866094,7.0866094 0 0 1 -7.08661,7.08661 7.0866094,7.0866094 0 0 1 -7.08661,-7.08661 7.0866094,7.0866094 0 0 1 7.08661,-7.08661 7.0866094,7.0866094 0 0 1 7.08661,7.08661 z"
       id="path9549-9-7-4-3-979" />
    <path
       style="opacity:1;fill:#0000ff;fill-opacity:1;fill-rule:evenodd;stroke:#0000ff;stroke-width:0;stroke-linejoin:miter;stroke-miterlimit:4;stroke-dasharray:none;stroke-opacity:1"
       d="m 379.14932,768.93066 a 7.0866094,7.0866094 0 0 1 -7.08661,7.08661 7.0866094,7.0866094 0 0 1 -7.08661,-7.08661 7.0866094,7.0866094 0 0 1 7.08661,-7.08661 7.0866094,7.0866094 0 0 1 7.08661,7.08661 z"
       id="path9549-9-7-4-0-5" />
    <path
       style="opacity:1;fill:#0000ff;fill-opacity:1;fill-rule:evenodd;stroke:#0000ff;stroke-width:0;stroke-linejoin:miter;stroke-miterlimit:4;stroke-dasharray:none;stroke-opacity:1"
       d="m 414.5824,768.93066 a 7.0866094,7.0866094 0 0 1 -7.08661,7.08661 7.0866094,7.0866094 0 0 1 -7.08661,-7.08661 7.0866094,7.0866094 0 0 1 7.08661,-7.08661 7.0866094,7.0866094 0 0 1 7.08661,7.08661 z"
       id="path9549-9-7-4-1-9" />
    <path
       style="opacity:1;fill:#0000ff;fill-opacity:1;fill-rule:evenodd;stroke:#0000ff;stroke-width:0;stroke-linejoin:miter;stroke-miterlimit:4;stroke-dasharray:none;stroke-opacity:1"
       d="m 450.01547,768.93066 a 7.0866094,7.0866094 0 0 1 -7.08661,7.08661 7.0866094,7.0866094 0 0 1 -7.08661,-7.08661 7.0866094,7.0866094 0 0 1 7.08661,-7.08661 7.0866094,7.0866094 0 0 1 7.08661,7.08661 z"
       id="path9549-9-7-4-76-2" />
    <path
       style="opacity:1;fill:#0000ff;fill-opacity:1;fill-rule:evenodd;stroke:#0000ff;stroke-width:0;stroke-linejoin:miter;stroke-miterlimit:4;stroke-dasharray:none;stroke-opacity:1"
       d="m 485.44855,768.93066 a 7.0866094,7.0866094 0 0 1 -7.08661,7.08661 7.0866094,7.0866094 0 0 1 -7.08661,-7.08661 7.0866094,7.0866094 0 0 1 7.08661,-7.08661 7.0866094,7.0866094 0 0 1 7.08661,7.08661 z"
       id="path9549-9-7-4-26-32" />
    <path
       style="opacity:1;fill:#0000ff;fill-opacity:1;fill-rule:evenodd;stroke:#0000ff;stroke-width:0;stroke-linejoin:miter;stroke-miterlimit:4;stroke-dasharray:none;stroke-opacity:1"
       d="m 520.88159,768.93066 a 7.0866094,7.0866094 0 0 1 -7.08661,7.08661 7.0866094,7.0866094 0 0 1 -7.08661,-7.08661 7.0866094,7.0866094 0 0 1 7.08661,-7.08661 7.0866094,7.0866094 0 0 1 7.08661,7.08661 z"
       id="path9549-9-7-4-08-5" />
    <path
       style="opacity:1;fill:#0000ff;fill-opacity:1;fill-rule:evenodd;stroke:#0000ff;stroke-width:0;stroke-linejoin:miter;stroke-miterlimit:4;stroke-dasharray:none;stroke-opacity:1"
       d="m 556.3147,768.93066 a 7.0866094,7.0866094 0 0 1 -7.08661,7.08661 7.0866094,7.0866094 0 0 1 -7.08661,-7.08661 7.0866094,7.0866094 0 0 1 7.08661,-7.08661 7.0866094,7.0866094 0 0 1 7.08661,7.08661 z"
       id="path9549-9-7-4-00-0" />
    <path
       style="opacity:1;fill:#0000ff;fill-opacity:1;fill-rule:evenodd;stroke:#0000ff;stroke-width:0;stroke-linejoin:miter;stroke-miterlimit:4;stroke-dasharray:none;stroke-opacity:1"
       d="m 60.073113,823.41956 a 7.0866094,7.0866094 0 0 1 -7.086609,7.08661 7.0866094,7.0866094 0 0 1 -7.08661,-7.08661 7.0866094,7.0866094 0 0 1 7.08661,-7.08661 7.0866094,7.0866094 0 0 1 7.086609,7.08661 z"
       id="path9549-9-7-2" />
    <path
       style="opacity:1;fill:#0000ff;fill-opacity:1;fill-rule:evenodd;stroke:#0000ff;stroke-width:0;stroke-linejoin:miter;stroke-miterlimit:4;stroke-dasharray:none;stroke-opacity:1"
       d="m 95.684754,822.11096 a 7.0866094,7.0866094 0 0 1 -7.086609,7.08661 7.0866094,7.0866094 0 0 1 -7.08661,-7.08661 7.0866094,7.0866094 0 0 1 7.08661,-7.08661 7.0866094,7.0866094 0 0 1 7.086609,7.08661 z"
       id="path9549-9-7-9-5" />
    <path
       style="opacity:1;fill:#0000ff;fill-opacity:1;fill-rule:evenodd;stroke:#0000ff;stroke-width:0;stroke-linejoin:miter;stroke-miterlimit:4;stroke-dasharray:none;stroke-opacity:1"
       d="m 131.11784,822.08026 a 7.0866094,7.0866094 0 0 1 -7.08661,7.08661 7.0866094,7.0866094 0 0 1 -7.08661,-7.08661 7.0866094,7.0866094 0 0 1 7.08661,-7.08661 7.0866094,7.0866094 0 0 1 7.08661,7.08661 z"
       id="path9549-9-7-4-21" />
    <path
       style="opacity:1;fill:#0000ff;fill-opacity:1;fill-rule:evenodd;stroke:#0000ff;stroke-width:0;stroke-linejoin:miter;stroke-miterlimit:4;stroke-dasharray:none;stroke-opacity:1"
       d="m 166.5509,822.08026 a 7.0866094,7.0866094 0 0 1 -7.08661,7.08661 7.0866094,7.0866094 0 0 1 -7.0866,-7.08661 7.0866094,7.0866094 0 0 1 7.0866,-7.08661 7.0866094,7.0866094 0 0 1 7.08661,7.08661 z"
       id="path9549-9-7-4-7-9" />
    <path
       style="opacity:1;fill:#0000ff;fill-opacity:1;fill-rule:evenodd;stroke:#0000ff;stroke-width:0;stroke-linejoin:miter;stroke-miterlimit:4;stroke-dasharray:none;stroke-opacity:1"
       d="m 201.98398,822.08026 a 7.0866094,7.0866094 0 0 1 -7.08661,7.08661 7.0866094,7.0866094 0 0 1 -7.08661,-7.08661 7.0866094,7.0866094 0 0 1 7.08661,-7.08661 7.0866094,7.0866094 0 0 1 7.08661,7.08661 z"
       id="path9549-9-7-4-5-7" />
    <path
       style="opacity:1;fill:#0000ff;fill-opacity:1;fill-rule:evenodd;stroke:#0000ff;stroke-width:0;stroke-linejoin:miter;stroke-miterlimit:4;stroke-dasharray:none;stroke-opacity:1"
       d="m 237.41705,822.08026 a 7.0866094,7.0866094 0 0 1 -7.08661,7.08661 7.0866094,7.0866094 0 0 1 -7.08661,-7.08661 7.0866094,7.0866094 0 0 1 7.08661,-7.08661 7.0866094,7.0866094 0 0 1 7.08661,7.08661 z"
       id="path9549-9-7-4-73-2" />
    <path
       style="opacity:1;fill:#0000ff;fill-opacity:1;fill-rule:evenodd;stroke:#0000ff;stroke-width:0;stroke-linejoin:miter;stroke-miterlimit:4;stroke-dasharray:none;stroke-opacity:1"
       d="m 272.85013,822.08026 a 7.0866094,7.0866094 0 0 1 -7.08661,7.08661 7.0866094,7.0866094 0 0 1 -7.08661,-7.08661 7.0866094,7.0866094 0 0 1 7.08661,-7.08661 7.0866094,7.0866094 0 0 1 7.08661,7.08661 z"
       id="path9549-9-7-4-8-6" />
    <path
       style="opacity:1;fill:#0000ff;fill-opacity:1;fill-rule:evenodd;stroke:#0000ff;stroke-width:0;stroke-linejoin:miter;stroke-miterlimit:4;stroke-dasharray:none;stroke-opacity:1"
       d="m 308.28317,822.08026 a 7.0866094,7.0866094 0 0 1 -7.08661,7.08661 7.0866094,7.0866094 0 0 1 -7.08661,-7.08661 7.0866094,7.0866094 0 0 1 7.08661,-7.08661 7.0866094,7.0866094 0 0 1 7.08661,7.08661 z"
       id="path9549-9-7-4-2-3" />
    <path
       style="opacity:1;fill:#0000ff;fill-opacity:1;fill-rule:evenodd;stroke:#0000ff;stroke-width:0;stroke-linejoin:miter;stroke-miterlimit:4;stroke-dasharray:none;stroke-opacity:1"
       d="m 343.71625,822.08026 a 7.0866094,7.0866094 0 0 1 -7.08661,7.08661 7.0866094,7.0866094 0 0 1 -7.08661,-7.08661 7.0866094,7.0866094 0 0 1 7.08661,-7.08661 7.0866094,7.0866094 0 0 1 7.08661,7.08661 z"
       id="path9549-9-7-4-3-2" />
    <path
       style="opacity:1;fill:#0000ff;fill-opacity:1;fill-rule:evenodd;stroke:#0000ff;stroke-width:0;stroke-linejoin:miter;stroke-miterlimit:4;stroke-dasharray:none;stroke-opacity:1"
       d="m 379.14932,822.08026 a 7.0866094,7.0866094 0 0 1 -7.08661,7.08661 7.0866094,7.0866094 0 0 1 -7.08661,-7.08661 7.0866094,7.0866094 0 0 1 7.08661,-7.08661 7.0866094,7.0866094 0 0 1 7.08661,7.08661 z"
       id="path9549-9-7-4-0-9" />
    <path
       style="opacity:1;fill:#0000ff;fill-opacity:1;fill-rule:evenodd;stroke:#0000ff;stroke-width:0;stroke-linejoin:miter;stroke-miterlimit:4;stroke-dasharray:none;stroke-opacity:1"
       d="m 414.5824,822.08026 a 7.0866094,7.0866094 0 0 1 -7.08661,7.08661 7.0866094,7.0866094 0 0 1 -7.08661,-7.08661 7.0866094,7.0866094 0 0 1 7.08661,-7.08661 7.0866094,7.0866094 0 0 1 7.08661,7.08661 z"
       id="path9549-9-7-4-1-95" />
    <path
       style="opacity:1;fill:#0000ff;fill-opacity:1;fill-rule:evenodd;stroke:#0000ff;stroke-width:0;stroke-linejoin:miter;stroke-miterlimit:4;stroke-dasharray:none;stroke-opacity:1"
       d="m 450.01547,822.08026 a 7.0866094,7.0866094 0 0 1 -7.08661,7.08661 7.0866094,7.0866094 0 0 1 -7.08661,-7.08661 7.0866094,7.0866094 0 0 1 7.08661,-7.08661 7.0866094,7.0866094 0 0 1 7.08661,7.08661 z"
       id="path9549-9-7-4-76-3" />
    <path
       style="opacity:1;fill:#0000ff;fill-opacity:1;fill-rule:evenodd;stroke:#0000ff;stroke-width:0;stroke-linejoin:miter;stroke-miterlimit:4;stroke-dasharray:none;stroke-opacity:1"
       d="m 485.44855,822.08026 a 7.0866094,7.0866094 0 0 1 -7.08661,7.08661 7.0866094,7.0866094 0 0 1 -7.08661,-7.08661 7.0866094,7.0866094 0 0 1 7.08661,-7.08661 7.0866094,7.0866094 0 0 1 7.08661,7.08661 z"
       id="path9549-9-7-4-26-1" />
    <path
       style="opacity:1;fill:#0000ff;fill-opacity:1;fill-rule:evenodd;stroke:#0000ff;stroke-width:0;stroke-linejoin:miter;stroke-miterlimit:4;stroke-dasharray:none;stroke-opacity:1"
       d="m 520.88159,822.08026 a 7.0866094,7.0866094 0 0 1 -7.08661,7.08661 7.0866094,7.0866094 0 0 1 -7.08661,-7.08661 7.0866094,7.0866094 0 0 1 7.08661,-7.08661 7.0866094,7.0866094 0 0 1 7.08661,7.08661 z"
       id="path9549-9-7-4-08-12" />
    <path
       style="opacity:1;fill:#0000ff;fill-opacity:1;fill-rule:evenodd;stroke:#0000ff;stroke-width:0;stroke-linejoin:miter;stroke-miterlimit:4;stroke-dasharray:none;stroke-opacity:1"
       d="m 556.3147,822.08026 a 7.0866094,7.0866094 0 0 1 -7.08661,7.08661 7.0866094,7.0866094 0 0 1 -7.08661,-7.08661 7.0866094,7.0866094 0 0 1 7.08661,-7.08661 7.0866094,7.0866094 0 0 1 7.08661,7.08661 z"
       id="path9549-9-7-4-00-2" />
    <path
       style="opacity:1;fill:#0000ff;fill-opacity:1;fill-rule:evenodd;stroke:#0000ff;stroke-width:0;stroke-linejoin:miter;stroke-miterlimit:4;stroke-dasharray:none;stroke-opacity:1"
       d="m 60.073113,876.56921 a 7.0866094,7.0866094 0 0 1 -7.086609,7.08661 7.0866094,7.0866094 0 0 1 -7.08661,-7.08661 7.0866094,7.0866094 0 0 1 7.08661,-7.08661 7.0866094,7.0866094 0 0 1 7.086609,7.08661 z"
       id="path9549-9-7-25" />
    <path
       style="opacity:1;fill:#0000ff;fill-opacity:1;fill-rule:evenodd;stroke:#0000ff;stroke-width:0;stroke-linejoin:miter;stroke-miterlimit:4;stroke-dasharray:none;stroke-opacity:1"
       d="m 95.684754,875.26056 a 7.0866094,7.0866094 0 0 1 -7.086609,7.08661 7.0866094,7.0866094 0 0 1 -7.08661,-7.08661 7.0866094,7.0866094 0 0 1 7.08661,-7.08661 7.0866094,7.0866094 0 0 1 7.086609,7.08661 z"
       id="path9549-9-7-9-37" />
    <path
       style="opacity:1;fill:#0000ff;fill-opacity:1;fill-rule:evenodd;stroke:#0000ff;stroke-width:0;stroke-linejoin:miter;stroke-miterlimit:4;stroke-dasharray:none;stroke-opacity:1"
       d="m 131.11784,875.22992 a 7.0866094,7.0866094 0 0 1 -7.08661,7.08661 7.0866094,7.0866094 0 0 1 -7.08661,-7.08661 7.0866094,7.0866094 0 0 1 7.08661,-7.08661 7.0866094,7.0866094 0 0 1 7.08661,7.08661 z"
       id="path9549-9-7-4-4" />
    <path
       style="opacity:1;fill:#0000ff;fill-opacity:1;fill-rule:evenodd;stroke:#0000ff;stroke-width:0;stroke-linejoin:miter;stroke-miterlimit:4;stroke-dasharray:none;stroke-opacity:1"
       d="m 166.5509,875.22992 a 7.0866094,7.0866094 0 0 1 -7.08661,7.08661 7.0866094,7.0866094 0 0 1 -7.0866,-7.08661 7.0866094,7.0866094 0 0 1 7.0866,-7.08661 7.0866094,7.0866094 0 0 1 7.08661,7.08661 z"
       id="path9549-9-7-4-7-80" />
    <path
       style="opacity:1;fill:#0000ff;fill-opacity:1;fill-rule:evenodd;stroke:#0000ff;stroke-width:0;stroke-linejoin:miter;stroke-miterlimit:4;stroke-dasharray:none;stroke-opacity:1"
       d="m 201.98398,875.22992 a 7.0866094,7.0866094 0 0 1 -7.08661,7.08661 7.0866094,7.0866094 0 0 1 -7.08661,-7.08661 7.0866094,7.0866094 0 0 1 7.08661,-7.08661 7.0866094,7.0866094 0 0 1 7.08661,7.08661 z"
       id="path9549-9-7-4-5-75" />
    <path
       style="opacity:1;fill:#0000ff;fill-opacity:1;fill-rule:evenodd;stroke:#0000ff;stroke-width:0;stroke-linejoin:miter;stroke-miterlimit:4;stroke-dasharray:none;stroke-opacity:1"
       d="m 237.41705,875.22992 a 7.0866094,7.0866094 0 0 1 -7.08661,7.08661 7.0866094,7.0866094 0 0 1 -7.08661,-7.08661 7.0866094,7.0866094 0 0 1 7.08661,-7.08661 7.0866094,7.0866094 0 0 1 7.08661,7.08661 z"
       id="path9549-9-7-4-73-9" />
    <path
       style="opacity:1;fill:#0000ff;fill-opacity:1;fill-rule:evenodd;stroke:#0000ff;stroke-width:0;stroke-linejoin:miter;stroke-miterlimit:4;stroke-dasharray:none;stroke-opacity:1"
       d="m 272.85013,875.22992 a 7.0866094,7.0866094 0 0 1 -7.08661,7.08661 7.0866094,7.0866094 0 0 1 -7.08661,-7.08661 7.0866094,7.0866094 0 0 1 7.08661,-7.08661 7.0866094,7.0866094 0 0 1 7.08661,7.08661 z"
       id="path9549-9-7-4-8-53" />
    <path
       style="opacity:1;fill:#0000ff;fill-opacity:1;fill-rule:evenodd;stroke:#0000ff;stroke-width:0;stroke-linejoin:miter;stroke-miterlimit:4;stroke-dasharray:none;stroke-opacity:1"
       d="m 308.28317,875.22992 a 7.0866094,7.0866094 0 0 1 -7.08661,7.08661 7.0866094,7.0866094 0 0 1 -7.08661,-7.08661 7.0866094,7.0866094 0 0 1 7.08661,-7.08661 7.0866094,7.0866094 0 0 1 7.08661,7.08661 z"
       id="path9549-9-7-4-2-5" />
    <path
       style="opacity:1;fill:#0000ff;fill-opacity:1;fill-rule:evenodd;stroke:#0000ff;stroke-width:0;stroke-linejoin:miter;stroke-miterlimit:4;stroke-dasharray:none;stroke-opacity:1"
       d="m 343.71625,875.22992 a 7.0866094,7.0866094 0 0 1 -7.08661,7.08661 7.0866094,7.0866094 0 0 1 -7.08661,-7.08661 7.0866094,7.0866094 0 0 1 7.08661,-7.08661 7.0866094,7.0866094 0 0 1 7.08661,7.08661 z"
       id="path9549-9-7-4-3-7" />
    <path
       style="opacity:1;fill:#0000ff;fill-opacity:1;fill-rule:evenodd;stroke:#0000ff;stroke-width:0;stroke-linejoin:miter;stroke-miterlimit:4;stroke-dasharray:none;stroke-opacity:1"
       d="m 379.14932,875.22992 a 7.0866094,7.0866094 0 0 1 -7.08661,7.08661 7.0866094,7.0866094 0 0 1 -7.08661,-7.08661 7.0866094,7.0866094 0 0 1 7.08661,-7.08661 7.0866094,7.0866094 0 0 1 7.08661,7.08661 z"
       id="path9549-9-7-4-0-12" />
    <path
       style="opacity:1;fill:#0000ff;fill-opacity:1;fill-rule:evenodd;stroke:#0000ff;stroke-width:0;stroke-linejoin:miter;stroke-miterlimit:4;stroke-dasharray:none;stroke-opacity:1"
       d="m 414.5824,875.22992 a 7.0866094,7.0866094 0 0 1 -7.08661,7.08661 7.0866094,7.0866094 0 0 1 -7.08661,-7.08661 7.0866094,7.0866094 0 0 1 7.08661,-7.08661 7.0866094,7.0866094 0 0 1 7.08661,7.08661 z"
       id="path9549-9-7-4-1-3" />
    <path
       style="opacity:1;fill:#0000ff;fill-opacity:1;fill-rule:evenodd;stroke:#0000ff;stroke-width:0;stroke-linejoin:miter;stroke-miterlimit:4;stroke-dasharray:none;stroke-opacity:1"
       d="m 450.01547,875.22992 a 7.0866094,7.0866094 0 0 1 -7.08661,7.08661 7.0866094,7.0866094 0 0 1 -7.08661,-7.08661 7.0866094,7.0866094 0 0 1 7.08661,-7.08661 7.0866094,7.0866094 0 0 1 7.08661,7.08661 z"
       id="path9549-9-7-4-76-4" />
    <path
       style="opacity:1;fill:#0000ff;fill-opacity:1;fill-rule:evenodd;stroke:#0000ff;stroke-width:0;stroke-linejoin:miter;stroke-miterlimit:4;stroke-dasharray:none;stroke-opacity:1"
       d="m 485.44855,875.22992 a 7.0866094,7.0866094 0 0 1 -7.08661,7.08661 7.0866094,7.0866094 0 0 1 -7.08661,-7.08661 7.0866094,7.0866094 0 0 1 7.08661,-7.08661 7.0866094,7.0866094 0 0 1 7.08661,7.08661 z"
       id="path9549-9-7-4-26-35" />
    <path
       style="opacity:1;fill:#0000ff;fill-opacity:1;fill-rule:evenodd;stroke:#0000ff;stroke-width:0;stroke-linejoin:miter;stroke-miterlimit:4;stroke-dasharray:none;stroke-opacity:1"
       d="m 520.88159,875.22992 a 7.0866094,7.0866094 0 0 1 -7.08661,7.08661 7.0866094,7.0866094 0 0 1 -7.08661,-7.08661 7.0866094,7.0866094 0 0 1 7.08661,-7.08661 7.0866094,7.0866094 0 0 1 7.08661,7.08661 z"
       id="path9549-9-7-4-08-9" />
    <path
       style="opacity:1;fill:#0000ff;fill-opacity:1;fill-rule:evenodd;stroke:#0000ff;stroke-width:0;stroke-linejoin:miter;stroke-miterlimit:4;stroke-dasharray:none;stroke-opacity:1"
       d="m 556.3147,875.22992 a 7.0866094,7.0866094 0 0 1 -7.08661,7.08661 7.0866094,7.0866094 0 0 1 -7.08661,-7.08661 7.0866094,7.0866094 0 0 1 7.08661,-7.08661 7.0866094,7.0866094 0 0 1 7.08661,7.08661 z"
       id="path9549-9-7-4-00-1" />
    <path
       style="opacity:1;fill:#0000ff;fill-opacity:1;fill-rule:evenodd;stroke:#0000ff;stroke-width:0;stroke-linejoin:miter;stroke-miterlimit:4;stroke-dasharray:none;stroke-opacity:1"
       d="m 60.073113,929.71881 a 7.0866094,7.0866094 0 0 1 -7.086609,7.08661 7.0866094,7.0866094 0 0 1 -7.08661,-7.08661 7.0866094,7.0866094 0 0 1 7.08661,-7.08661 7.0866094,7.0866094 0 0 1 7.086609,7.08661 z"
       id="path9549-9-7-97" />
    <path
       style="opacity:1;fill:#0000ff;fill-opacity:1;fill-rule:evenodd;stroke:#0000ff;stroke-width:0;stroke-linejoin:miter;stroke-miterlimit:4;stroke-dasharray:none;stroke-opacity:1"
       d="m 95.684754,928.41016 a 7.0866094,7.0866094 0 0 1 -7.086609,7.08661 7.0866094,7.0866094 0 0 1 -7.08661,-7.08661 7.0866094,7.0866094 0 0 1 7.08661,-7.08661 7.0866094,7.0866094 0 0 1 7.086609,7.08661 z"
       id="path9549-9-7-9-7" />
    <path
       style="opacity:1;fill:#0000ff;fill-opacity:1;fill-rule:evenodd;stroke:#0000ff;stroke-width:0;stroke-linejoin:miter;stroke-miterlimit:4;stroke-dasharray:none;stroke-opacity:1"
       d="m 131.11784,928.37952 a 7.0866094,7.0866094 0 0 1 -7.08661,7.08661 7.0866094,7.0866094 0 0 1 -7.08661,-7.08661 7.0866094,7.0866094 0 0 1 7.08661,-7.08661 7.0866094,7.0866094 0 0 1 7.08661,7.08661 z"
       id="path9549-9-7-4-32" />
    <path
       style="opacity:1;fill:#0000ff;fill-opacity:1;fill-rule:evenodd;stroke:#0000ff;stroke-width:0;stroke-linejoin:miter;stroke-miterlimit:4;stroke-dasharray:none;stroke-opacity:1"
       d="m 166.5509,928.37952 a 7.0866094,7.0866094 0 0 1 -7.08661,7.08661 7.0866094,7.0866094 0 0 1 -7.0866,-7.08661 7.0866094,7.0866094 0 0 1 7.0866,-7.08661 7.0866094,7.0866094 0 0 1 7.08661,7.08661 z"
       id="path9549-9-7-4-7-11" />
    <path
       style="opacity:1;fill:#0000ff;fill-opacity:1;fill-rule:evenodd;stroke:#0000ff;stroke-width:0;stroke-linejoin:miter;stroke-miterlimit:4;stroke-dasharray:none;stroke-opacity:1"
       d="m 201.98398,928.37952 a 7.0866094,7.0866094 0 0 1 -7.08661,7.08661 7.0866094,7.0866094 0 0 1 -7.08661,-7.08661 7.0866094,7.0866094 0 0 1 7.08661,-7.08661 7.0866094,7.0866094 0 0 1 7.08661,7.08661 z"
       id="path9549-9-7-4-5-31" />
    <path
       style="opacity:1;fill:#0000ff;fill-opacity:1;fill-rule:evenodd;stroke:#0000ff;stroke-width:0;stroke-linejoin:miter;stroke-miterlimit:4;stroke-dasharray:none;stroke-opacity:1"
       d="m 237.41705,928.37952 a 7.0866094,7.0866094 0 0 1 -7.08661,7.08661 7.0866094,7.0866094 0 0 1 -7.08661,-7.08661 7.0866094,7.0866094 0 0 1 7.08661,-7.08661 7.0866094,7.0866094 0 0 1 7.08661,7.08661 z"
       id="path9549-9-7-4-73-1" />
    <path
       style="opacity:1;fill:#0000ff;fill-opacity:1;fill-rule:evenodd;stroke:#0000ff;stroke-width:0;stroke-linejoin:miter;stroke-miterlimit:4;stroke-dasharray:none;stroke-opacity:1"
       d="m 272.85013,928.37952 a 7.0866094,7.0866094 0 0 1 -7.08661,7.08661 7.0866094,7.0866094 0 0 1 -7.08661,-7.08661 7.0866094,7.0866094 0 0 1 7.08661,-7.08661 7.0866094,7.0866094 0 0 1 7.08661,7.08661 z"
       id="path9549-9-7-4-8-9" />
    <path
       style="opacity:1;fill:#0000ff;fill-opacity:1;fill-rule:evenodd;stroke:#0000ff;stroke-width:0;stroke-linejoin:miter;stroke-miterlimit:4;stroke-dasharray:none;stroke-opacity:1"
       d="m 308.28317,928.37952 a 7.0866094,7.0866094 0 0 1 -7.08661,7.08661 7.0866094,7.0866094 0 0 1 -7.08661,-7.08661 7.0866094,7.0866094 0 0 1 7.08661,-7.08661 7.0866094,7.0866094 0 0 1 7.08661,7.08661 z"
       id="path9549-9-7-4-2-70" />
    <path
       style="opacity:1;fill:#0000ff;fill-opacity:1;fill-rule:evenodd;stroke:#0000ff;stroke-width:0;stroke-linejoin:miter;stroke-miterlimit:4;stroke-dasharray:none;stroke-opacity:1"
       d="m 343.71625,928.37952 a 7.0866094,7.0866094 0 0 1 -7.08661,7.08661 7.0866094,7.0866094 0 0 1 -7.08661,-7.08661 7.0866094,7.0866094 0 0 1 7.08661,-7.08661 7.0866094,7.0866094 0 0 1 7.08661,7.08661 z"
       id="path9549-9-7-4-3-6" />
    <path
       style="opacity:1;fill:#0000ff;fill-opacity:1;fill-rule:evenodd;stroke:#0000ff;stroke-width:0;stroke-linejoin:miter;stroke-miterlimit:4;stroke-dasharray:none;stroke-opacity:1"
       d="m 379.14932,928.37952 a 7.0866094,7.0866094 0 0 1 -7.08661,7.08661 7.0866094,7.0866094 0 0 1 -7.08661,-7.08661 7.0866094,7.0866094 0 0 1 7.08661,-7.08661 7.0866094,7.0866094 0 0 1 7.08661,7.08661 z"
       id="path9549-9-7-4-0-18" />
    <path
       style="opacity:1;fill:#0000ff;fill-opacity:1;fill-rule:evenodd;stroke:#0000ff;stroke-width:0;stroke-linejoin:miter;stroke-miterlimit:4;stroke-dasharray:none;stroke-opacity:1"
       d="m 414.5824,928.37952 a 7.0866094,7.0866094 0 0 1 -7.08661,7.08661 7.0866094,7.0866094 0 0 1 -7.08661,-7.08661 7.0866094,7.0866094 0 0 1 7.08661,-7.08661 7.0866094,7.0866094 0 0 1 7.08661,7.08661 z"
       id="path9549-9-7-4-1-00" />
    <path
       style="opacity:1;fill:#0000ff;fill-opacity:1;fill-rule:evenodd;stroke:#0000ff;stroke-width:0;stroke-linejoin:miter;stroke-miterlimit:4;stroke-dasharray:none;stroke-opacity:1"
       d="m 450.01547,928.37952 a 7.0866094,7.0866094 0 0 1 -7.08661,7.08661 7.0866094,7.0866094 0 0 1 -7.08661,-7.08661 7.0866094,7.0866094 0 0 1 7.08661,-7.08661 7.0866094,7.0866094 0 0 1 7.08661,7.08661 z"
       id="path9549-9-7-4-76-9" />
    <path
       style="opacity:1;fill:#0000ff;fill-opacity:1;fill-rule:evenodd;stroke:#0000ff;stroke-width:0;stroke-linejoin:miter;stroke-miterlimit:4;stroke-dasharray:none;stroke-opacity:1"
       d="m 485.44855,928.37952 a 7.0866094,7.0866094 0 0 1 -7.08661,7.08661 7.0866094,7.0866094 0 0 1 -7.08661,-7.08661 7.0866094,7.0866094 0 0 1 7.08661,-7.08661 7.0866094,7.0866094 0 0 1 7.08661,7.08661 z"
       id="path9549-9-7-4-26-96" />
    <path
       style="opacity:1;fill:#0000ff;fill-opacity:1;fill-rule:evenodd;stroke:#0000ff;stroke-width:0;stroke-linejoin:miter;stroke-miterlimit:4;stroke-dasharray:none;stroke-opacity:1"
       d="m 520.88159,928.37952 a 7.0866094,7.0866094 0 0 1 -7.08661,7.08661 7.0866094,7.0866094 0 0 1 -7.08661,-7.08661 7.0866094,7.0866094 0 0 1 7.08661,-7.08661 7.0866094,7.0866094 0 0 1 7.08661,7.08661 z"
       id="path9549-9-7-4-08-2" />
    <path
       style="opacity:1;fill:#0000ff;fill-opacity:1;fill-rule:evenodd;stroke:#0000ff;stroke-width:0;stroke-linejoin:miter;stroke-miterlimit:4;stroke-dasharray:none;stroke-opacity:1"
       d="m 556.3147,928.37952 a 7.0866094,7.0866094 0 0 1 -7.08661,7.08661 7.0866094,7.0866094 0 0 1 -7.08661,-7.08661 7.0866094,7.0866094 0 0 1 7.08661,-7.08661 7.0866094,7.0866094 0 0 1 7.08661,7.08661 z"
       id="path9549-9-7-4-00-06" />
    <path
       style="opacity:1;fill:#0000ff;fill-opacity:1;fill-rule:evenodd;stroke:#0000ff;stroke-width:0;stroke-linejoin:miter;stroke-miterlimit:4;stroke-dasharray:none;stroke-opacity:1"
       d="m 60.073113,982.86841 a 7.0866094,7.0866094 0 0 1 -7.086609,7.08661 7.0866094,7.0866094 0 0 1 -7.08661,-7.08661 7.0866094,7.0866094 0 0 1 7.08661,-7.08661 7.0866094,7.0866094 0 0 1 7.086609,7.08661 z"
       id="path9549-9-7-8" />
    <path
       style="opacity:1;fill:#0000ff;fill-opacity:1;fill-rule:evenodd;stroke:#0000ff;stroke-width:0;stroke-linejoin:miter;stroke-miterlimit:4;stroke-dasharray:none;stroke-opacity:1"
       d="m 95.684754,981.55975 a 7.0866094,7.0866094 0 0 1 -7.086609,7.08661 7.0866094,7.0866094 0 0 1 -7.08661,-7.08661 7.0866094,7.0866094 0 0 1 7.08661,-7.08661 7.0866094,7.0866094 0 0 1 7.086609,7.08661 z"
       id="path9549-9-7-9-4" />
    <path
       style="opacity:1;fill:#0000ff;fill-opacity:1;fill-rule:evenodd;stroke:#0000ff;stroke-width:0;stroke-linejoin:miter;stroke-miterlimit:4;stroke-dasharray:none;stroke-opacity:1"
       d="m 131.11784,981.52911 a 7.0866094,7.0866094 0 0 1 -7.08661,7.08661 7.0866094,7.0866094 0 0 1 -7.08661,-7.08661 7.0866094,7.0866094 0 0 1 7.08661,-7.08661 7.0866094,7.0866094 0 0 1 7.08661,7.08661 z"
       id="path9549-9-7-4-42" />
    <path
       style="opacity:1;fill:#0000ff;fill-opacity:1;fill-rule:evenodd;stroke:#0000ff;stroke-width:0;stroke-linejoin:miter;stroke-miterlimit:4;stroke-dasharray:none;stroke-opacity:1"
       d="m 166.5509,981.52911 a 7.0866094,7.0866094 0 0 1 -7.08661,7.08661 7.0866094,7.0866094 0 0 1 -7.0866,-7.08661 7.0866094,7.0866094 0 0 1 7.0866,-7.08661 7.0866094,7.0866094 0 0 1 7.08661,7.08661 z"
       id="path9549-9-7-4-7-93" />
    <path
       style="opacity:1;fill:#0000ff;fill-opacity:1;fill-rule:evenodd;stroke:#0000ff;stroke-width:0;stroke-linejoin:miter;stroke-miterlimit:4;stroke-dasharray:none;stroke-opacity:1"
       d="m 201.98398,981.52911 a 7.0866094,7.0866094 0 0 1 -7.08661,7.08661 7.0866094,7.0866094 0 0 1 -7.08661,-7.08661 7.0866094,7.0866094 0 0 1 7.08661,-7.08661 7.0866094,7.0866094 0 0 1 7.08661,7.08661 z"
       id="path9549-9-7-4-5-8" />
    <path
       style="opacity:1;fill:#0000ff;fill-opacity:1;fill-rule:evenodd;stroke:#0000ff;stroke-width:0;stroke-linejoin:miter;stroke-miterlimit:4;stroke-dasharray:none;stroke-opacity:1"
       d="m 237.41705,981.52911 a 7.0866094,7.0866094 0 0 1 -7.08661,7.08661 7.0866094,7.0866094 0 0 1 -7.08661,-7.08661 7.0866094,7.0866094 0 0 1 7.08661,-7.08661 7.0866094,7.0866094 0 0 1 7.08661,7.08661 z"
       id="path9549-9-7-4-73-56" />
    <path
       style="opacity:1;fill:#0000ff;fill-opacity:1;fill-rule:evenodd;stroke:#0000ff;stroke-width:0;stroke-linejoin:miter;stroke-miterlimit:4;stroke-dasharray:none;stroke-opacity:1"
       d="m 272.85013,981.52911 a 7.0866094,7.0866094 0 0 1 -7.08661,7.08661 7.0866094,7.0866094 0 0 1 -7.08661,-7.08661 7.0866094,7.0866094 0 0 1 7.08661,-7.08661 7.0866094,7.0866094 0 0 1 7.08661,7.08661 z"
       id="path9549-9-7-4-8-92" />
    <path
       style="opacity:1;fill:#0000ff;fill-opacity:1;fill-rule:evenodd;stroke:#0000ff;stroke-width:0;stroke-linejoin:miter;stroke-miterlimit:4;stroke-dasharray:none;stroke-opacity:1"
       d="m 308.28317,981.52911 a 7.0866094,7.0866094 0 0 1 -7.08661,7.08661 7.0866094,7.0866094 0 0 1 -7.08661,-7.08661 7.0866094,7.0866094 0 0 1 7.08661,-7.08661 7.0866094,7.0866094 0 0 1 7.08661,7.08661 z"
       id="path9549-9-7-4-2-1" />
    <path
       style="opacity:1;fill:#0000ff;fill-opacity:1;fill-rule:evenodd;stroke:#0000ff;stroke-width:0;stroke-linejoin:miter;stroke-miterlimit:4;stroke-dasharray:none;stroke-opacity:1"
       d="m 343.71625,981.52911 a 7.0866094,7.0866094 0 0 1 -7.08661,7.08661 7.0866094,7.0866094 0 0 1 -7.08661,-7.08661 7.0866094,7.0866094 0 0 1 7.08661,-7.08661 7.0866094,7.0866094 0 0 1 7.08661,7.08661 z"
       id="path9549-9-7-4-3-78" />
    <path
       style="opacity:1;fill:#0000ff;fill-opacity:1;fill-rule:evenodd;stroke:#0000ff;stroke-width:0;stroke-linejoin:miter;stroke-miterlimit:4;stroke-dasharray:none;stroke-opacity:1"
       d="m 379.14932,981.52911 a 7.0866094,7.0866094 0 0 1 -7.08661,7.08661 7.0866094,7.0866094 0 0 1 -7.08661,-7.08661 7.0866094,7.0866094 0 0 1 7.08661,-7.08661 7.0866094,7.0866094 0 0 1 7.08661,7.08661 z"
       id="path9549-9-7-4-0-3" />
    <path
       style="opacity:1;fill:#0000ff;fill-opacity:1;fill-rule:evenodd;stroke:#0000ff;stroke-width:0;stroke-linejoin:miter;stroke-miterlimit:4;stroke-dasharray:none;stroke-opacity:1"
       d="m 414.5824,981.52911 a 7.0866094,7.0866094 0 0 1 -7.08661,7.08661 7.0866094,7.0866094 0 0 1 -7.08661,-7.08661 7.0866094,7.0866094 0 0 1 7.08661,-7.08661 7.0866094,7.0866094 0 0 1 7.08661,7.08661 z"
       id="path9549-9-7-4-1-97" />
    <path
       style="opacity:1;fill:#0000ff;fill-opacity:1;fill-rule:evenodd;stroke:#0000ff;stroke-width:0;stroke-linejoin:miter;stroke-miterlimit:4;stroke-dasharray:none;stroke-opacity:1"
       d="m 450.01547,981.52911 a 7.0866094,7.0866094 0 0 1 -7.08661,7.08661 7.0866094,7.0866094 0 0 1 -7.08661,-7.08661 7.0866094,7.0866094 0 0 1 7.08661,-7.08661 7.0866094,7.0866094 0 0 1 7.08661,7.08661 z"
       id="path9549-9-7-4-76-98" />
    <path
       style="opacity:1;fill:#0000ff;fill-opacity:1;fill-rule:evenodd;stroke:#0000ff;stroke-width:0;stroke-linejoin:miter;stroke-miterlimit:4;stroke-dasharray:none;stroke-opacity:1"
       d="m 485.44855,981.52911 a 7.0866094,7.0866094 0 0 1 -7.08661,7.08661 7.0866094,7.0866094 0 0 1 -7.08661,-7.08661 7.0866094,7.0866094 0 0 1 7.08661,-7.08661 7.0866094,7.0866094 0 0 1 7.08661,7.08661 z"
       id="path9549-9-7-4-26-2" />
    <path
       style="opacity:1;fill:#0000ff;fill-opacity:1;fill-rule:evenodd;stroke:#0000ff;stroke-width:0;stroke-linejoin:miter;stroke-miterlimit:4;stroke-dasharray:none;stroke-opacity:1"
       d="m 520.88159,981.52911 a 7.0866094,7.0866094 0 0 1 -7.08661,7.08661 7.0866094,7.0866094 0 0 1 -7.08661,-7.08661 7.0866094,7.0866094 0 0 1 7.08661,-7.08661 7.0866094,7.0866094 0 0 1 7.08661,7.08661 z"
       id="path9549-9-7-4-08-7" />
    <path
       style="opacity:1;fill:#0000ff;fill-opacity:1;fill-rule:evenodd;stroke:#0000ff;stroke-width:0;stroke-linejoin:miter;stroke-miterlimit:4;stroke-dasharray:none;stroke-opacity:1"
       d="m 556.3147,981.52911 a 7.0866094,7.0866094 0 0 1 -7.08661,7.08661 7.0866094,7.0866094 0 0 1 -7.08661,-7.08661 7.0866094,7.0866094 0 0 1 7.08661,-7.08661 7.0866094,7.0866094 0 0 1 7.08661,7.08661 z"
       id="path9549-9-7-4-00-13" />
  </g>
</svg>
