<?xml version="1.0" encoding="UTF-8" standalone="no"?>
<!-- Created with Inkscape (http://www.inkscape.org/) -->

<svg
   xmlns:dc="http://purl.org/dc/elements/1.1/"
   xmlns:cc="http://creativecommons.org/ns#"
   xmlns:rdf="http://www.w3.org/1999/02/22-rdf-syntax-ns#"
   xmlns:svg="http://www.w3.org/2000/svg"
   xmlns="http://www.w3.org/2000/svg"
   xmlns:sodipodi="http://sodipodi.sourceforge.net/DTD/sodipodi-0.dtd"
   xmlns:inkscape="http://www.inkscape.org/namespaces/inkscape"
   width="210mm"
   height="297mm"
   viewBox="0 0 744.09448819 1052.3622047"
   id="svg8242"
   version="1.1"
   inkscape:version="0.91 r13725"
   sodipodi:docname="FormKeep-FrontPanel-Acrylic-3mm-Clear-With3DPrintedThing.svg">
  <defs
     id="defs8244" />
  <sodipodi:namedview
     id="base"
     pagecolor="#ffffff"
     bordercolor="#666666"
     borderopacity="1.0"
     inkscape:pageopacity="0.0"
     inkscape:pageshadow="2"
     inkscape:zoom="0.91923882"
     inkscape:cx="121.4539"
     inkscape:cy="249.32674"
     inkscape:document-units="mm"
     inkscape:current-layer="layer1"
     showgrid="true"
     inkscape:showpageshadow="false"
     inkscape:window-width="2560"
     inkscape:window-height="1335"
     inkscape:window-x="1912"
     inkscape:window-y="-8"
     inkscape:window-maximized="1">
    <inkscape:grid
       type="xygrid"
       id="grid8790" />
  </sodipodi:namedview>
  <metadata
     id="metadata8247">
    <rdf:RDF>
      <cc:Work
         rdf:about="">
        <dc:format>image/svg+xml</dc:format>
        <dc:type
           rdf:resource="http://purl.org/dc/dcmitype/StillImage" />
        <dc:title></dc:title>
      </cc:Work>
    </rdf:RDF>
  </metadata>
  <g
     inkscape:label="Layer 1"
     inkscape:groupmode="layer"
     id="layer1">
    <path
       style="opacity:1;fill:#00ff00;fill-opacity:1;fill-rule:evenodd;stroke:#0000ff;stroke-width:0;stroke-linejoin:miter;stroke-miterlimit:4;stroke-dasharray:none;stroke-opacity:1"
       d="m 506.69291,517.32274 0,490.07796 c 0,24.9086 -19.82326,44.9614 -44.44675,44.9614 l -417.799409,0 C 19.823253,1052.3621 5.9218819e-6,1032.3093 5.9218819e-6,1007.4007 l 0,-490.07796 z"
       id="rect8807"
       inkscape:connector-curvature="0"
       sodipodi:nodetypes="csssscc" />
    <rect
       style="opacity:1;fill:#ffff00;fill-opacity:1;fill-rule:evenodd;stroke:none;stroke-width:0.89999998;stroke-linejoin:miter;stroke-miterlimit:4;stroke-dasharray:none;stroke-opacity:1"
       id="rect4819"
       width="506.6929"
       height="46.062992"
       x="-708.66144"
       y="517.32275" />
    <g
       style="font-style:normal;font-weight:normal;font-size:40px;line-height:125%;font-family:Sans;letter-spacing:0px;word-spacing:0px;fill:#000000;fill-opacity:1;stroke:none;stroke-width:1px;stroke-linecap:butt;stroke-linejoin:miter;stroke-opacity:1"
       id="text8813"
       transform="translate(28.317358,-35.933648)">
      <path
         d="m 139.69705,980.34869 -15.68603,0 -30.395511,-36.13281 -17.028809,0 0,36.13281 -12.08496,0 0,-90.88134 25.45166,0 q 8.239746,0 13.73291,1.09863 5.49316,1.0376 9.8877,3.78418 4.94384,3.11279 7.69042,7.87353 2.80762,4.69971 2.80762,11.96289 0,9.82666 -4.94385,16.4795 -4.94384,6.59179 -13.61084,9.94873 l 34.17969,39.73388 z m -28.25928,-65.30761 q 0,-3.90625 -1.4038,-6.89698 -1.34278,-3.05175 -4.51661,-5.12695 -2.62451,-1.77002 -6.225581,-2.44141 -3.601075,-0.73242 -8.483887,-0.73242 l -14.221192,0 0,34.30176 12.207032,0 q 5.737304,0 10.009765,-0.97656 4.272463,-1.0376 7.263183,-3.78418 2.74658,-2.56348 4.02832,-5.85938 1.34277,-3.35693 1.34277,-8.48388 z"
         style="font-size:125px"
         id="path8818"
         inkscape:connector-curvature="0" />
      <path
         d="m 223.07108,980.34869 -12.87842,0 -8.91114,-25.32959 -39.30664,0 -8.91113,25.32959 -12.26807,0 33.08106,-90.88134 16.11328,0 33.08106,90.88134 z m -25.5127,-35.70556 -15.93018,-44.6167 -15.99121,44.6167 31.92139,0 z"
         style="font-size:125px"
         id="path8820"
         inkscape:connector-curvature="0" />
      <path
         d="m 296.31326,889.46735 -31.98242,51.02539 0,39.85595 -12.08496,0 0,-38.57421 -32.10449,-52.30713 13.3667,0 24.84131,40.64941 25.08544,-40.64941 12.87842,0 z"
         style="font-size:125px"
         id="path8822"
         inkscape:connector-curvature="0" />
      <path
         d="m 374.92654,954.40875 q 0,5.31006 -2.50244,10.49805 -2.4414,5.18799 -6.89697,8.78906 -4.88281,3.90625 -11.41357,6.10352 -6.46973,2.19726 -15.625,2.19726 -9.82666,0 -17.7002,-1.83105 -7.8125,-1.83106 -15.93018,-5.43213 l 0,-15.13672 0.8545,0 q 6.89697,5.73731 15.93017,8.8501 9.03321,3.11279 16.96778,3.11279 11.23046,0 17.45605,-4.21142 6.28662,-4.21143 6.28662,-11.23047 0,-6.04248 -2.99072,-8.91114 -2.92969,-2.86865 -8.97217,-4.45556 -4.57764,-1.22071 -9.94873,-2.01416 -5.31006,-0.79346 -11.2915,-2.01416 -12.08496,-2.56348 -17.94434,-8.72803 -5.79834,-6.22559 -5.79834,-16.17432 0,-11.41357 9.64356,-18.67675 9.64355,-7.32422 24.47509,-7.32422 9.58252,0 17.57813,1.83105 7.9956,1.83106 14.16015,4.5166 l 0,14.28223 -0.85449,0 q -5.18799,-4.39453 -13.67187,-7.26318 -8.42285,-2.92969 -17.27295,-2.92969 -9.70459,0 -15.625,4.02832 -5.85938,4.02832 -5.85938,10.37598 0,5.67627 2.92969,8.91113 2.92969,3.23486 10.31494,4.94385 3.90625,0.85449 11.1084,2.07519 7.20215,1.2207 12.20703,2.50244 10.13184,2.68555 15.25879,8.11768 5.12695,5.43213 5.12695,15.19775 z"
         style="font-size:125px"
         id="path8824"
         inkscape:connector-curvature="0" />
    </g>
    <text
       xml:space="preserve"
       style="font-style:normal;font-weight:normal;font-size:40px;line-height:125%;font-family:Sans;letter-spacing:0px;word-spacing:0px;fill:#000000;fill-opacity:1;stroke:none;stroke-width:1px;stroke-linecap:butt;stroke-linejoin:miter;stroke-opacity:1"
       x="11.217371"
       y="491.396"
       id="text8827"
       sodipodi:linespacing="125%"><tspan
         sodipodi:role="line"
         id="tspan8829"
         x="11.217371"
         y="491.396">143x151 - Front Panel</tspan></text>
    <path
       style="opacity:1;fill:#0000ff;fill-opacity:1;fill-rule:evenodd;stroke:#0000ff;stroke-width:0;stroke-linejoin:miter;stroke-miterlimit:4;stroke-dasharray:none;stroke-opacity:1"
       d="m 24.803132,1016.9291 a 7.0866094,7.0866094 0 0 1 -7.08661,7.0866 7.0866094,7.0866094 0 0 1 -7.086609,-7.0866 7.0866094,7.0866094 0 0 1 7.086609,-7.0866 7.0866094,7.0866094 0 0 1 7.08661,7.0866 z"
       id="path10610-9"
       inkscape:connector-curvature="0" />
    <path
       style="opacity:1;fill:#0000ff;fill-opacity:1;fill-rule:evenodd;stroke:#0000ff;stroke-width:0;stroke-linejoin:miter;stroke-miterlimit:4;stroke-dasharray:none;stroke-opacity:1"
       d="m 496.06299,1016.9291 a 7.0866094,7.0866094 0 0 1 -7.08661,7.0866 7.0866094,7.0866094 0 0 1 -7.08661,-7.0866 7.0866094,7.0866094 0 0 1 7.08661,-7.0866 7.0866094,7.0866094 0 0 1 7.08661,7.0866 z"
       id="path10610-1"
       inkscape:connector-curvature="0" />
    <path
       style="opacity:1;fill:#0000ff;fill-opacity:1;fill-rule:evenodd;stroke:#0000ff;stroke-width:0;stroke-linejoin:miter;stroke-miterlimit:4;stroke-dasharray:none;stroke-opacity:1"
       d="m 496.06299,680.31496 a 7.0866094,7.0866094 0 0 1 -7.08661,7.08661 7.0866094,7.0866094 0 0 1 -7.08661,-7.08661 7.0866094,7.0866094 0 0 1 7.08661,-7.08661 7.0866094,7.0866094 0 0 1 7.08661,7.08661 z"
       id="path10610-2"
       inkscape:connector-curvature="0" />
    <path
       style="opacity:1;fill:#0000ff;fill-opacity:1;fill-rule:evenodd;stroke:#0000ff;stroke-width:0;stroke-linejoin:miter;stroke-miterlimit:4;stroke-dasharray:none;stroke-opacity:1"
       d="m 24.803132,680.31494 a 7.0866094,7.0866094 0 0 1 -7.08661,7.08661 7.0866094,7.0866094 0 0 1 -7.086609,-7.08661 7.0866094,7.0866094 0 0 1 7.086609,-7.08661 7.0866094,7.0866094 0 0 1 7.08661,7.08661 z"
       id="path10610-5" />
    <text
       xml:space="preserve"
       style="font-style:normal;font-weight:normal;font-size:40px;line-height:125%;font-family:Sans;letter-spacing:0px;word-spacing:0px;fill:#000000;fill-opacity:1;stroke:none;stroke-width:1px;stroke-linecap:butt;stroke-linejoin:miter;stroke-opacity:1"
       x="-194.8819"
       y="680.31494"
       id="text7263"
       sodipodi:linespacing="125%"><tspan
         sodipodi:role="line"
         id="tspan7265"
         x="-194.8819"
         y="680.31494">5,105</tspan></text>
    <text
       xml:space="preserve"
       style="font-style:normal;font-weight:normal;font-size:40px;line-height:125%;font-family:Sans;letter-spacing:0px;word-spacing:0px;fill:#000000;fill-opacity:1;stroke:none;stroke-width:1px;stroke-linecap:butt;stroke-linejoin:miter;stroke-opacity:1"
       x="-177.16534"
       y="1016.9291"
       id="text7267"
       sodipodi:linespacing="125%"><tspan
         sodipodi:role="line"
         id="tspan7269"
         x="-177.16534"
         y="1016.9291">5,10</tspan></text>
    <text
       xml:space="preserve"
       style="font-style:normal;font-weight:normal;font-size:40px;line-height:125%;font-family:Sans;letter-spacing:0px;word-spacing:0px;fill:#000000;fill-opacity:1;stroke:none;stroke-width:1px;stroke-linecap:butt;stroke-linejoin:miter;stroke-opacity:1"
       x="549.21259"
       y="1016.9291"
       id="text7271"
       sodipodi:linespacing="125%"><tspan
         sodipodi:role="line"
         id="tspan7273"
         x="549.21259"
         y="1016.9291">138x10</tspan></text>
    <text
       xml:space="preserve"
       style="font-style:normal;font-weight:normal;font-size:40px;line-height:125%;font-family:Sans;letter-spacing:0px;word-spacing:0px;fill:#000000;fill-opacity:1;stroke:none;stroke-width:1px;stroke-linecap:butt;stroke-linejoin:miter;stroke-opacity:1"
       x="549.21259"
       y="680.31494"
       id="text7275"
       sodipodi:linespacing="125%"><tspan
         sodipodi:role="line"
         id="tspan7277"
         x="549.21259"
         y="680.31494">138x105</tspan></text>
    <path
       id="path4810"
       d="m -202.21851,563.63582 -506.19291,0 0,233.35827 506.19291,0 z m -399.99859,183.85803 0,-0.36807 -7.03042,0 -13.75287,-2.9198 -12.84491,-5.71233 -11.37518,-8.25487 -9.40811,-10.43713 -7.03042,-12.16256 -4.34476,-13.35693 -1.46973,-13.9672 1.46973,-13.9672 4.34476,-13.35693 7.03042,-12.16257 9.40811,-10.43712 11.37518,-8.25487 12.84491,-5.71233 13.75287,-2.91981 7.03042,0 0,-0.36807 123.89337,0 0,0.36807 7.03008,0 13.75322,2.91981 12.84496,5.71233 11.3751,8.25487 9.40815,10.43712 7.0304,12.16257 4.3448,13.35693 1.46969,13.9672 -1.46969,13.9672 -4.3448,13.35693 -7.0304,12.16256 -9.40815,10.43713 -11.3751,8.25487 -12.84496,5.71233 -13.75322,2.9198 -7.03008,0 0,0.36807 z m 278.93004,-26.74073 -8.32567,-1.76752 -7.77339,-3.45723 -6.88495,-4.99635 -5.69555,-6.31729 -4.25417,-7.36139 -2.62974,-8.08445 -0.88949,-8.45393 0.88949,-8.45394 2.62974,-8.08445 4.25417,-7.36139 5.69555,-6.31729 6.88495,-4.99634 7.77339,-3.45724 8.32567,-1.76751 8.50967,0 8.32567,1.76751 7.77339,3.45724 6.88495,4.99634 5.69555,6.31729 4.25483,7.36139 2.63012,8.08445 0.88845,8.45394 -0.88845,8.45393 -2.63012,8.08445 -4.25483,7.36139 -5.69555,6.31729 -6.88495,4.99635 -7.77339,3.45723 -8.32567,1.76752 z m 96.99079,-37.36986 0,-6.13661 4.8035,-3.82566 5.9894,1.36514 2.66544,5.52883 -2.66544,5.52882 -5.9894,1.3655 z m -470.79462,0 0,-6.13661 4.80313,-3.82566 5.98947,1.36514 2.66554,5.52883 -2.66554,5.52882 -5.98947,1.3655 z"
       inkscape:connector-curvature="0"
       style="fill:#d3d3d3;stroke:#000000;stroke-width:0.5" />
    <path
       id="path4773"
       d="m -708.41142,765.10433 506.19291,0 0,-169.57874 -506.19291,0 z m 3.95124,-81.40733 0,-6.76407 3.14948,-5.98896 5.57739,-3.84237 6.72766,-0.81504 6.33665,2.39848 4.494,5.06263 1.62187,6.56729 -1.62187,6.56729 -4.494,5.06263 -6.33665,2.39848 -6.72766,-0.81503 -5.57739,-3.84238 z m 34.98667,-3.38204 1.46973,-13.95597 4.34477,-13.3462 7.03041,-12.15279 9.40811,-10.42874 11.37519,-8.24824 12.84491,-5.70774 13.75322,-2.91746 7.03006,0 0,-0.36777 123.89337,0 0,0.36777 7.03007,0 13.75323,2.91746 12.84491,5.70774 11.37518,8.24824 9.40811,10.42874 7.03042,12.15279 4.34476,13.3462 1.46973,13.95597 -1.46973,13.95598 -4.34476,13.3462 -7.03042,12.15279 -9.40811,10.42856 -11.37518,8.24835 -12.84491,5.7077 -13.75323,2.91764 -7.03007,0 0,0.3677 -123.89337,0 0,-0.3677 -7.03006,0 -13.75322,-2.91764 -12.84491,-5.7077 -11.37519,-8.24835 -9.40811,-10.42856 -7.03041,-12.15279 -4.34477,-13.3462 z m 309.73343,0 0.88956,-8.44714 2.62972,-8.07795 4.25415,-7.35548 5.69555,-6.31221 6.88493,-4.99233 7.77343,-3.45446 8.32563,-1.76609 8.50971,0 8.32563,1.76609 7.77342,3.45446 6.88494,4.99233 5.69555,6.31221 4.25485,7.35548 2.63008,8.07795 0.88849,8.44714 -0.88849,8.44714 -2.63008,8.07796 -4.25485,7.35548 -5.69555,6.31221 -6.88494,4.99233 -7.77342,3.45446 -8.32563,1.76609 -8.50971,0 -8.32563,-1.76609 -7.77343,-3.45446 -6.88493,-4.99233 -5.69555,-6.31221 -4.25415,-7.35548 -2.62972,-8.07796 z m 126.07389,3.38204 0,-6.76407 3.15044,-5.98896 5.57874,-3.84237 6.72564,-0.81504 6.33626,2.39848 4.49556,5.06263 1.62123,6.56729 -1.62123,6.56729 -4.49556,5.06263 -6.33626,2.39848 -6.72564,-0.81503 -5.57874,-3.84238 z"
       inkscape:connector-curvature="0"
       style="fill:#d3d3d3;stroke:#000000;stroke-width:0.49999997" />
    <g
       style="font-style:normal;font-variant:normal;font-weight:bold;font-stretch:normal;font-size:17.5px;line-height:125%;font-family:Sans;-inkscape-font-specification:'Sans, Bold';text-align:start;letter-spacing:0px;word-spacing:0px;writing-mode:lr-tb;text-anchor:start;fill:#000000;fill-opacity:1;stroke:none;stroke-width:1px;stroke-linecap:butt;stroke-linejoin:miter;stroke-opacity:1"
       id="text4782">
      <path
         d="m 63.224068,675.66772 -10.689698,0 0,-2.38403 6.340332,-7.87842 -6.032714,0 0,-2.46093 10.040283,0 0,2.42675 -6.331787,7.8357 6.673584,0 0,2.46093 z"
         style="font-style:normal;font-variant:normal;font-weight:bold;font-stretch:normal;font-size:17.5px;line-height:125%;font-family:Sans;-inkscape-font-specification:'Sans, Bold';text-align:start;writing-mode:lr-tb;text-anchor:start"
         id="path12657" />
      <path
         d="m 71.12812,673.16406 0,-1.99951 q -0.623779,0.0513 -1.350097,0.14526 -0.726319,0.0855 -1.102295,0.20508 -0.461426,0.14527 -0.709229,0.42725 -0.239257,0.27344 -0.239257,0.72632 0,0.29907 0.05127,0.48706 0.05127,0.18799 0.256348,0.35888 0.196533,0.1709 0.46997,0.25635 0.273438,0.0769 0.854493,0.0769 0.461425,0 0.931396,-0.18799 0.478516,-0.18799 0.837402,-0.49561 z m 0,1.48682 q -0.247802,0.18799 -0.615234,0.45288 -0.367432,0.26489 -0.692139,0.4187 -0.45288,0.20508 -0.939941,0.29907 -0.487061,0.10254 -1.068115,0.10254 -1.367188,0 -2.290039,-0.84595 -0.922852,-0.84594 -0.922852,-2.16186 0,-1.05103 0.469971,-1.71753 0.469971,-0.6665 1.333008,-1.05102 0.854492,-0.38453 2.11914,-0.54688 1.264649,-0.16235 2.623291,-0.23926 l 0,-0.0513 q 0,-0.79468 -0.649414,-1.09375 -0.649414,-0.30761 -1.914062,-0.30761 -0.760498,0 -1.623535,0.27343 -0.863038,0.2649 -1.239014,0.41016 l -0.281983,0 0,-2.31567 q 0.487061,-0.12818 1.580811,-0.29908 1.102295,-0.17944 2.20459,-0.17944 2.623291,0 3.7854,0.81177 1.170655,0.80322 1.170655,2.52929 l 0,6.52832 -3.050538,0 0,-1.01684 z"
         style="font-style:normal;font-variant:normal;font-weight:bold;font-stretch:normal;font-size:17.5px;line-height:125%;font-family:Sans;-inkscape-font-specification:'Sans, Bold';text-align:start;writing-mode:lr-tb;text-anchor:start"
         id="path12659" />
      <path
         d="m 87.021675,670.7373 q 0,1.18775 -0.367432,2.16187 -0.358886,0.97412 -0.948486,1.60645 -0.615234,0.6665 -1.392822,1.0083 -0.777588,0.34179 -1.66626,0.34179 -0.820312,0 -1.392822,-0.17944 -0.57251,-0.1709 -1.170654,-0.48706 l 0,3.99902 -3.076172,0 0,-13.11645 3.076172,0 0,0.99975 q 0.709228,-0.56396 1.444091,-0.9143 0.743409,-0.35035 1.708985,-0.35035 1.794433,0 2.785644,1.31592 0.999756,1.31592 0.999756,3.6145 z m -3.170166,0.0598 q 0,-1.40137 -0.478516,-2.03369 -0.478515,-0.63233 -1.512451,-0.63233 -0.435791,0 -0.897216,0.13672 -0.461426,0.12818 -0.880127,0.37598 l 0,4.82788 q 0.307617,0.11963 0.657959,0.15381 0.350341,0.0342 0.692138,0.0342 1.221924,0 1.820069,-0.70923 0.598144,-0.71777 0.598144,-2.15332 z"
         style="font-style:normal;font-variant:normal;font-weight:bold;font-stretch:normal;font-size:17.5px;line-height:125%;font-family:Sans;-inkscape-font-specification:'Sans, Bold';text-align:start;writing-mode:lr-tb;text-anchor:start"
         id="path12661" />
      <path
         d="m 99.258003,670.7373 q 0,1.18775 -0.367431,2.16187 -0.358887,0.97412 -0.948487,1.60645 -0.615234,0.6665 -1.392822,1.0083 -0.777588,0.34179 -1.66626,0.34179 -0.820312,0 -1.392822,-0.17944 -0.57251,-0.1709 -1.170654,-0.48706 l 0,3.99902 -3.076172,0 0,-13.11645 3.076172,0 0,0.99975 q 0.709228,-0.56396 1.444091,-0.9143 0.743409,-0.35035 1.708985,-0.35035 1.794433,0 2.785644,1.31592 0.999756,1.31592 0.999756,3.6145 z m -3.170166,0.0598 q 0,-1.40137 -0.478515,-2.03369 -0.478516,-0.63233 -1.512452,-0.63233 -0.435791,0 -0.897216,0.13672 -0.461426,0.12818 -0.880127,0.37598 l 0,4.82788 q 0.307617,0.11963 0.657959,0.15381 0.350341,0.0342 0.692138,0.0342 1.221924,0 1.820069,-0.70923 0.598144,-0.71777 0.598144,-2.15332 z"
         style="font-style:normal;font-variant:normal;font-weight:bold;font-stretch:normal;font-size:17.5px;line-height:125%;font-family:Sans;-inkscape-font-specification:'Sans, Bold';text-align:start;writing-mode:lr-tb;text-anchor:start"
         id="path12663" />
      <path
         d="m 104.55585,675.66772 -3.07617,0 0,-9.59594 3.07617,0 0,9.59594 z m 0.0854,-10.96313 -3.24707,0 0,-2.33276 3.24707,0 0,2.33276 z"
         style="font-style:normal;font-variant:normal;font-weight:bold;font-stretch:normal;font-size:17.5px;line-height:125%;font-family:Sans;-inkscape-font-specification:'Sans, Bold';text-align:start;writing-mode:lr-tb;text-anchor:start"
         id="path12665" />
      <path
         d="m 117.0998,675.66772 -3.09326,0 0,-4.75952 q 0,-0.58105 -0.0598,-1.15356 -0.0598,-0.58106 -0.20507,-0.85449 -0.1709,-0.31617 -0.50415,-0.46143 -0.32471,-0.14526 -0.91431,-0.14526 -0.4187,0 -0.85449,0.13672 -0.42725,0.13671 -0.9314,0.43579 l 0,6.80175 -3.07617,0 0,-9.59594 3.07617,0 0,1.05957 q 0.82031,-0.64087 1.57227,-0.98267 0.76049,-0.3418 1.68335,-0.3418 1.55517,0 2.42675,0.90577 0.88013,0.90576 0.88013,2.70874 l 0,6.24633 z"
         style="font-style:normal;font-variant:normal;font-weight:bold;font-stretch:normal;font-size:17.5px;line-height:125%;font-family:Sans;-inkscape-font-specification:'Sans, Bold';text-align:start;writing-mode:lr-tb;text-anchor:start"
         id="path12667" />
      <path
         d="m 129.26777,674.56543 q 0,1.3501 -0.38452,2.27295 -0.38452,0.92285 -1.07666,1.44409 -0.69214,0.52979 -1.67481,0.7605 -0.97412,0.23926 -2.20459,0.23926 -0.99975,0 -1.97387,-0.11963 -0.96558,-0.11963 -1.67481,-0.29053 l 0,-2.40112 0.37598,0 q 0.56396,0.22217 1.37573,0.40161 0.81177,0.18799 1.45264,0.18799 0.85449,0 1.38427,-0.16236 0.53833,-0.15381 0.82032,-0.44433 0.26489,-0.27344 0.38452,-0.70069 0.11963,-0.42724 0.11963,-1.02539 l 0,-0.17944 q -0.55542,0.45288 -1.23047,0.71777 -0.67505,0.2649 -1.50391,0.2649 -2.0166,0 -3.11035,-1.21338 -1.09375,-1.21338 -1.09375,-3.69141 0,-1.18774 0.33325,-2.05078 0.33325,-0.86304 0.93994,-1.50391 0.56397,-0.59814 1.38428,-0.93139 0.82886,-0.33326 1.6919,-0.33326 0.77758,0 1.40991,0.18799 0.64087,0.17945 1.16211,0.50415 l 0.11108,-0.42724 2.98218,0 0,8.49365 z m -3.07617,-1.92261 0,-4.34936 q -0.2649,-0.11109 -0.64942,-0.1709 -0.38452,-0.0684 -0.69214,-0.0684 -1.21337,0 -1.82006,0.70068 -0.60669,0.69214 -0.60669,1.9397 0,1.38428 0.51269,1.93115 0.52124,0.54688 1.53809,0.54688 0.46142,0 0.90576,-0.14527 0.44434,-0.14526 0.81177,-0.38452 z"
         style="font-style:normal;font-variant:normal;font-weight:bold;font-stretch:normal;font-size:17.5px;line-height:125%;font-family:Sans;-inkscape-font-specification:'Sans, Bold';text-align:start;writing-mode:lr-tb;text-anchor:start"
         id="path12669" />
      <path
         d="m 135.47993,675.66772 -3.1958,0 0,-3.35815 3.1958,0 0,3.35815 z"
         style="font-style:normal;font-variant:normal;font-weight:bold;font-stretch:normal;font-size:17.5px;line-height:125%;font-family:Sans;-inkscape-font-specification:'Sans, Bold';text-align:start;writing-mode:lr-tb;text-anchor:start"
         id="path12671" />
      <path
         d="m 141.80317,675.66772 -3.1958,0 0,-3.35815 3.1958,0 0,3.35815 z"
         style="font-style:normal;font-variant:normal;font-weight:bold;font-stretch:normal;font-size:17.5px;line-height:125%;font-family:Sans;-inkscape-font-specification:'Sans, Bold';text-align:start;writing-mode:lr-tb;text-anchor:start"
         id="path12673" />
      <path
         d="m 148.12641,675.66772 -3.1958,0 0,-3.35815 3.1958,0 0,3.35815 z"
         style="font-style:normal;font-variant:normal;font-weight:bold;font-stretch:normal;font-size:17.5px;line-height:125%;font-family:Sans;-inkscape-font-specification:'Sans, Bold';text-align:start;writing-mode:lr-tb;text-anchor:start"
         id="path12675" />
      <path
         d="m 154.44965,675.66772 -3.1958,0 0,-3.35815 3.1958,0 0,3.35815 z"
         style="font-style:normal;font-variant:normal;font-weight:bold;font-stretch:normal;font-size:17.5px;line-height:125%;font-family:Sans;-inkscape-font-specification:'Sans, Bold';text-align:start;writing-mode:lr-tb;text-anchor:start"
         id="path12677" />
      <path
         d="m 160.7729,675.66772 -3.1958,0 0,-3.35815 3.1958,0 0,3.35815 z"
         style="font-style:normal;font-variant:normal;font-weight:bold;font-stretch:normal;font-size:17.5px;line-height:125%;font-family:Sans;-inkscape-font-specification:'Sans, Bold';text-align:start;writing-mode:lr-tb;text-anchor:start"
         id="path12679" />
      <path
         d="m 167.09614,675.66772 -3.1958,0 0,-3.35815 3.1958,0 0,3.35815 z"
         style="font-style:normal;font-variant:normal;font-weight:bold;font-stretch:normal;font-size:17.5px;line-height:125%;font-family:Sans;-inkscape-font-specification:'Sans, Bold';text-align:start;writing-mode:lr-tb;text-anchor:start"
         id="path12681" />
      <path
         d="m 173.41938,675.66772 -3.1958,0 0,-3.35815 3.1958,0 0,3.35815 z"
         style="font-style:normal;font-variant:normal;font-weight:bold;font-stretch:normal;font-size:17.5px;line-height:125%;font-family:Sans;-inkscape-font-specification:'Sans, Bold';text-align:start;writing-mode:lr-tb;text-anchor:start"
         id="path12683" />
    </g>
    <g
       style="font-style:normal;font-weight:normal;font-size:40px;line-height:125%;font-family:Sans;letter-spacing:0px;word-spacing:0px;fill:#000000;fill-opacity:1;stroke:none;stroke-width:1px;stroke-linecap:butt;stroke-linejoin:miter;stroke-opacity:1"
       id="text4790">
      <path
         d="m 62.959175,694.13501 q 0,0.74341 -0.350342,1.46973 -0.341797,0.72631 -0.965576,1.23047 -0.683594,0.54687 -1.5979,0.85449 -0.905762,0.30761 -2.1875,0.30761 -1.375733,0 -2.478028,-0.25634 -1.09375,-0.25635 -2.230224,-0.7605 l 0,-2.11914 0.119629,0 q 0.965576,0.80322 2.230224,1.23901 1.264649,0.43579 2.375489,0.43579 1.572265,0 2.443847,-0.5896 0.880127,-0.5896 0.880127,-1.57226 0,-0.84595 -0.418701,-1.24756 -0.410156,-0.40161 -1.256103,-0.62378 -0.64087,-0.1709 -1.392823,-0.28198 -0.743408,-0.11109 -1.58081,-0.28199 -1.691895,-0.35888 -2.512207,-1.22192 -0.811768,-0.87158 -0.811768,-2.2644 0,-1.5979 1.350098,-2.61475 1.350097,-1.02539 3.426513,-1.02539 1.341553,0 2.460938,0.25635 1.119385,0.25635 1.982422,0.63232 l 0,1.99951 -0.119629,0 q -0.726318,-0.61523 -1.914063,-1.01684 -1.179199,-0.41016 -2.418212,-0.41016 -1.358643,0 -2.1875,0.56397 -0.820313,0.56396 -0.820313,1.45263 0,0.79468 0.410156,1.24756 0.410157,0.45288 1.444092,0.69214 0.546875,0.11963 1.555176,0.29053 1.008301,0.1709 1.708984,0.35034 1.418457,0.37598 2.136231,1.13647 0.717773,0.7605 0.717773,2.12769 z"
         style="font-size:17.5px"
         id="path12606" />
      <path
         d="m 70.60688,692.9729 -5.332031,0 0,-1.54663 5.332031,0 0,1.54663 z"
         style="font-size:17.5px"
         id="path12608" />
      <path
         d="m 83.372993,697.7666 -1.691894,0 0,-6.22925 -6.348877,0 0,6.22925 -1.691895,0 0,-12.72339 1.691895,0 0,4.99024 6.348877,0 0,-4.99024 1.691894,0 0,12.72339 z"
         style="font-size:17.5px"
         id="path12610" />
      <path
         d="m 94.088326,697.7666 -1.597901,0 0,-1.01684 q -0.213623,0.14526 -0.581055,0.41015 -0.358886,0.25635 -0.700683,0.41016 -0.401611,0.19653 -0.922852,0.32471 -0.52124,0.13671 -1.221924,0.13671 -1.290283,0 -2.1875,-0.85449 -0.897216,-0.85449 -0.897216,-2.17895 0,-1.08521 0.461425,-1.75171 0.469971,-0.67505 1.333008,-1.05957 0.871582,-0.38452 2.093506,-0.52124 1.221924,-0.13672 2.623291,-0.20508 l 0,-0.2478 q 0,-0.54688 -0.196533,-0.90577 -0.187988,-0.35888 -0.546875,-0.56396 -0.341797,-0.19653 -0.820313,-0.26489 -0.478515,-0.0684 -0.999755,-0.0684 -0.632325,0 -1.409913,0.1709 -0.777587,0.16235 -1.606445,0.47851 l -0.08545,0 0,-1.63208 q 0.469971,-0.12817 1.358642,-0.28198 0.888672,-0.15381 1.751709,-0.15381 1.008301,0 1.751709,0.1709 0.751954,0.16235 1.298829,0.56396 0.53833,0.39307 0.820312,1.01685 0.281983,0.62378 0.281983,1.54663 l 0,6.47705 z m -1.597901,-2.34985 0,-2.65747 q -0.734863,0.0427 -1.734619,0.12817 -0.991211,0.0855 -1.572266,0.2478 -0.692138,0.19654 -1.119384,0.61524 -0.427247,0.41015 -0.427247,1.13647 0,0.82032 0.495606,1.23902 0.495605,0.41015 1.512451,0.41015 0.845947,0 1.546631,-0.3247 0.700684,-0.33326 1.298828,-0.79468 z"
         style="font-size:17.5px"
         id="path12612" />
      <path
         d="m 103.15449,689.97363 -0.0854,0 q -0.35889,-0.0854 -0.70069,-0.11963 -0.33325,-0.0427 -0.79467,-0.0427 -0.74341,0 -1.43555,0.33325 -0.692138,0.32471 -1.333008,0.84595 l 0,6.77612 -1.606445,0 0,-9.54468 1.606445,0 0,1.40992 q 0.957032,-0.76905 1.683348,-1.08521 0.73487,-0.32471 1.49536,-0.32471 0.4187,0 0.60669,0.0256 0.18799,0.0171 0.56397,0.0769 l 0,1.64917 z"
         style="font-size:17.5px"
         id="path12614" />
      <path
         d="m 110.63984,689.97363 -0.0855,0 q -0.35889,-0.0854 -0.70068,-0.11963 -0.33326,-0.0427 -0.79468,-0.0427 -0.74341,0 -1.43555,0.33325 -0.69214,0.32471 -1.33301,0.84595 l 0,6.77612 -1.60644,0 0,-9.54468 1.60644,0 0,1.40992 q 0.95704,-0.76905 1.68335,-1.08521 0.73487,-0.32471 1.49536,-0.32471 0.41871,0 0.60669,0.0256 0.18799,0.0171 0.56397,0.0769 l 0,1.64917 z"
         style="font-size:17.5px"
         id="path12616" />
      <path
         d="m 113.89545,686.62402 -1.81152,0 0,-1.66626 1.81152,0 0,1.66626 z m -0.10253,11.14258 -1.60645,0 0,-9.54468 1.60645,0 0,9.54468 z"
         style="font-size:17.5px"
         id="path12618" />
      <path
         d="m 123.7392,695.01514 q 0,1.30737 -1.0852,2.14477 -1.07666,0.8374 -2.948,0.8374 -1.05957,0 -1.94824,-0.2478 -0.88013,-0.25635 -1.47827,-0.55542 l 0,-1.80298 0.0855,0 q 0.76049,0.57251 1.69189,0.91431 0.9314,0.33325 1.78589,0.33325 1.05957,0 1.65771,-0.3418 0.59815,-0.34179 0.59815,-1.07666 0,-0.56396 -0.32471,-0.85449 -0.3247,-0.29052 -1.24756,-0.4956 -0.34179,-0.0769 -0.89721,-0.17945 -0.54688,-0.10254 -0.99976,-0.22216 -1.2561,-0.33326 -1.78589,-0.97413 -0.52124,-0.64941 -0.52124,-1.58935 0,-0.5896 0.23926,-1.11084 0.2478,-0.52124 0.74341,-0.9314 0.47851,-0.40161 1.21338,-0.63232 0.74341,-0.23926 1.65771,-0.23926 0.85449,0 1.72608,0.21362 0.88012,0.20508 1.46118,0.50415 l 0,1.71753 -0.0854,0 q -0.61524,-0.45288 -1.49536,-0.76049 -0.88013,-0.31617 -1.72608,-0.31617 -0.88012,0 -1.48681,0.3418 -0.60669,0.33325 -0.60669,0.99976 0,0.5896 0.36743,0.88867 0.35889,0.29907 1.16211,0.48706 0.44433,0.10254 0.99121,0.20508 0.55542,0.10254 0.92285,0.18799 1.11939,0.25634 1.72607,0.88012 0.60669,0.63233 0.60669,1.67481 z"
         style="font-size:17.5px"
         id="path12620" />
      <path
         d="m 134.1811,692.99854 q 0,2.33276 -1.19629,3.68286 -1.19629,1.35009 -3.20435,1.35009 -2.02514,0 -3.22143,-1.35009 -1.18775,-1.3501 -1.18775,-3.68286 0,-2.33277 1.18775,-3.68287 1.19629,-1.35864 3.22143,-1.35864 2.00806,0 3.20435,1.35864 1.19629,1.3501 1.19629,3.68287 z m -1.65772,0 q 0,-1.85425 -0.72631,-2.75147 -0.72632,-0.90576 -2.01661,-0.90576 -1.30737,0 -2.03369,0.90576 -0.71777,0.89722 -0.71777,2.75147 0,1.79443 0.72632,2.72583 0.72632,0.92285 2.02514,0.92285 1.28174,0 2.00806,-0.91431 0.73486,-0.92285 0.73486,-2.73437 z"
         style="font-size:17.5px"
         id="path12622" />
      <path
         d="m 144.65717,697.7666 -1.60644,0 0,-5.43457 q 0,-0.65796 -0.0769,-1.23047 -0.0769,-0.58105 -0.28198,-0.90576 -0.21362,-0.35889 -0.61523,-0.52978 -0.40161,-0.17945 -1.04248,-0.17945 -0.65796,0 -1.37574,0.32471 -0.71777,0.32471 -1.37573,0.82886 l 0,7.12646 -1.60644,0 0,-9.54468 1.60644,0 0,1.05957 q 0.75195,-0.62378 1.55518,-0.97412 0.80322,-0.35034 1.64917,-0.35034 1.54663,0 2.3584,0.9314 0.81176,0.93139 0.81176,2.6831 l 0,6.19507 z"
         style="font-size:17.5px"
         id="path12624" />
      <path
         d="m 152.80903,692.9729 -5.33203,0 0,-1.54663 5.33203,0 0,1.54663 z"
         style="font-size:17.5px"
         id="path12626" />
      <path
         d="m 164.12251,697.7666 -8.61329,0 0,-1.78589 q 0.89722,-0.76904 1.79444,-1.53808 0.90576,-0.76905 1.68335,-1.52954 1.64062,-1.58936 2.24731,-2.52076 0.60669,-0.93994 0.60669,-2.02514 0,-0.99121 -0.65796,-1.54663 -0.64941,-0.56397 -1.82007,-0.56397 -0.77758,0 -1.68335,0.27344 -0.90576,0.27344 -1.76879,0.8374 l -0.0855,0 0,-1.79443 q 0.60669,-0.29907 1.61499,-0.54688 1.01684,-0.2478 1.96533,-0.2478 1.95679,0 3.06763,0.94849 1.11084,0.93994 1.11084,2.55493 0,0.72632 -0.18799,1.35864 -0.17945,0.62378 -0.53833,1.18774 -0.33326,0.52979 -0.78614,1.04249 -0.44433,0.51269 -1.0852,1.13647 -0.91431,0.89722 -1.88843,1.74316 -0.97412,0.83741 -1.82007,1.55518 l 6.84449,0 0,1.46118 z"
         style="font-size:17.5px"
         id="path12628" />
      <path
         d="m 175.24799,691.40063 q 0,3.42652 -1.07666,5.03296 -1.06811,1.5979 -3.32397,1.5979 -2.29004,0 -3.34961,-1.62353 -1.05103,-1.62354 -1.05103,-4.99024 0,-3.39233 1.06812,-5.00732 1.06811,-1.62353 3.33252,-1.62353 2.29004,0 3.34106,1.64917 1.05957,1.64062 1.05957,4.96459 z m -2.24731,3.8794 q 0.29907,-0.69214 0.40161,-1.62354 0.11108,-0.93994 0.11108,-2.25586 0,-1.29882 -0.11108,-2.25585 -0.10254,-0.95704 -0.41016,-1.62354 -0.29907,-0.65796 -0.82031,-0.99121 -0.51269,-0.33325 -1.32446,-0.33325 -0.80322,0 -1.33301,0.33325 -0.52124,0.33325 -0.82886,1.0083 -0.29052,0.63232 -0.40161,1.64917 -0.10254,1.01685 -0.10254,2.23022 0,1.33301 0.094,2.23023 0.094,0.89722 0.40161,1.60644 0.28198,0.66651 0.79468,1.01685 0.52124,0.35034 1.37573,0.35034 0.80322,0 1.33301,-0.33325 0.52978,-0.33325 0.82031,-1.0083 z"
         style="font-size:17.5px"
         id="path12630" />
      <path
         d="m 185.68134,697.7666 -6.8872,0 0,-1.29883 2.64892,0 0,-8.52783 -2.64892,0 0,-1.16211 q 0.53833,0 1.15356,-0.0855 0.61523,-0.094 0.9314,-0.26489 0.39306,-0.21362 0.61523,-0.53833 0.23071,-0.33325 0.26489,-0.88867 l 1.32447,0 0,11.46728 2.59765,0 0,1.29883 z"
         style="font-size:17.5px"
         id="path12632" />
      <path
         d="m 197.73823,693.6394 q 0,1.9397 -1.28174,3.17017 -1.27319,1.22192 -3.12744,1.22192 -0.93994,0 -1.70899,-0.29052 -0.76904,-0.29053 -1.35864,-0.86304 -0.73486,-0.70923 -1.13647,-1.87988 -0.39307,-1.17066 -0.39307,-2.81983 0,-1.69189 0.35889,-2.99926 0.36743,-1.30738 1.16211,-2.32422 0.75195,-0.96558 1.93969,-1.50391 1.18775,-0.54687 2.76856,-0.54687 0.50415,0 0.84595,0.0427 0.34179,0.0427 0.69213,0.15381 l 0,1.63208 -0.0855,0 q -0.23925,-0.12818 -0.72631,-0.23926 -0.47852,-0.11963 -0.98267,-0.11963 -1.83716,0 -2.93091,1.15357 -1.09375,1.14502 -1.27319,3.1018 0.71777,-0.43579 1.40991,-0.65796 0.70068,-0.23071 1.61499,-0.23071 0.81177,0 1.427,0.15381 0.62378,0.14526 1.2732,0.59814 0.75195,0.52124 1.12793,1.31592 0.38452,0.79468 0.38452,1.93115 z m -1.73462,0.0684 q 0,-0.79467 -0.23926,-1.31591 -0.23071,-0.52124 -0.76904,-0.90577 -0.39307,-0.27343 -0.87158,-0.35888 -0.47852,-0.0855 -0.99976,-0.0855 -0.72632,0 -1.3501,0.1709 -0.62378,0.17089 -1.28174,0.52978 -0.0171,0.18799 -0.0256,0.36743 -0.009,0.1709 -0.009,0.43579 0,1.3501 0.27344,2.13623 0.28198,0.77759 0.76904,1.23047 0.39307,0.37598 0.84595,0.55542 0.46143,0.1709 0.99976,0.1709 1.23901,0 1.94824,-0.75195 0.70923,-0.7605 0.70923,-2.17896 z"
         style="font-size:17.5px"
         id="path12634" />
      <path
         d="m 205.34321,692.9729 -5.33203,0 0,-1.54663 5.33203,0 0,1.54663 z"
         style="font-size:17.5px"
         id="path12636" />
      <path
         d="m 216.6396,691.40063 q 0,3.42652 -1.07667,5.03296 -1.06811,1.5979 -3.32397,1.5979 -2.29004,0 -3.34961,-1.62353 -1.05102,-1.62354 -1.05102,-4.99024 0,-3.39233 1.06811,-5.00732 1.06812,-1.62353 3.33252,-1.62353 2.29004,0 3.34106,1.64917 1.05958,1.64062 1.05958,4.96459 z m -2.24732,3.8794 q 0.29907,-0.69214 0.40161,-1.62354 0.11109,-0.93994 0.11109,-2.25586 0,-1.29882 -0.11109,-2.25585 -0.10254,-0.95704 -0.41015,-1.62354 -0.29908,-0.65796 -0.82032,-0.99121 -0.51269,-0.33325 -1.32446,-0.33325 -0.80322,0 -1.33301,0.33325 -0.52124,0.33325 -0.82885,1.0083 -0.29053,0.63232 -0.40162,1.64917 -0.10254,1.01685 -0.10254,2.23022 0,1.33301 0.094,2.23023 0.094,0.89722 0.40161,1.60644 0.28198,0.66651 0.79468,1.01685 0.52124,0.35034 1.37573,0.35034 0.80322,0 1.33301,-0.33325 0.52978,-0.33325 0.82031,-1.0083 z"
         style="font-size:17.5px"
         id="path12638" />
      <path
         d="m 226.67988,691.63989 q 0.41015,0.36743 0.67505,0.92285 0.26489,0.55542 0.26489,1.43555 0,0.87158 -0.31616,1.5979 -0.31616,0.72632 -0.88867,1.26465 -0.64087,0.59814 -1.51246,0.88867 -0.86303,0.28198 -1.89697,0.28198 -1.05957,0 -2.08496,-0.25634 -1.02539,-0.24781 -1.68335,-0.54688 l 0,-1.78589 0.12818,0 q 0.72631,0.47852 1.70898,0.79468 0.98267,0.31616 1.89697,0.31616 0.53833,0 1.14502,-0.17944 0.60669,-0.17944 0.98267,-0.52979 0.39306,-0.37597 0.58105,-0.82885 0.19654,-0.45288 0.19654,-1.14502 0,-0.6836 -0.22217,-1.12793 -0.21363,-0.45288 -0.59815,-0.70923 -0.38452,-0.26489 -0.93139,-0.35889 -0.54688,-0.10254 -1.1792,-0.10254 l -0.76905,0 0,-1.41845 0.59815,0 q 1.29883,0 2.06787,-0.53833 0.77759,-0.54688 0.77759,-1.58936 0,-0.46143 -0.19654,-0.80322 -0.19653,-0.35034 -0.54687,-0.57251 -0.36743,-0.22217 -0.78613,-0.30762 -0.4187,-0.0855 -0.94849,-0.0855 -0.81177,0 -1.72607,0.29053 -0.91431,0.29053 -1.72608,0.82031 l -0.0855,0 0,-1.78589 q 0.60669,-0.29907 1.61499,-0.54687 1.01685,-0.25635 1.96534,-0.25635 0.93139,0 1.64062,0.1709 0.70923,0.1709 1.28174,0.54687 0.61523,0.41016 0.93139,0.99121 0.31617,0.58106 0.31617,1.35865 0,1.05957 -0.75196,1.85425 -0.7434,0.78613 -1.76025,0.99121 l 0,0.11963 q 0.41016,0.0683 0.93994,0.29052 0.52979,0.21363 0.89722,0.53833 z"
         style="font-size:17.5px"
         id="path12640" />
      <path
         d="m 235.59223,692.9729 -5.33203,0 0,-1.54663 5.33203,0 0,1.54663 z"
         style="font-size:17.5px"
         id="path12642" />
      <path
         d="m 246.90571,697.7666 -8.61328,0 0,-1.78589 q 0.89721,-0.76904 1.79443,-1.53808 0.90576,-0.76905 1.68335,-1.52954 1.64063,-1.58936 2.24731,-2.52076 0.60669,-0.93994 0.60669,-2.02514 0,-0.99121 -0.65795,-1.54663 -0.64942,-0.56397 -1.82007,-0.56397 -0.77759,0 -1.68335,0.27344 -0.90576,0.27344 -1.7688,0.8374 l -0.0855,0 0,-1.79443 q 0.60669,-0.29907 1.61499,-0.54688 1.01685,-0.2478 1.96533,-0.2478 1.95679,0 3.06763,0.94849 1.11084,0.93994 1.11084,2.55493 0,0.72632 -0.18799,1.35864 -0.17944,0.62378 -0.53833,1.18774 -0.33325,0.52979 -0.78613,1.04249 -0.44434,0.51269 -1.08521,1.13647 -0.9143,0.89722 -1.88843,1.74316 -0.97412,0.83741 -1.82006,1.55518 l 6.84448,0 0,1.46118 z"
         style="font-size:17.5px"
         id="path12644" />
      <path
         d="m 258.23627,693.6394 q 0,1.9397 -1.28173,3.17017 -1.2732,1.22192 -3.12744,1.22192 -0.93995,0 -1.70899,-0.29052 -0.76904,-0.29053 -1.35864,-0.86304 -0.73487,-0.70923 -1.13648,-1.87988 -0.39306,-1.17066 -0.39306,-2.81983 0,-1.69189 0.35888,-2.99926 0.36744,-1.30738 1.16211,-2.32422 0.75196,-0.96558 1.9397,-1.50391 1.18774,-0.54687 2.76856,-0.54687 0.50415,0 0.84594,0.0427 0.3418,0.0427 0.69214,0.15381 l 0,1.63208 -0.0854,0 q -0.23926,-0.12818 -0.72632,-0.23926 -0.47851,-0.11963 -0.98266,-0.11963 -1.83716,0 -2.93091,1.15357 -1.09375,1.14502 -1.27319,3.1018 0.71777,-0.43579 1.40991,-0.65796 0.70068,-0.23071 1.61499,-0.23071 0.81177,0 1.427,0.15381 0.62378,0.14526 1.27319,0.59814 0.75196,0.52124 1.12793,1.31592 0.38452,0.79468 0.38452,1.93115 z m -1.73461,0.0684 q 0,-0.79467 -0.23926,-1.31591 -0.23072,-0.52124 -0.76905,-0.90577 -0.39306,-0.27343 -0.87158,-0.35888 -0.47851,-0.0855 -0.99975,-0.0855 -0.72632,0 -1.3501,0.1709 -0.62378,0.17089 -1.28174,0.52978 -0.0171,0.18799 -0.0256,0.36743 -0.009,0.1709 -0.009,0.43579 0,1.3501 0.27344,2.13623 0.28198,0.77759 0.76904,1.23047 0.39307,0.37598 0.84595,0.55542 0.46142,0.1709 0.99975,0.1709 1.23902,0 1.94825,-0.75195 0.70923,-0.7605 0.70923,-2.17896 z"
         style="font-size:17.5px"
         id="path12646" />
      <path
         d="m 263.40595,697.7666 -2.04223,0 0,-2.4353 2.04223,0 0,2.4353 z"
         style="font-size:17.5px"
         id="path12648" />
      <path
         d="m 273.95893,695.01514 q 0,1.30737 -1.0852,2.14477 -1.07666,0.8374 -2.948,0.8374 -1.05957,0 -1.94824,-0.2478 -0.88013,-0.25635 -1.47828,-0.55542 l 0,-1.80298 0.0854,0 q 0.7605,0.57251 1.6919,0.91431 0.93139,0.33325 1.78589,0.33325 1.05957,0 1.65771,-0.3418 0.59815,-0.34179 0.59815,-1.07666 0,-0.56396 -0.32471,-0.85449 -0.32471,-0.29052 -1.24756,-0.4956 -0.3418,-0.0769 -0.89722,-0.17945 -0.54687,-0.10254 -0.99975,-0.22216 -1.25611,-0.33326 -1.78589,-0.97413 -0.52124,-0.64941 -0.52124,-1.58935 0,-0.5896 0.23926,-1.11084 0.2478,-0.52124 0.7434,-0.9314 0.47852,-0.40161 1.21338,-0.63232 0.74341,-0.23926 1.65772,-0.23926 0.85449,0 1.72607,0.21362 0.88013,0.20508 1.46118,0.50415 l 0,1.71753 -0.0854,0 q -0.61524,-0.45288 -1.49537,-0.76049 -0.88012,-0.31617 -1.72607,-0.31617 -0.88013,0 -1.48682,0.3418 -0.60669,0.33325 -0.60669,0.99976 0,0.5896 0.36744,0.88867 0.35888,0.29907 1.1621,0.48706 0.44434,0.10254 0.99122,0.20508 0.55542,0.10254 0.92285,0.18799 1.11938,0.25634 1.72607,0.88012 0.60669,0.63233 0.60669,1.67481 z"
         style="font-size:17.5px"
         id="path12650" />
      <path
         d="m 281.22211,697.68115 q -0.45288,0.11963 -0.99121,0.19654 -0.52978,0.0769 -0.94848,0.0769 -1.46118,0 -2.22168,-0.78613 -0.7605,-0.78614 -0.7605,-2.52075 l 0,-5.07569 -1.08521,0 0,-1.3501 1.08521,0 0,-2.74292 1.60644,0 0,2.74292 3.31543,0 0,1.3501 -3.31543,0 0,4.34937 q 0,0.75195 0.0342,1.1792 0.0342,0.4187 0.23926,0.78613 0.18799,0.3418 0.5127,0.50415 0.33325,0.15381 1.0083,0.15381 0.39306,0 0.82031,-0.11109 0.42725,-0.11963 0.61524,-0.19653 l 0.0854,0 0,1.44409 z"
         style="font-size:17.5px"
         id="path12652" />
      <path
         d="m 284.79389,697.7666 -1.60644,0 0,-13.2959 1.60644,0 0,13.2959 z"
         style="font-size:17.5px"
         id="path12654" />
    </g>
    <g
       style="font-style:normal;font-variant:normal;font-weight:bold;font-stretch:normal;font-size:22.5px;line-height:125%;font-family:Sans;-inkscape-font-specification:'Sans, Bold';text-align:start;letter-spacing:0px;word-spacing:0px;writing-mode:lr-tb;text-anchor:start;fill:#000000;fill-opacity:1;stroke:none;stroke-width:1px;stroke-linecap:butt;stroke-linejoin:miter;stroke-opacity:1"
       id="text4794">
      <path
         d="m 117.91175,627.16095 -7.52563,0 0,3.04321 6.97631,0 0,3.16407 -6.97631,0 0,6.9873 -4.19678,0 0,-16.35864 11.72241,0 0,3.16406 z"
         style="font-style:normal;font-variant:normal;font-weight:bold;font-stretch:normal;font-size:22.5px;line-height:125%;font-family:Sans;-inkscape-font-specification:'Sans, Bold';text-align:start;writing-mode:lr-tb;text-anchor:start"
         id="path12589" />
      <path
         d="m 133.21571,634.1922 q 0,3.04321 -1.77979,4.80103 -1.7688,1.74682 -4.97681,1.74682 -3.208,0 -4.98779,-1.74682 -1.7688,-1.75782 -1.7688,-4.80103 0,-3.06519 1.77979,-4.81201 1.79077,-1.74683 4.9768,-1.74683 3.22998,0 4.9878,1.75781 1.7688,1.75782 1.7688,4.80103 z m -4.86695,2.99927 q 0.38452,-0.47241 0.57129,-1.13159 0.19776,-0.67017 0.19776,-1.84571 0,-1.08764 -0.19776,-1.82373 -0.19775,-0.73608 -0.54931,-1.17554 -0.35157,-0.45043 -0.84595,-0.6372 -0.49439,-0.18677 -1.06568,-0.18677 -0.57128,0 -1.02172,0.15381 -0.43946,0.15381 -0.84595,0.61523 -0.36255,0.42847 -0.58228,1.17554 -0.20874,0.74707 -0.20874,1.87866 0,1.01074 0.18677,1.75781 0.18677,0.73609 0.54932,1.18653 0.35156,0.42847 0.83496,0.62622 0.49438,0.19775 1.1206,0.19775 0.53833,0 1.02173,-0.17578 0.49439,-0.18677 0.83496,-0.61523 z"
         style="font-style:normal;font-variant:normal;font-weight:bold;font-stretch:normal;font-size:22.5px;line-height:125%;font-family:Sans;-inkscape-font-specification:'Sans, Bold';text-align:start;writing-mode:lr-tb;text-anchor:start"
         id="path12591" />
      <path
         d="m 145.01502,631.78619 -0.35156,0 q -0.25269,-0.0879 -0.81299,-0.13183 -0.5603,-0.0439 -0.93384,-0.0439 -0.84594,0 -1.49414,0.10987 -0.64819,0.10986 -1.39526,0.37353 l 0,8.26172 -3.95508,0 0,-12.33765 3.95508,0 0,1.81275 q 1.30737,-1.12061 2.27417,-1.48316 0.9668,-0.37353 1.77978,-0.37353 0.20874,0 0.47242,0.011 0.26367,0.011 0.46142,0.033 l 0,3.76831 z"
         style="font-style:normal;font-variant:normal;font-weight:bold;font-stretch:normal;font-size:22.5px;line-height:125%;font-family:Sans;-inkscape-font-specification:'Sans, Bold';text-align:start;writing-mode:lr-tb;text-anchor:start"
         id="path12593" />
      <path
         d="m 159.34119,631.61041 0,8.74512 -3.97705,0 0,-6.16333 q 0,-0.90088 -0.0439,-1.5271 -0.0439,-0.63721 -0.2417,-1.03271 -0.19776,-0.39551 -0.60425,-0.57129 -0.39551,-0.18677 -1.1206,-0.18677 -0.58228,0 -1.1316,0.2417 -0.54931,0.23071 -0.98877,0.49438 l 0,8.74512 -3.95507,0 0,-12.33765 3.95507,0 0,1.36231 q 1.02173,-0.802 1.95557,-1.25244 0.93384,-0.45044 2.06543,-0.45044 1.21948,0 2.15332,0.54931 0.93384,0.53833 1.46118,1.59302 1.18653,-0.99975 2.30713,-1.57104 1.12061,-0.57129 2.19727,-0.57129 1.99951,0 3.03222,1.19751 1.0437,1.19751 1.0437,3.4497 l 0,8.03101 -3.97705,0 0,-6.16333 q 0,-0.91187 -0.0439,-1.53809 -0.033,-0.62622 -0.23071,-1.02172 -0.18677,-0.39551 -0.59327,-0.57129 -0.40649,-0.18677 -1.14257,-0.18677 -0.49439,0 -0.9668,0.17578 -0.47241,0.16479 -1.15357,0.5603 z"
         style="font-style:normal;font-variant:normal;font-weight:bold;font-stretch:normal;font-size:22.5px;line-height:125%;font-family:Sans;-inkscape-font-specification:'Sans, Bold';text-align:start;writing-mode:lr-tb;text-anchor:start"
         id="path12595" />
      <path
         d="m 194.27772,640.35553 -5.17456,0 -4.88892,-6.54785 -0.98877,1.19751 0,5.35034 -4.21875,0 0,-16.35864 4.21875,0 0,7.40478 5.84473,-7.40478 4.88891,0 -6.39404,7.56958 6.71265,8.78906 z"
         style="font-style:normal;font-variant:normal;font-weight:bold;font-stretch:normal;font-size:22.5px;line-height:125%;font-family:Sans;-inkscape-font-specification:'Sans, Bold';text-align:start;writing-mode:lr-tb;text-anchor:start"
         id="path12597" />
      <path
         d="m 208.29627,634.9173 -9.05273,0 q 0.0879,1.45019 1.09863,2.21924 1.02173,0.76904 2.99927,0.76904 1.25244,0 2.42798,-0.45044 1.17553,-0.45044 1.85669,-0.9668 l 0.43945,0 0,3.17505 q -1.34033,0.53833 -2.52686,0.78003 -1.18652,0.2417 -2.62573,0.2417 -3.71338,0 -5.69092,-1.66992 -1.97754,-1.66992 -1.97754,-4.75708 0,-3.0542 1.86768,-4.83399 1.87866,-1.79077 5.1416,-1.79077 3.01026,0 4.52637,1.5271 1.51611,1.51611 1.51611,4.37256 l 0,1.38428 z m -3.9331,-2.31812 q -0.033,-1.24145 -0.61524,-1.86767 -0.58227,-0.62622 -1.81274,-0.62622 -1.14258,0 -1.87866,0.59326 -0.73609,0.59326 -0.82398,1.90063 l 5.13062,0 z"
         style="font-style:normal;font-variant:normal;font-weight:bold;font-stretch:normal;font-size:22.5px;line-height:125%;font-family:Sans;-inkscape-font-specification:'Sans, Bold';text-align:start;writing-mode:lr-tb;text-anchor:start"
         id="path12599" />
      <path
         d="m 223.23768,634.9173 -9.05274,0 q 0.0879,1.45019 1.09864,2.21924 1.02173,0.76904 2.99926,0.76904 1.25245,0 2.42798,-0.45044 1.17554,-0.45044 1.85669,-0.9668 l 0.43946,0 0,3.17505 q -1.34034,0.53833 -2.52686,0.78003 -1.18652,0.2417 -2.62573,0.2417 -3.71338,0 -5.69092,-1.66992 -1.97754,-1.66992 -1.97754,-4.75708 0,-3.0542 1.86768,-4.83399 1.87866,-1.79077 5.1416,-1.79077 3.01025,0 4.52637,1.5271 1.51611,1.51611 1.51611,4.37256 l 0,1.38428 z m -3.93311,-2.31812 q -0.033,-1.24145 -0.61523,-1.86767 -0.58228,-0.62622 -1.81275,-0.62622 -1.14257,0 -1.87866,0.59326 -0.73608,0.59326 -0.82397,1.90063 l 5.13061,0 z"
         style="font-style:normal;font-variant:normal;font-weight:bold;font-stretch:normal;font-size:22.5px;line-height:125%;font-family:Sans;-inkscape-font-specification:'Sans, Bold';text-align:start;writing-mode:lr-tb;text-anchor:start"
         id="path12601" />
      <path
         d="m 238.90418,634.01642 q 0,1.5271 -0.47241,2.77954 -0.46143,1.25244 -1.21948,2.06543 -0.79102,0.85693 -1.79077,1.29639 -0.99976,0.43945 -2.14234,0.43945 -1.05469,0 -1.79077,-0.23071 -0.73608,-0.21973 -1.50513,-0.62622 l 0,5.1416 -3.95507,0 0,-16.86402 3.95507,0 0,1.2854 q 0.91187,-0.72509 1.85669,-1.17553 0.95581,-0.45044 2.19727,-0.45044 2.30713,0 3.58154,1.69189 1.2854,1.6919 1.2854,4.64722 z m -4.07593,0.0769 q 0,-1.80176 -0.61523,-2.61474 -0.61523,-0.81299 -1.94458,-0.81299 -0.5603,0 -1.15356,0.17578 -0.59327,0.16479 -1.1316,0.4834 l 0,6.20727 q 0.39551,0.15381 0.84595,0.19776 0.45044,0.0439 0.88989,0.0439 1.57105,0 2.34009,-0.91186 0.76904,-0.92285 0.76904,-2.76856 z"
         style="font-style:normal;font-variant:normal;font-weight:bold;font-stretch:normal;font-size:22.5px;line-height:125%;font-family:Sans;-inkscape-font-specification:'Sans, Bold';text-align:start;writing-mode:lr-tb;text-anchor:start"
         id="path12603" />
    </g>
  </g>
</svg>
