<?xml version="1.0" encoding="UTF-8" standalone="no"?>
<!-- Created with Inkscape (http://www.inkscape.org/) -->

<svg
   xmlns:dc="http://purl.org/dc/elements/1.1/"
   xmlns:cc="http://creativecommons.org/ns#"
   xmlns:rdf="http://www.w3.org/1999/02/22-rdf-syntax-ns#"
   xmlns:svg="http://www.w3.org/2000/svg"
   xmlns="http://www.w3.org/2000/svg"
   xmlns:sodipodi="http://sodipodi.sourceforge.net/DTD/sodipodi-0.dtd"
   xmlns:inkscape="http://www.inkscape.org/namespaces/inkscape"
   width="210mm"
   height="297mm"
   viewBox="0 0 744.09448819 1052.3622047"
   id="svg8242"
   version="1.1"
   inkscape:version="0.91 r13725"
   sodipodi:docname="FormKeep-FrontPanel-Acrylic-3mm-Clear-With3DPrintedThing.svg">
  <defs
     id="defs8244" />
  <sodipodi:namedview
     id="base"
     pagecolor="#ffffff"
     bordercolor="#666666"
     borderopacity="1.0"
     inkscape:pageopacity="0.0"
     inkscape:pageshadow="2"
     inkscape:zoom="1.8384776"
     inkscape:cx="355.94717"
     inkscape:cy="282.62882"
     inkscape:document-units="mm"
     inkscape:current-layer="layer1"
     showgrid="true"
     inkscape:showpageshadow="false"
     inkscape:window-width="2560"
     inkscape:window-height="1335"
     inkscape:window-x="1912"
     inkscape:window-y="-8"
     inkscape:window-maximized="1">
    <inkscape:grid
       type="xygrid"
       id="grid8790" />
  </sodipodi:namedview>
  <metadata
     id="metadata8247">
    <rdf:RDF>
      <cc:Work
         rdf:about="">
        <dc:format>image/svg+xml</dc:format>
        <dc:type
           rdf:resource="http://purl.org/dc/dcmitype/StillImage" />
        <dc:title></dc:title>
      </cc:Work>
    </rdf:RDF>
  </metadata>
  <g
     inkscape:label="Layer 1"
     inkscape:groupmode="layer"
     id="layer1">
    <path
       style="opacity:1;fill:#00ff00;fill-opacity:1;fill-rule:evenodd;stroke:#0000ff;stroke-width:0;stroke-linejoin:miter;stroke-miterlimit:4;stroke-dasharray:none;stroke-opacity:1"
       d="m 506.69291,517.32274 0,490.07796 c 0,24.9086 -19.82326,44.9614 -44.44675,44.9614 l -417.799409,0 C 19.823253,1052.3621 5.9218819e-6,1032.3093 5.9218819e-6,1007.4007 l 0,-490.07796 z"
       id="rect8807"
       inkscape:connector-curvature="0"
       sodipodi:nodetypes="csssscc" />
    <rect
       style="opacity:1;fill:#ffff00;fill-opacity:1;fill-rule:evenodd;stroke:none;stroke-width:0.89999998;stroke-linejoin:miter;stroke-miterlimit:4;stroke-dasharray:none;stroke-opacity:1"
       id="rect4819"
       width="506.6929"
       height="46.062992"
       x="0"
       y="517.32275" />
    <g
       style="font-style:normal;font-weight:normal;font-size:40px;line-height:125%;font-family:Sans;letter-spacing:0px;word-spacing:0px;fill:#000000;fill-opacity:1;stroke:none;stroke-width:1px;stroke-linecap:butt;stroke-linejoin:miter;stroke-opacity:1"
       id="text8813"
       transform="translate(28.317358,-35.933648)">
      <path
         d="m 139.69705,980.34869 -15.68603,0 -30.395511,-36.13281 -17.028809,0 0,36.13281 -12.08496,0 0,-90.88134 25.45166,0 q 8.239746,0 13.73291,1.09863 5.49316,1.0376 9.8877,3.78418 4.94384,3.11279 7.69042,7.87353 2.80762,4.69971 2.80762,11.96289 0,9.82666 -4.94385,16.4795 -4.94384,6.59179 -13.61084,9.94873 l 34.17969,39.73388 z m -28.25928,-65.30761 q 0,-3.90625 -1.4038,-6.89698 -1.34278,-3.05175 -4.51661,-5.12695 -2.62451,-1.77002 -6.225581,-2.44141 -3.601075,-0.73242 -8.483887,-0.73242 l -14.221192,0 0,34.30176 12.207032,0 q 5.737304,0 10.009765,-0.97656 4.272463,-1.0376 7.263183,-3.78418 2.74658,-2.56348 4.02832,-5.85938 1.34277,-3.35693 1.34277,-8.48388 z"
         style="font-size:125px"
         id="path8818"
         inkscape:connector-curvature="0" />
      <path
         d="m 223.07108,980.34869 -12.87842,0 -8.91114,-25.32959 -39.30664,0 -8.91113,25.32959 -12.26807,0 33.08106,-90.88134 16.11328,0 33.08106,90.88134 z m -25.5127,-35.70556 -15.93018,-44.6167 -15.99121,44.6167 31.92139,0 z"
         style="font-size:125px"
         id="path8820"
         inkscape:connector-curvature="0" />
      <path
         d="m 296.31326,889.46735 -31.98242,51.02539 0,39.85595 -12.08496,0 0,-38.57421 -32.10449,-52.30713 13.3667,0 24.84131,40.64941 25.08544,-40.64941 12.87842,0 z"
         style="font-size:125px"
         id="path8822"
         inkscape:connector-curvature="0" />
      <path
         d="m 374.92654,954.40875 q 0,5.31006 -2.50244,10.49805 -2.4414,5.18799 -6.89697,8.78906 -4.88281,3.90625 -11.41357,6.10352 -6.46973,2.19726 -15.625,2.19726 -9.82666,0 -17.7002,-1.83105 -7.8125,-1.83106 -15.93018,-5.43213 l 0,-15.13672 0.8545,0 q 6.89697,5.73731 15.93017,8.8501 9.03321,3.11279 16.96778,3.11279 11.23046,0 17.45605,-4.21142 6.28662,-4.21143 6.28662,-11.23047 0,-6.04248 -2.99072,-8.91114 -2.92969,-2.86865 -8.97217,-4.45556 -4.57764,-1.22071 -9.94873,-2.01416 -5.31006,-0.79346 -11.2915,-2.01416 -12.08496,-2.56348 -17.94434,-8.72803 -5.79834,-6.22559 -5.79834,-16.17432 0,-11.41357 9.64356,-18.67675 9.64355,-7.32422 24.47509,-7.32422 9.58252,0 17.57813,1.83105 7.9956,1.83106 14.16015,4.5166 l 0,14.28223 -0.85449,0 q -5.18799,-4.39453 -13.67187,-7.26318 -8.42285,-2.92969 -17.27295,-2.92969 -9.70459,0 -15.625,4.02832 -5.85938,4.02832 -5.85938,10.37598 0,5.67627 2.92969,8.91113 2.92969,3.23486 10.31494,4.94385 3.90625,0.85449 11.1084,2.07519 7.20215,1.2207 12.20703,2.50244 10.13184,2.68555 15.25879,8.11768 5.12695,5.43213 5.12695,15.19775 z"
         style="font-size:125px"
         id="path8824"
         inkscape:connector-curvature="0" />
    </g>
    <text
       xml:space="preserve"
       style="font-style:normal;font-weight:normal;font-size:40px;line-height:125%;font-family:Sans;letter-spacing:0px;word-spacing:0px;fill:#000000;fill-opacity:1;stroke:none;stroke-width:1px;stroke-linecap:butt;stroke-linejoin:miter;stroke-opacity:1"
       x="11.217371"
       y="491.396"
       id="text8827"
       sodipodi:linespacing="125%"><tspan
         sodipodi:role="line"
         id="tspan8829"
         x="11.217371"
         y="491.396">143x151 - Front Panel</tspan></text>
    <path
       style="opacity:1;fill:#0000ff;fill-opacity:1;fill-rule:evenodd;stroke:#0000ff;stroke-width:0;stroke-linejoin:miter;stroke-miterlimit:4;stroke-dasharray:none;stroke-opacity:1"
       d="m 24.803132,1016.9291 a 7.0866094,7.0866094 0 0 1 -7.08661,7.0866 7.0866094,7.0866094 0 0 1 -7.086609,-7.0866 7.0866094,7.0866094 0 0 1 7.086609,-7.0866 7.0866094,7.0866094 0 0 1 7.08661,7.0866 z"
       id="path10610-9"
       inkscape:connector-curvature="0" />
    <path
       style="opacity:1;fill:#0000ff;fill-opacity:1;fill-rule:evenodd;stroke:#0000ff;stroke-width:0;stroke-linejoin:miter;stroke-miterlimit:4;stroke-dasharray:none;stroke-opacity:1"
       d="m 496.06299,1016.9291 a 7.0866094,7.0866094 0 0 1 -7.08661,7.0866 7.0866094,7.0866094 0 0 1 -7.08661,-7.0866 7.0866094,7.0866094 0 0 1 7.08661,-7.0866 7.0866094,7.0866094 0 0 1 7.08661,7.0866 z"
       id="path10610-1"
       inkscape:connector-curvature="0" />
    <path
       style="opacity:1;fill:#0000ff;fill-opacity:1;fill-rule:evenodd;stroke:#0000ff;stroke-width:0;stroke-linejoin:miter;stroke-miterlimit:4;stroke-dasharray:none;stroke-opacity:1"
       d="m 496.06299,680.31496 a 7.0866094,7.0866094 0 0 1 -7.08661,7.08661 7.0866094,7.0866094 0 0 1 -7.08661,-7.08661 7.0866094,7.0866094 0 0 1 7.08661,-7.08661 7.0866094,7.0866094 0 0 1 7.08661,7.08661 z"
       id="path10610-2"
       inkscape:connector-curvature="0" />
    <path
       style="opacity:1;fill:#0000ff;fill-opacity:1;fill-rule:evenodd;stroke:#0000ff;stroke-width:0;stroke-linejoin:miter;stroke-miterlimit:4;stroke-dasharray:none;stroke-opacity:1"
       d="m 24.803132,680.31494 a 7.0866094,7.0866094 0 0 1 -7.08661,7.08661 7.0866094,7.0866094 0 0 1 -7.086609,-7.08661 7.0866094,7.0866094 0 0 1 7.086609,-7.08661 7.0866094,7.0866094 0 0 1 7.08661,7.08661 z"
       id="path10610-5" />
    <text
       xml:space="preserve"
       style="font-style:normal;font-weight:normal;font-size:40px;line-height:125%;font-family:Sans;letter-spacing:0px;word-spacing:0px;fill:#000000;fill-opacity:1;stroke:none;stroke-width:1px;stroke-linecap:butt;stroke-linejoin:miter;stroke-opacity:1"
       x="-194.8819"
       y="680.31494"
       id="text7263"
       sodipodi:linespacing="125%"><tspan
         sodipodi:role="line"
         id="tspan7265"
         x="-194.8819"
         y="680.31494">5,105</tspan></text>
    <text
       xml:space="preserve"
       style="font-style:normal;font-weight:normal;font-size:40px;line-height:125%;font-family:Sans;letter-spacing:0px;word-spacing:0px;fill:#000000;fill-opacity:1;stroke:none;stroke-width:1px;stroke-linecap:butt;stroke-linejoin:miter;stroke-opacity:1"
       x="-177.16534"
       y="1016.9291"
       id="text7267"
       sodipodi:linespacing="125%"><tspan
         sodipodi:role="line"
         id="tspan7269"
         x="-177.16534"
         y="1016.9291">5,10</tspan></text>
    <text
       xml:space="preserve"
       style="font-style:normal;font-weight:normal;font-size:40px;line-height:125%;font-family:Sans;letter-spacing:0px;word-spacing:0px;fill:#000000;fill-opacity:1;stroke:none;stroke-width:1px;stroke-linecap:butt;stroke-linejoin:miter;stroke-opacity:1"
       x="549.21259"
       y="1016.9291"
       id="text7271"
       sodipodi:linespacing="125%"><tspan
         sodipodi:role="line"
         id="tspan7273"
         x="549.21259"
         y="1016.9291">138x10</tspan></text>
    <text
       xml:space="preserve"
       style="font-style:normal;font-weight:normal;font-size:40px;line-height:125%;font-family:Sans;letter-spacing:0px;word-spacing:0px;fill:#000000;fill-opacity:1;stroke:none;stroke-width:1px;stroke-linecap:butt;stroke-linejoin:miter;stroke-opacity:1"
       x="549.21259"
       y="680.31494"
       id="text7275"
       sodipodi:linespacing="125%"><tspan
         sodipodi:role="line"
         id="tspan7277"
         x="549.21259"
         y="680.31494">138x105</tspan></text>
    <path
       id="path4810"
       d="m 506.44291,563.63582 -506.19291,0 0,233.35827 506.19291,0 z m -399.99859,183.85803 0,-0.36807 -7.03042,0 -13.75287,-2.9198 -12.84491,-5.71233 -11.37518,-8.25487 -9.40811,-10.43713 -7.03042,-12.16256 -4.34476,-13.35693 -1.46973,-13.9672 1.46973,-13.9672 4.34476,-13.35693 7.03042,-12.16257 9.40811,-10.43712 11.37518,-8.25487 12.84491,-5.71233 13.75287,-2.91981 7.03042,0 0,-0.36807 123.89337,0 0,0.36807 7.03008,0 13.75322,2.91981 12.84496,5.71233 11.3751,8.25487 9.40815,10.43712 7.0304,12.16257 4.3448,13.35693 1.46969,13.9672 -1.46969,13.9672 -4.3448,13.35693 -7.0304,12.16256 -9.40815,10.43713 -11.3751,8.25487 -12.84496,5.71233 -13.75322,2.9198 -7.03008,0 0,0.36807 z m 278.93004,-26.74073 -8.32567,-1.76752 -7.77339,-3.45723 -6.88495,-4.99635 -5.69555,-6.31729 -4.25417,-7.36139 -2.62974,-8.08445 -0.88949,-8.45393 0.88949,-8.45394 2.62974,-8.08445 4.25417,-7.36139 5.69555,-6.31729 6.88495,-4.99634 7.77339,-3.45724 8.32567,-1.76751 8.50967,0 8.32567,1.76751 7.77339,3.45724 6.88495,4.99634 5.69555,6.31729 4.25483,7.36139 2.63012,8.08445 0.88845,8.45394 -0.88845,8.45393 -2.63012,8.08445 -4.25483,7.36139 -5.69555,6.31729 -6.88495,4.99635 -7.77339,3.45723 -8.32567,1.76752 z m 96.99079,-37.36986 0,-6.13661 4.8035,-3.82566 5.9894,1.36514 2.66544,5.52883 -2.66544,5.52882 -5.9894,1.3655 z m -470.79462,0 0,-6.13661 4.80313,-3.82566 5.98947,1.36514 2.66554,5.52883 -2.66554,5.52882 -5.98947,1.3655 z"
       inkscape:connector-curvature="0"
       style="fill:#d3d3d3;stroke:#000000;stroke-width:0.5" />
    <path
       id="path4773"
       d="m 0.24999999,765.10433 506.19291001,0 0,-169.57874 -506.19291001,0 z M 4.20124,683.697 l 0,-6.76407 3.14948,-5.98896 5.57739,-3.84237 6.72766,-0.81504 6.33665,2.39848 4.494,5.06263 1.62187,6.56729 -1.62187,6.56729 -4.494,5.06263 -6.33665,2.39848 -6.72766,-0.81503 -5.57739,-3.84238 z m 34.98667,-3.38204 1.46973,-13.95597 4.34477,-13.3462 7.03041,-12.15279 9.40811,-10.42874 11.375184,-8.24824 12.84491,-5.70774 13.753226,-2.91746 7.03006,0 0,-0.36777 123.89337,0 0,0.36777 7.03007,0 13.75323,2.91746 12.84491,5.70774 11.37518,8.24824 9.40811,10.42874 7.03042,12.15279 4.34476,13.3462 1.46973,13.95597 -1.46973,13.95598 -4.34476,13.3462 -7.03042,12.15279 -9.40811,10.42856 -11.37518,8.24835 -12.84491,5.7077 -13.75323,2.91764 -7.03007,0 0,0.3677 -123.89337,0 0,-0.3677 -7.03006,0 -13.753226,-2.91764 -12.84491,-5.7077 -11.375184,-8.24835 -9.40811,-10.42856 -7.03041,-12.15279 -4.34477,-13.3462 z m 309.73343,0 0.88956,-8.44714 2.62972,-8.07795 4.25415,-7.35548 5.69555,-6.31221 6.88493,-4.99233 7.77343,-3.45446 8.32563,-1.76609 8.50971,0 8.32563,1.76609 7.77342,3.45446 6.88494,4.99233 5.69555,6.31221 4.25485,7.35548 2.63008,8.07795 0.88849,8.44714 -0.88849,8.44714 -2.63008,8.07796 -4.25485,7.35548 -5.69555,6.31221 -6.88494,4.99233 -7.77342,3.45446 -8.32563,1.76609 -8.50971,0 -8.32563,-1.76609 -7.77343,-3.45446 -6.88493,-4.99233 -5.69555,-6.31221 -4.25415,-7.35548 -2.62972,-8.07796 z m 126.07389,3.38204 0,-6.76407 3.15044,-5.98896 5.57874,-3.84237 6.72564,-0.81504 6.33626,2.39848 4.49556,5.06263 1.62123,6.56729 -1.62123,6.56729 -4.49556,5.06263 -6.33626,2.39848 -6.72564,-0.81503 -5.57874,-3.84238 z"
       inkscape:connector-curvature="0"
       style="fill:#d3d3d3;stroke:#000000;stroke-width:0.49999997" />
    <text
       xml:space="preserve"
       style="font-style:normal;font-weight:bold;font-size:17.5px;line-height:125%;font-family:Sans;letter-spacing:0px;word-spacing:0px;fill:#000000;fill-opacity:1;stroke:none;stroke-width:1px;stroke-linecap:butt;stroke-linejoin:miter;stroke-opacity:1;-inkscape-font-specification:'Sans, Bold';font-stretch:normal;font-variant:normal;text-anchor:start;text-align:start;writing-mode:lr;"
       x="51.765327"
       y="675.66772"
       id="text4782"
       sodipodi:linespacing="125%"><tspan
         sodipodi:role="line"
         id="tspan4784"
         x="51.765327"
         y="675.66772"
         style="font-size:17.5px;-inkscape-font-specification:'Sans, Bold';font-family:Sans;font-weight:bold;font-style:normal;font-stretch:normal;font-variant:normal;text-anchor:start;text-align:start;writing-mode:lr;line-height:125%;">Zapping.......</tspan></text>
    <text
       xml:space="preserve"
       style="font-style:normal;font-weight:normal;font-size:40px;line-height:125%;font-family:Sans;letter-spacing:0px;word-spacing:0px;fill:#000000;fill-opacity:1;stroke:none;stroke-width:1px;stroke-linecap:butt;stroke-linejoin:miter;stroke-opacity:1"
       x="52.004585"
       y="697.7666"
       id="text4790"
       sodipodi:linespacing="125%"><tspan
         sodipodi:role="line"
         id="tspan4792"
         x="52.004585"
         y="697.7666"
         style="font-size:17.5px">S-Harrison-2016-03-26.stl</tspan></text>
    <text
       xml:space="preserve"
       style="font-style:normal;font-weight:bold;font-size:22.5px;line-height:125%;font-family:Sans;letter-spacing:0px;word-spacing:0px;fill:#000000;fill-opacity:1;stroke:none;stroke-width:1px;stroke-linecap:butt;stroke-linejoin:miter;stroke-opacity:1;-inkscape-font-specification:'Sans, Bold';font-stretch:normal;font-variant:normal;text-anchor:start;text-align:start;writing-mode:lr;"
       x="104.10194"
       y="640.35553"
       id="text4794"
       sodipodi:linespacing="125%"><tspan
         sodipodi:role="line"
         id="tspan4796"
         x="104.10194"
         y="640.35553"
         style="font-size:22.5px;-inkscape-font-specification:'Sans, Bold';font-family:Sans;font-weight:bold;font-style:normal;font-stretch:normal;font-variant:normal;text-anchor:start;text-align:start;writing-mode:lr;line-height:125%;">Form Keep</tspan></text>
  </g>
</svg>
