<?xml version="1.0" standalone="no"?>
<!DOCTYPE svg PUBLIC "-//W3C//DTD SVG 1.1//EN" "http://www.w3.org/Graphics/SVG/1.1/DTD/svg11.dtd">
<svg width="143" height="66" viewBox="0 -66 143 66" xmlns="http://www.w3.org/2000/svg" version="1.1">
<title>OpenSCAD Model</title>
<path d="
M 143,-66 L 0,-66 L 0,-0 L 143,-0 z
M 30,-14 L 30,-14.1041 L 28.0139,-14.1041 L 24.1287,-14.9299 L 20.5,-16.5455 L 17.2865,-18.8802
 L 14.6287,-21.8321 L 12.6426,-25.272 L 11.4152,-29.0497 L 11,-33 L 11.4152,-36.9503 L 12.6426,-40.728
 L 14.6287,-44.1679 L 17.2865,-47.1198 L 20.5,-49.4545 L 24.1287,-51.0701 L 28.0139,-51.8959 L 30,-51.8959
 L 30,-52 L 65,-52 L 65,-51.8959 L 66.986,-51.8959 L 70.8713,-51.0701 L 74.5,-49.4545
 L 77.7135,-47.1198 L 80.3713,-44.1679 L 82.3574,-40.728 L 83.5848,-36.9503 L 84,-33 L 83.5848,-29.0497
 L 82.3574,-25.272 L 80.3713,-21.8321 L 77.7135,-18.8802 L 74.5,-16.5455 L 70.8713,-14.9299 L 66.986,-14.1041
 L 65,-14.1041 L 65,-14 z
M 108.798,-21.563 L 106.446,-22.0629 L 104.25,-23.0407 L 102.305,-24.4538 L 100.696,-26.2405 L 99.4942,-28.3225
 L 98.7513,-30.609 L 98.5,-33 L 98.7513,-35.391 L 99.4942,-37.6775 L 100.696,-39.7595 L 102.305,-41.5462
 L 104.25,-42.9593 L 106.446,-43.9371 L 108.798,-44.437 L 111.202,-44.437 L 113.554,-43.9371 L 115.75,-42.9593
 L 117.695,-41.5462 L 119.304,-39.7595 L 120.506,-37.6775 L 121.249,-35.391 L 121.5,-33 L 121.249,-30.609
 L 120.506,-28.3225 L 119.304,-26.2405 L 117.695,-24.4538 L 115.75,-23.0407 L 113.554,-22.0629 L 111.202,-21.563
 z
M 136.198,-32.1322 L 136.198,-33.8678 L 137.555,-34.9498 L 139.247,-34.5637 L 140,-33 L 139.247,-31.4363
 L 137.555,-31.0501 z
M 3.19806,-32.1322 L 3.19806,-33.8678 L 4.55495,-34.9498 L 6.24698,-34.5637 L 7,-33 L 6.24698,-31.4363
 L 4.55495,-31.0501 z
" stroke="black" fill="lightgray" stroke-width="0.5"/></svg>
