solid OpenSCAD_Model
  facet normal -1 0 0
    outer loop
      vertex 0 2 0
      vertex 0 8 6
      vertex 0 8 0
    endloop
  endfacet
  facet normal -1 -0 0
    outer loop
      vertex 0 8 6
      vertex 0 2 0
      vertex 0 2 6
    endloop
  endfacet
  facet normal -0 0 1
    outer loop
      vertex 0 8 6
      vertex 5 2 6
      vertex 5 8 6
    endloop
  endfacet
  facet normal 0 0 1
    outer loop
      vertex 5 2 6
      vertex 0 8 6
      vertex 0 2 6
    endloop
  endfacet
  facet normal 0 0 1
    outer loop
      vertex 45 10 6
      vertex 40 8.5 6
      vertex 45 8.5 6
    endloop
  endfacet
  facet normal 0 0 1
    outer loop
      vertex 40 8.5 6
      vertex 19 5 6
      vertex 40 1.5 6
    endloop
  endfacet
  facet normal 0 0 1
    outer loop
      vertex 16.5621 7.94686 6
      vertex 40 8.5 6
      vertex 45 10 6
    endloop
  endfacet
  facet normal 0 0 1
    outer loop
      vertex 40 8.5 6
      vertex 18.9763 5.376 6
      vertex 19 5 6
    endloop
  endfacet
  facet normal 0 0 1
    outer loop
      vertex 40 8.5 6
      vertex 18.9058 5.74607 6
      vertex 18.9763 5.376 6
    endloop
  endfacet
  facet normal 0 0 1
    outer loop
      vertex 40 8.5 6
      vertex 18.7893 6.10437 6
      vertex 18.9058 5.74607 6
    endloop
  endfacet
  facet normal 0 0 1
    outer loop
      vertex 40 8.5 6
      vertex 18.6289 6.44526 6
      vertex 18.7893 6.10437 6
    endloop
  endfacet
  facet normal 0 0 1
    outer loop
      vertex 40 8.5 6
      vertex 18.4271 6.76336 6
      vertex 18.6289 6.44526 6
    endloop
  endfacet
  facet normal 0 0 1
    outer loop
      vertex 40 8.5 6
      vertex 18.1869 7.05364 6
      vertex 18.4271 6.76336 6
    endloop
  endfacet
  facet normal 0 0 1
    outer loop
      vertex 40 8.5 6
      vertex 17.9123 7.31154 6
      vertex 18.1869 7.05364 6
    endloop
  endfacet
  facet normal 0 0 1
    outer loop
      vertex 40 8.5 6
      vertex 17.6075 7.53298 6
      vertex 17.9123 7.31154 6
    endloop
  endfacet
  facet normal 0 0 1
    outer loop
      vertex 40 8.5 6
      vertex 17.2773 7.71448 6
      vertex 17.6075 7.53298 6
    endloop
  endfacet
  facet normal 0 0 1
    outer loop
      vertex 40 8.5 6
      vertex 16.9271 7.85317 6
      vertex 17.2773 7.71448 6
    endloop
  endfacet
  facet normal 0 0 1
    outer loop
      vertex 40 8.5 6
      vertex 16.5621 7.94686 6
      vertex 16.9271 7.85317 6
    endloop
  endfacet
  facet normal 0 0 1
    outer loop
      vertex 45 10 6
      vertex 16.1884 7.99408 6
      vertex 16.5621 7.94686 6
    endloop
  endfacet
  facet normal -0 0 1
    outer loop
      vertex 5 10 6
      vertex 16.1884 7.99408 6
      vertex 45 10 6
    endloop
  endfacet
  facet normal 0 0 1
    outer loop
      vertex 13.0943 5.74607 6
      vertex 5 8 6
      vertex 13.0237 5.376 6
    endloop
  endfacet
  facet normal 0 0 1
    outer loop
      vertex 13.2107 6.10437 6
      vertex 5 8 6
      vertex 13.0943 5.74607 6
    endloop
  endfacet
  facet normal 0 0 1
    outer loop
      vertex 13.3711 6.44526 6
      vertex 5 8 6
      vertex 13.2107 6.10437 6
    endloop
  endfacet
  facet normal -0 0 1
    outer loop
      vertex 5 8 6
      vertex 13.3711 6.44526 6
      vertex 5 10 6
    endloop
  endfacet
  facet normal 0 0 1
    outer loop
      vertex 13.5729 6.76336 6
      vertex 5 10 6
      vertex 13.3711 6.44526 6
    endloop
  endfacet
  facet normal 0 0 1
    outer loop
      vertex 13.8131 7.05364 6
      vertex 5 10 6
      vertex 13.5729 6.76336 6
    endloop
  endfacet
  facet normal 0 0 1
    outer loop
      vertex 14.0877 7.31154 6
      vertex 5 10 6
      vertex 13.8131 7.05364 6
    endloop
  endfacet
  facet normal 0 0 1
    outer loop
      vertex 14.3925 7.53298 6
      vertex 5 10 6
      vertex 14.0877 7.31154 6
    endloop
  endfacet
  facet normal 0 0 1
    outer loop
      vertex 14.7227 7.71448 6
      vertex 5 10 6
      vertex 14.3925 7.53298 6
    endloop
  endfacet
  facet normal 0 0 1
    outer loop
      vertex 15.0729 7.85317 6
      vertex 5 10 6
      vertex 14.7227 7.71448 6
    endloop
  endfacet
  facet normal 0 0 1
    outer loop
      vertex 15.4379 7.94686 6
      vertex 5 10 6
      vertex 15.0729 7.85317 6
    endloop
  endfacet
  facet normal 0 0 1
    outer loop
      vertex 15.8116 7.99408 6
      vertex 5 10 6
      vertex 15.4379 7.94686 6
    endloop
  endfacet
  facet normal 0 0 1
    outer loop
      vertex 16.1884 7.99408 6
      vertex 5 10 6
      vertex 15.8116 7.99408 6
    endloop
  endfacet
  facet normal -0 0 1
    outer loop
      vertex 40 1.5 6
      vertex 45 0 6
      vertex 45 1.5 6
    endloop
  endfacet
  facet normal -0 0 1
    outer loop
      vertex 18.9763 4.624 6
      vertex 40 1.5 6
      vertex 19 5 6
    endloop
  endfacet
  facet normal -0 0 1
    outer loop
      vertex 18.9058 4.25393 6
      vertex 40 1.5 6
      vertex 18.9763 4.624 6
    endloop
  endfacet
  facet normal -0 0 1
    outer loop
      vertex 18.7893 3.89563 6
      vertex 40 1.5 6
      vertex 18.9058 4.25393 6
    endloop
  endfacet
  facet normal -0 0 1
    outer loop
      vertex 18.6289 3.55474 6
      vertex 40 1.5 6
      vertex 18.7893 3.89563 6
    endloop
  endfacet
  facet normal -0 0 1
    outer loop
      vertex 18.4271 3.23664 6
      vertex 40 1.5 6
      vertex 18.6289 3.55474 6
    endloop
  endfacet
  facet normal -0 0 1
    outer loop
      vertex 18.1869 2.94636 6
      vertex 40 1.5 6
      vertex 18.4271 3.23664 6
    endloop
  endfacet
  facet normal -0 0 1
    outer loop
      vertex 17.9123 2.68846 6
      vertex 40 1.5 6
      vertex 18.1869 2.94636 6
    endloop
  endfacet
  facet normal -0 0 1
    outer loop
      vertex 17.6075 2.46702 6
      vertex 40 1.5 6
      vertex 17.9123 2.68846 6
    endloop
  endfacet
  facet normal -0 0 1
    outer loop
      vertex 17.2773 2.28552 6
      vertex 40 1.5 6
      vertex 17.6075 2.46702 6
    endloop
  endfacet
  facet normal -0 0 1
    outer loop
      vertex 16.9271 2.14683 6
      vertex 40 1.5 6
      vertex 17.2773 2.28552 6
    endloop
  endfacet
  facet normal -0 0 1
    outer loop
      vertex 16.5621 2.05314 6
      vertex 40 1.5 6
      vertex 16.9271 2.14683 6
    endloop
  endfacet
  facet normal 0 0 1
    outer loop
      vertex 40 1.5 6
      vertex 16.5621 2.05314 6
      vertex 45 0 6
    endloop
  endfacet
  facet normal -0 0 1
    outer loop
      vertex 16.1884 2.00592 6
      vertex 45 0 6
      vertex 16.5621 2.05314 6
    endloop
  endfacet
  facet normal 0 0 1
    outer loop
      vertex 5 0 6
      vertex 16.1884 2.00592 6
      vertex 15.8116 2.00592 6
    endloop
  endfacet
  facet normal 0 0 1
    outer loop
      vertex 13.0237 5.376 6
      vertex 5 8 6
      vertex 13 5 6
    endloop
  endfacet
  facet normal 0 0 1
    outer loop
      vertex 5 2 6
      vertex 13 5 6
      vertex 5 8 6
    endloop
  endfacet
  facet normal 0 0 1
    outer loop
      vertex 13 5 6
      vertex 5 2 6
      vertex 13.0237 4.624 6
    endloop
  endfacet
  facet normal 0 0 1
    outer loop
      vertex 13.0237 4.624 6
      vertex 5 2 6
      vertex 13.0943 4.25393 6
    endloop
  endfacet
  facet normal 0 0 1
    outer loop
      vertex 13.0943 4.25393 6
      vertex 5 2 6
      vertex 13.2107 3.89563 6
    endloop
  endfacet
  facet normal 0 0 1
    outer loop
      vertex 13.2107 3.89563 6
      vertex 5 2 6
      vertex 13.3711 3.55474 6
    endloop
  endfacet
  facet normal 0 0 1
    outer loop
      vertex 5 0 6
      vertex 13.3711 3.55474 6
      vertex 5 2 6
    endloop
  endfacet
  facet normal 0 0 1
    outer loop
      vertex 13.3711 3.55474 6
      vertex 5 0 6
      vertex 13.5729 3.23664 6
    endloop
  endfacet
  facet normal 0 0 1
    outer loop
      vertex 13.5729 3.23664 6
      vertex 5 0 6
      vertex 13.8131 2.94636 6
    endloop
  endfacet
  facet normal 0 0 1
    outer loop
      vertex 13.8131 2.94636 6
      vertex 5 0 6
      vertex 14.0877 2.68846 6
    endloop
  endfacet
  facet normal 0 0 1
    outer loop
      vertex 14.0877 2.68846 6
      vertex 5 0 6
      vertex 14.3925 2.46702 6
    endloop
  endfacet
  facet normal 0 0 1
    outer loop
      vertex 14.3925 2.46702 6
      vertex 5 0 6
      vertex 14.7227 2.28552 6
    endloop
  endfacet
  facet normal 0 0 1
    outer loop
      vertex 14.7227 2.28552 6
      vertex 5 0 6
      vertex 15.0729 2.14683 6
    endloop
  endfacet
  facet normal 0 0 1
    outer loop
      vertex 15.0729 2.14683 6
      vertex 5 0 6
      vertex 15.4379 2.05314 6
    endloop
  endfacet
  facet normal 0 0 1
    outer loop
      vertex 15.4379 2.05314 6
      vertex 5 0 6
      vertex 15.8116 2.00592 6
    endloop
  endfacet
  facet normal 0 0 1
    outer loop
      vertex 16.1884 2.00592 6
      vertex 5 0 6
      vertex 45 0 6
    endloop
  endfacet
  facet normal 1 -0 0
    outer loop
      vertex 40 1.5 6
      vertex 40 8.5 0
      vertex 40 8.5 6
    endloop
  endfacet
  facet normal 1 0 0
    outer loop
      vertex 40 8.5 0
      vertex 40 1.5 6
      vertex 40 1.5 0
    endloop
  endfacet
  facet normal 0 1 -0
    outer loop
      vertex 5 8 0
      vertex 0 8 6
      vertex 5 8 6
    endloop
  endfacet
  facet normal 0 1 0
    outer loop
      vertex 0 8 6
      vertex 5 8 0
      vertex 0 8 0
    endloop
  endfacet
  facet normal 0 0 -1
    outer loop
      vertex 0 2 0
      vertex 5 8 0
      vertex 5 2 0
    endloop
  endfacet
  facet normal -0 0 -1
    outer loop
      vertex 5 8 0
      vertex 0 2 0
      vertex 0 8 0
    endloop
  endfacet
  facet normal 0 0 -1
    outer loop
      vertex 22 0 0
      vertex 17.75 5 0
      vertex 22 10 0
    endloop
  endfacet
  facet normal 0 0 -1
    outer loop
      vertex 22 0 0
      vertex 17.7362 4.78067 0
      vertex 17.75 5 0
    endloop
  endfacet
  facet normal 0 0 -1
    outer loop
      vertex 22 0 0
      vertex 17.695 4.56479 0
      vertex 17.7362 4.78067 0
    endloop
  endfacet
  facet normal 0 0 -1
    outer loop
      vertex 22 0 0
      vertex 17.6271 4.35578 0
      vertex 17.695 4.56479 0
    endloop
  endfacet
  facet normal 0 0 -1
    outer loop
      vertex 22 0 0
      vertex 17.5335 4.15693 0
      vertex 17.6271 4.35578 0
    endloop
  endfacet
  facet normal 0 0 -1
    outer loop
      vertex 22 0 0
      vertex 17.4158 3.97138 0
      vertex 17.5335 4.15693 0
    endloop
  endfacet
  facet normal 0 0 -1
    outer loop
      vertex 22 0 0
      vertex 17.2757 3.80204 0
      vertex 17.4158 3.97138 0
    endloop
  endfacet
  facet normal 0 0 -1
    outer loop
      vertex 22 0 0
      vertex 17.1155 3.6516 0
      vertex 17.2757 3.80204 0
    endloop
  endfacet
  facet normal 0 0 -1
    outer loop
      vertex 22 0 0
      vertex 16.9377 3.52243 0
      vertex 17.1155 3.6516 0
    endloop
  endfacet
  facet normal 0 0 -1
    outer loop
      vertex 22 0 0
      vertex 16.7451 3.41655 0
      vertex 16.9377 3.52243 0
    endloop
  endfacet
  facet normal 0 0 -1
    outer loop
      vertex 22 0 0
      vertex 16.5408 3.33565 0
      vertex 16.7451 3.41655 0
    endloop
  endfacet
  facet normal 0 0 -1
    outer loop
      vertex 22 0 0
      vertex 16.3279 3.281 0
      vertex 16.5408 3.33565 0
    endloop
  endfacet
  facet normal 0 0 -1
    outer loop
      vertex 22 0 0
      vertex 16.1099 3.25345 0
      vertex 16.3279 3.281 0
    endloop
  endfacet
  facet normal 0 0 -1
    outer loop
      vertex 22 0 0
      vertex 15.8901 3.25345 0
      vertex 16.1099 3.25345 0
    endloop
  endfacet
  facet normal 0 0 -1
    outer loop
      vertex 22 0 0
      vertex 15.6721 3.281 0
      vertex 15.8901 3.25345 0
    endloop
  endfacet
  facet normal 0 0 -1
    outer loop
      vertex 5 0 0
      vertex 15.6721 3.281 0
      vertex 22 0 0
    endloop
  endfacet
  facet normal -0 0 -1
    outer loop
      vertex 15.6721 3.281 0
      vertex 5 0 0
      vertex 15.4592 3.33565 0
    endloop
  endfacet
  facet normal -0 0 -1
    outer loop
      vertex 14.305 4.56479 0
      vertex 5 2 0
      vertex 14.2638 4.78067 0
    endloop
  endfacet
  facet normal -0 0 -1
    outer loop
      vertex 14.3729 4.35578 0
      vertex 5 2 0
      vertex 14.305 4.56479 0
    endloop
  endfacet
  facet normal -0 0 -1
    outer loop
      vertex 14.4665 4.15693 0
      vertex 5 2 0
      vertex 14.3729 4.35578 0
    endloop
  endfacet
  facet normal -0 0 -1
    outer loop
      vertex 14.5842 3.97138 0
      vertex 5 2 0
      vertex 14.4665 4.15693 0
    endloop
  endfacet
  facet normal 0 0 -1
    outer loop
      vertex 5 2 0
      vertex 14.5842 3.97138 0
      vertex 5 0 0
    endloop
  endfacet
  facet normal -0 0 -1
    outer loop
      vertex 14.7243 3.80204 0
      vertex 5 0 0
      vertex 14.5842 3.97138 0
    endloop
  endfacet
  facet normal -0 0 -1
    outer loop
      vertex 14.8845 3.6516 0
      vertex 5 0 0
      vertex 14.7243 3.80204 0
    endloop
  endfacet
  facet normal -0 0 -1
    outer loop
      vertex 15.0623 3.52243 0
      vertex 5 0 0
      vertex 14.8845 3.6516 0
    endloop
  endfacet
  facet normal -0 0 -1
    outer loop
      vertex 15.2549 3.41655 0
      vertex 5 0 0
      vertex 15.0623 3.52243 0
    endloop
  endfacet
  facet normal -0 0 -1
    outer loop
      vertex 15.4592 3.33565 0
      vertex 5 0 0
      vertex 15.2549 3.41655 0
    endloop
  endfacet
  facet normal 0 0 -1
    outer loop
      vertex 17.7362 5.21933 0
      vertex 22 10 0
      vertex 17.75 5 0
    endloop
  endfacet
  facet normal 0 0 -1
    outer loop
      vertex 17.695 5.43521 0
      vertex 22 10 0
      vertex 17.7362 5.21933 0
    endloop
  endfacet
  facet normal 0 0 -1
    outer loop
      vertex 17.6271 5.64422 0
      vertex 22 10 0
      vertex 17.695 5.43521 0
    endloop
  endfacet
  facet normal 0 0 -1
    outer loop
      vertex 17.5335 5.84307 0
      vertex 22 10 0
      vertex 17.6271 5.64422 0
    endloop
  endfacet
  facet normal 0 0 -1
    outer loop
      vertex 17.4158 6.02862 0
      vertex 22 10 0
      vertex 17.5335 5.84307 0
    endloop
  endfacet
  facet normal 0 0 -1
    outer loop
      vertex 17.2757 6.19796 0
      vertex 22 10 0
      vertex 17.4158 6.02862 0
    endloop
  endfacet
  facet normal 0 0 -1
    outer loop
      vertex 17.1155 6.3484 0
      vertex 22 10 0
      vertex 17.2757 6.19796 0
    endloop
  endfacet
  facet normal 0 0 -1
    outer loop
      vertex 16.9377 6.47757 0
      vertex 22 10 0
      vertex 17.1155 6.3484 0
    endloop
  endfacet
  facet normal 0 0 -1
    outer loop
      vertex 16.7451 6.58345 0
      vertex 22 10 0
      vertex 16.9377 6.47757 0
    endloop
  endfacet
  facet normal 0 0 -1
    outer loop
      vertex 16.5408 6.66435 0
      vertex 22 10 0
      vertex 16.7451 6.58345 0
    endloop
  endfacet
  facet normal 0 0 -1
    outer loop
      vertex 16.3279 6.719 0
      vertex 22 10 0
      vertex 16.5408 6.66435 0
    endloop
  endfacet
  facet normal 0 0 -1
    outer loop
      vertex 16.1099 6.74655 0
      vertex 22 10 0
      vertex 16.3279 6.719 0
    endloop
  endfacet
  facet normal 0 0 -1
    outer loop
      vertex 15.8901 6.74655 0
      vertex 22 10 0
      vertex 16.1099 6.74655 0
    endloop
  endfacet
  facet normal 0 0 -1
    outer loop
      vertex 15.6721 6.719 0
      vertex 22 10 0
      vertex 15.8901 6.74655 0
    endloop
  endfacet
  facet normal 0 0 -1
    outer loop
      vertex 5 10 0
      vertex 15.6721 6.719 0
      vertex 15.4592 6.66435 0
    endloop
  endfacet
  facet normal 0 0 -1
    outer loop
      vertex 5 10 0
      vertex 15.4592 6.66435 0
      vertex 15.2549 6.58345 0
    endloop
  endfacet
  facet normal -0 0 -1
    outer loop
      vertex 14.2638 4.78067 0
      vertex 5 2 0
      vertex 14.25 5 0
    endloop
  endfacet
  facet normal 0 0 -1
    outer loop
      vertex 5 8 0
      vertex 14.25 5 0
      vertex 5 2 0
    endloop
  endfacet
  facet normal 0 0 -1
    outer loop
      vertex 14.25 5 0
      vertex 5 8 0
      vertex 14.2638 5.21933 0
    endloop
  endfacet
  facet normal 0 0 -1
    outer loop
      vertex 14.2638 5.21933 0
      vertex 5 8 0
      vertex 14.305 5.43521 0
    endloop
  endfacet
  facet normal 0 0 -1
    outer loop
      vertex 14.305 5.43521 0
      vertex 5 8 0
      vertex 14.3729 5.64422 0
    endloop
  endfacet
  facet normal 0 0 -1
    outer loop
      vertex 14.3729 5.64422 0
      vertex 5 8 0
      vertex 14.4665 5.84307 0
    endloop
  endfacet
  facet normal 0 0 -1
    outer loop
      vertex 14.4665 5.84307 0
      vertex 5 8 0
      vertex 14.5842 6.02862 0
    endloop
  endfacet
  facet normal 0 0 -1
    outer loop
      vertex 5 10 0
      vertex 14.5842 6.02862 0
      vertex 5 8 0
    endloop
  endfacet
  facet normal 0 0 -1
    outer loop
      vertex 14.5842 6.02862 0
      vertex 5 10 0
      vertex 14.7243 6.19796 0
    endloop
  endfacet
  facet normal 0 0 -1
    outer loop
      vertex 14.7243 6.19796 0
      vertex 5 10 0
      vertex 14.8845 6.3484 0
    endloop
  endfacet
  facet normal 0 0 -1
    outer loop
      vertex 14.8845 6.3484 0
      vertex 5 10 0
      vertex 15.0623 6.47757 0
    endloop
  endfacet
  facet normal 0 0 -1
    outer loop
      vertex 15.0623 6.47757 0
      vertex 5 10 0
      vertex 15.2549 6.58345 0
    endloop
  endfacet
  facet normal 0 0 -1
    outer loop
      vertex 15.6721 6.719 0
      vertex 5 10 0
      vertex 22 10 0
    endloop
  endfacet
  facet normal 0 0 -1
    outer loop
      vertex 45 0 0
      vertex 40 1.5 0
      vertex 45 1.5 0
    endloop
  endfacet
  facet normal -0 0 -1
    outer loop
      vertex 40 1.5 0
      vertex 28 0 0
      vertex 40 8.5 0
    endloop
  endfacet
  facet normal 0 0 -1
    outer loop
      vertex 28 0 0
      vertex 40 1.5 0
      vertex 45 0 0
    endloop
  endfacet
  facet normal 0 0 -1
    outer loop
      vertex 40 8.5 0
      vertex 45 10 0
      vertex 45 8.5 0
    endloop
  endfacet
  facet normal 0 0 -1
    outer loop
      vertex 40 8.5 0
      vertex 28 10 0
      vertex 45 10 0
    endloop
  endfacet
  facet normal 0 0 -1
    outer loop
      vertex 28 10 0
      vertex 40 8.5 0
      vertex 28 0 0
    endloop
  endfacet
  facet normal 0 -1 0
    outer loop
      vertex 0 2 0
      vertex 5 2 6
      vertex 0 2 6
    endloop
  endfacet
  facet normal 0 -1 -0
    outer loop
      vertex 5 2 6
      vertex 0 2 0
      vertex 5 2 0
    endloop
  endfacet
  facet normal -1 0 0
    outer loop
      vertex 5 8 0
      vertex 5 10 6
      vertex 5 10 0
    endloop
  endfacet
  facet normal -1 -0 0
    outer loop
      vertex 5 10 6
      vertex 5 8 0
      vertex 5 8 6
    endloop
  endfacet
  facet normal 1 -0 0
    outer loop
      vertex 45 0 6
      vertex 45 1.5 0
      vertex 45 1.5 6
    endloop
  endfacet
  facet normal 1 0 0
    outer loop
      vertex 45 1.5 0
      vertex 45 0 6
      vertex 45 0 0
    endloop
  endfacet
  facet normal 1 -0 0
    outer loop
      vertex 45 8.5 6
      vertex 45 10 0
      vertex 45 10 6
    endloop
  endfacet
  facet normal 1 0 0
    outer loop
      vertex 45 10 0
      vertex 45 8.5 6
      vertex 45 8.5 0
    endloop
  endfacet
  facet normal 0 1 0
    outer loop
      vertex 22 10 0.5
      vertex 22 10 0
      vertex 20 10 0.5
    endloop
  endfacet
  facet normal 0 1 0
    outer loop
      vertex 45 10 6
      vertex 30 10 3.5
      vertex 5 10 6
    endloop
  endfacet
  facet normal 0 1 -0
    outer loop
      vertex 45 10 0
      vertex 30 10 3.5
      vertex 45 10 6
    endloop
  endfacet
  facet normal 0 1 0
    outer loop
      vertex 30 10 3.5
      vertex 45 10 0
      vertex 30 10 0.5
    endloop
  endfacet
  facet normal 0 1 0
    outer loop
      vertex 28 10 0
      vertex 30 10 0.5
      vertex 45 10 0
    endloop
  endfacet
  facet normal 0 1 0
    outer loop
      vertex 30 10 0.5
      vertex 28 10 0
      vertex 28 10 0.5
    endloop
  endfacet
  facet normal 0 1 -0
    outer loop
      vertex 20 10 3.5
      vertex 5 10 6
      vertex 30 10 3.5
    endloop
  endfacet
  facet normal 0 1 0
    outer loop
      vertex 5 10 0
      vertex 20 10 3.5
      vertex 20 10 0.5
    endloop
  endfacet
  facet normal 0 1 0
    outer loop
      vertex 20 10 3.5
      vertex 5 10 0
      vertex 5 10 6
    endloop
  endfacet
  facet normal 0 1 0
    outer loop
      vertex 5 10 0
      vertex 20 10 0.5
      vertex 22 10 0
    endloop
  endfacet
  facet normal -1 0 0
    outer loop
      vertex 5 0 0
      vertex 5 2 6
      vertex 5 2 0
    endloop
  endfacet
  facet normal -1 -0 0
    outer loop
      vertex 5 2 6
      vertex 5 0 0
      vertex 5 0 6
    endloop
  endfacet
  facet normal 0 -1 0
    outer loop
      vertex 28 0 0.5
      vertex 28 0 0
      vertex 30 0 0.5
    endloop
  endfacet
  facet normal 0 -1 0
    outer loop
      vertex 5 0 6
      vertex 20 0 3.5
      vertex 45 0 6
    endloop
  endfacet
  facet normal 0 -1 0
    outer loop
      vertex 5 0 0
      vertex 20 0 3.5
      vertex 5 0 6
    endloop
  endfacet
  facet normal 0 -1 -0
    outer loop
      vertex 20 0 3.5
      vertex 5 0 0
      vertex 20 0 0.5
    endloop
  endfacet
  facet normal 0 -1 0
    outer loop
      vertex 22 0 0
      vertex 20 0 0.5
      vertex 5 0 0
    endloop
  endfacet
  facet normal 0 -1 0
    outer loop
      vertex 20 0 0.5
      vertex 22 0 0
      vertex 22 0 0.5
    endloop
  endfacet
  facet normal 0 -1 0
    outer loop
      vertex 30 0 3.5
      vertex 45 0 6
      vertex 20 0 3.5
    endloop
  endfacet
  facet normal 0 -1 0
    outer loop
      vertex 45 0 0
      vertex 30 0 3.5
      vertex 30 0 0.5
    endloop
  endfacet
  facet normal 0 -1 0
    outer loop
      vertex 30 0 3.5
      vertex 45 0 0
      vertex 45 0 6
    endloop
  endfacet
  facet normal 0 -1 0
    outer loop
      vertex 45 0 0
      vertex 30 0 0.5
      vertex 28 0 0
    endloop
  endfacet
  facet normal -0.998027 -0.0627924 0
    outer loop
      vertex 17.75 5 0
      vertex 17.7362 5.21933 3
      vertex 17.7362 5.21933 0
    endloop
  endfacet
  facet normal -0.998027 -0.0627924 0
    outer loop
      vertex 17.7362 5.21933 3
      vertex 17.75 5 0
      vertex 17.75 5 3
    endloop
  endfacet
  facet normal 0.998027 -0.0627924 0
    outer loop
      vertex 14.25 5 3
      vertex 14.2638 5.21933 0
      vertex 14.2638 5.21933 3
    endloop
  endfacet
  facet normal 0.998027 -0.0627924 0
    outer loop
      vertex 14.2638 5.21933 0
      vertex 14.25 5 3
      vertex 14.25 5 0
    endloop
  endfacet
  facet normal 0 -1 0
    outer loop
      vertex 15.8901 6.74655 0
      vertex 16.1099 6.74655 3
      vertex 15.8901 6.74655 3
    endloop
  endfacet
  facet normal 0 -1 -0
    outer loop
      vertex 16.1099 6.74655 3
      vertex 15.8901 6.74655 0
      vertex 16.1099 6.74655 0
    endloop
  endfacet
  facet normal 0 1 -0
    outer loop
      vertex 16.1099 3.25345 0
      vertex 15.8901 3.25345 3
      vertex 16.1099 3.25345 3
    endloop
  endfacet
  facet normal 0 1 0
    outer loop
      vertex 15.8901 3.25345 3
      vertex 16.1099 3.25345 0
      vertex 15.8901 3.25345 0
    endloop
  endfacet
  facet normal -0.684544 -0.728972 0
    outer loop
      vertex 17.1155 6.3484 0
      vertex 17.2757 6.19796 3
      vertex 17.1155 6.3484 3
    endloop
  endfacet
  facet normal -0.684544 -0.728972 -0
    outer loop
      vertex 17.2757 6.19796 3
      vertex 17.1155 6.3484 0
      vertex 17.2757 6.19796 0
    endloop
  endfacet
  facet normal 0.684546 -0.72897 0
    outer loop
      vertex 14.7243 6.19796 0
      vertex 14.8845 6.3484 3
      vertex 14.7243 6.19796 3
    endloop
  endfacet
  facet normal 0.684546 -0.72897 0
    outer loop
      vertex 14.8845 6.3484 3
      vertex 14.7243 6.19796 0
      vertex 14.8845 6.3484 0
    endloop
  endfacet
  facet normal 0.368126 -0.929776 0
    outer loop
      vertex 15.2549 6.58345 0
      vertex 15.4592 6.66435 3
      vertex 15.2549 6.58345 3
    endloop
  endfacet
  facet normal 0.368126 -0.929776 0
    outer loop
      vertex 15.4592 6.66435 3
      vertex 15.2549 6.58345 0
      vertex 15.4592 6.66435 0
    endloop
  endfacet
  facet normal -0.904823 0.425789 0
    outer loop
      vertex 17.5335 4.15693 0
      vertex 17.6271 4.35578 3
      vertex 17.6271 4.35578 0
    endloop
  endfacet
  facet normal -0.904823 0.425789 0
    outer loop
      vertex 17.6271 4.35578 3
      vertex 17.5335 4.15693 0
      vertex 17.5335 4.15693 3
    endloop
  endfacet
  facet normal -0.904823 -0.425789 0
    outer loop
      vertex 17.6271 5.64422 0
      vertex 17.5335 5.84307 3
      vertex 17.5335 5.84307 0
    endloop
  endfacet
  facet normal -0.904823 -0.425789 0
    outer loop
      vertex 17.5335 5.84307 3
      vertex 17.6271 5.64422 0
      vertex 17.6271 5.64422 3
    endloop
  endfacet
  facet normal -0.368126 -0.929776 0
    outer loop
      vertex 16.5408 6.66435 0
      vertex 16.7451 6.58345 3
      vertex 16.5408 6.66435 3
    endloop
  endfacet
  facet normal -0.368126 -0.929776 -0
    outer loop
      vertex 16.7451 6.58345 3
      vertex 16.5408 6.66435 0
      vertex 16.7451 6.58345 0
    endloop
  endfacet
  facet normal -0.587786 -0.809017 0
    outer loop
      vertex 16.9377 6.47757 0
      vertex 17.1155 6.3484 3
      vertex 16.9377 6.47757 3
    endloop
  endfacet
  facet normal -0.587786 -0.809017 -0
    outer loop
      vertex 17.1155 6.3484 3
      vertex 16.9377 6.47757 0
      vertex 17.1155 6.3484 0
    endloop
  endfacet
  facet normal 0.904826 -0.425782 0
    outer loop
      vertex 14.3729 5.64422 3
      vertex 14.4665 5.84307 0
      vertex 14.4665 5.84307 3
    endloop
  endfacet
  facet normal 0.904826 -0.425782 0
    outer loop
      vertex 14.4665 5.84307 0
      vertex 14.3729 5.64422 3
      vertex 14.3729 5.64422 0
    endloop
  endfacet
  facet normal 0.770514 -0.637422 0
    outer loop
      vertex 14.5842 6.02862 3
      vertex 14.7243 6.19796 0
      vertex 14.7243 6.19796 3
    endloop
  endfacet
  facet normal 0.770514 -0.637422 0
    outer loop
      vertex 14.7243 6.19796 0
      vertex 14.5842 6.02862 3
      vertex 14.5842 6.02862 0
    endloop
  endfacet
  facet normal 0.481752 -0.876307 0
    outer loop
      vertex 15.0623 6.47757 0
      vertex 15.2549 6.58345 3
      vertex 15.0623 6.47757 3
    endloop
  endfacet
  facet normal 0.481752 -0.876307 0
    outer loop
      vertex 15.2549 6.58345 3
      vertex 15.0623 6.47757 0
      vertex 15.2549 6.58345 0
    endloop
  endfacet
  facet normal 0.248688 -0.968584 0
    outer loop
      vertex 15.4592 6.66435 0
      vertex 15.6721 6.719 3
      vertex 15.4592 6.66435 3
    endloop
  endfacet
  facet normal 0.248688 -0.968584 0
    outer loop
      vertex 15.6721 6.719 3
      vertex 15.4592 6.66435 0
      vertex 15.6721 6.719 0
    endloop
  endfacet
  facet normal -0.982286 0.187388 0
    outer loop
      vertex 17.695 4.56479 0
      vertex 17.7362 4.78067 3
      vertex 17.7362 4.78067 0
    endloop
  endfacet
  facet normal -0.982286 0.187388 0
    outer loop
      vertex 17.7362 4.78067 3
      vertex 17.695 4.56479 0
      vertex 17.695 4.56479 3
    endloop
  endfacet
  facet normal -0.368126 0.929776 0
    outer loop
      vertex 16.7451 3.41655 0
      vertex 16.5408 3.33565 3
      vertex 16.7451 3.41655 3
    endloop
  endfacet
  facet normal -0.368126 0.929776 0
    outer loop
      vertex 16.5408 3.33565 3
      vertex 16.7451 3.41655 0
      vertex 16.5408 3.33565 0
    endloop
  endfacet
  facet normal -0.95106 -0.309006 0
    outer loop
      vertex 17.695 5.43521 0
      vertex 17.6271 5.64422 3
      vertex 17.6271 5.64422 0
    endloop
  endfacet
  facet normal -0.95106 -0.309006 0
    outer loop
      vertex 17.6271 5.64422 3
      vertex 17.695 5.43521 0
      vertex 17.695 5.43521 3
    endloop
  endfacet
  facet normal -0.982286 -0.187388 0
    outer loop
      vertex 17.7362 5.21933 0
      vertex 17.695 5.43521 3
      vertex 17.695 5.43521 0
    endloop
  endfacet
  facet normal -0.982286 -0.187388 0
    outer loop
      vertex 17.695 5.43521 3
      vertex 17.7362 5.21933 0
      vertex 17.7362 5.21933 3
    endloop
  endfacet
  facet normal -0.770517 -0.63742 0
    outer loop
      vertex 17.4158 6.02862 0
      vertex 17.2757 6.19796 3
      vertex 17.2757 6.19796 0
    endloop
  endfacet
  facet normal -0.770517 -0.63742 0
    outer loop
      vertex 17.2757 6.19796 3
      vertex 17.4158 6.02862 0
      vertex 17.4158 6.02862 3
    endloop
  endfacet
  facet normal -0.84433 -0.535823 0
    outer loop
      vertex 17.5335 5.84307 0
      vertex 17.4158 6.02862 3
      vertex 17.4158 6.02862 0
    endloop
  endfacet
  facet normal -0.84433 -0.535823 0
    outer loop
      vertex 17.4158 6.02862 3
      vertex 17.5335 5.84307 0
      vertex 17.5335 5.84307 3
    endloop
  endfacet
  facet normal -0.248688 -0.968584 0
    outer loop
      vertex 16.3279 6.719 0
      vertex 16.5408 6.66435 3
      vertex 16.3279 6.719 3
    endloop
  endfacet
  facet normal -0.248688 -0.968584 -0
    outer loop
      vertex 16.5408 6.66435 3
      vertex 16.3279 6.719 0
      vertex 16.5408 6.66435 0
    endloop
  endfacet
  facet normal -0.125337 -0.992114 0
    outer loop
      vertex 16.1099 6.74655 0
      vertex 16.3279 6.719 3
      vertex 16.1099 6.74655 3
    endloop
  endfacet
  facet normal -0.125337 -0.992114 -0
    outer loop
      vertex 16.3279 6.719 3
      vertex 16.1099 6.74655 0
      vertex 16.3279 6.719 0
    endloop
  endfacet
  facet normal -0.481752 -0.876307 0
    outer loop
      vertex 16.7451 6.58345 0
      vertex 16.9377 6.47757 3
      vertex 16.7451 6.58345 3
    endloop
  endfacet
  facet normal -0.481752 -0.876307 -0
    outer loop
      vertex 16.9377 6.47757 3
      vertex 16.7451 6.58345 0
      vertex 16.9377 6.47757 0
    endloop
  endfacet
  facet normal 0.844328 -0.535826 0
    outer loop
      vertex 14.4665 5.84307 3
      vertex 14.5842 6.02862 0
      vertex 14.5842 6.02862 3
    endloop
  endfacet
  facet normal 0.844328 -0.535826 0
    outer loop
      vertex 14.5842 6.02862 0
      vertex 14.4665 5.84307 3
      vertex 14.4665 5.84307 0
    endloop
  endfacet
  facet normal 0.951057 -0.309014 0
    outer loop
      vertex 14.305 5.43521 3
      vertex 14.3729 5.64422 0
      vertex 14.3729 5.64422 3
    endloop
  endfacet
  facet normal 0.951057 -0.309014 0
    outer loop
      vertex 14.3729 5.64422 0
      vertex 14.305 5.43521 3
      vertex 14.305 5.43521 0
    endloop
  endfacet
  facet normal 0.982287 -0.187383 0
    outer loop
      vertex 14.2638 5.21933 3
      vertex 14.305 5.43521 0
      vertex 14.305 5.43521 3
    endloop
  endfacet
  facet normal 0.982287 -0.187383 0
    outer loop
      vertex 14.305 5.43521 0
      vertex 14.2638 5.21933 3
      vertex 14.2638 5.21933 0
    endloop
  endfacet
  facet normal 0.587786 -0.809017 0
    outer loop
      vertex 14.8845 6.3484 0
      vertex 15.0623 6.47757 3
      vertex 14.8845 6.3484 3
    endloop
  endfacet
  facet normal 0.587786 -0.809017 0
    outer loop
      vertex 15.0623 6.47757 3
      vertex 14.8845 6.3484 0
      vertex 15.0623 6.47757 0
    endloop
  endfacet
  facet normal 0.125337 -0.992114 0
    outer loop
      vertex 15.6721 6.719 0
      vertex 15.8901 6.74655 3
      vertex 15.6721 6.719 3
    endloop
  endfacet
  facet normal 0.125337 -0.992114 0
    outer loop
      vertex 15.8901 6.74655 3
      vertex 15.6721 6.719 0
      vertex 15.8901 6.74655 0
    endloop
  endfacet
  facet normal -0.998027 0.0627924 0
    outer loop
      vertex 17.7362 4.78067 0
      vertex 17.75 5 3
      vertex 17.75 5 0
    endloop
  endfacet
  facet normal -0.998027 0.0627924 0
    outer loop
      vertex 17.75 5 3
      vertex 17.7362 4.78067 0
      vertex 17.7362 4.78067 3
    endloop
  endfacet
  facet normal -0.770517 0.63742 0
    outer loop
      vertex 17.2757 3.80204 0
      vertex 17.4158 3.97138 3
      vertex 17.4158 3.97138 0
    endloop
  endfacet
  facet normal -0.770517 0.63742 0
    outer loop
      vertex 17.4158 3.97138 3
      vertex 17.2757 3.80204 0
      vertex 17.2757 3.80204 3
    endloop
  endfacet
  facet normal 0.481752 0.876307 -0
    outer loop
      vertex 15.2549 3.41655 0
      vertex 15.0623 3.52243 3
      vertex 15.2549 3.41655 3
    endloop
  endfacet
  facet normal 0.481752 0.876307 0
    outer loop
      vertex 15.0623 3.52243 3
      vertex 15.2549 3.41655 0
      vertex 15.0623 3.52243 0
    endloop
  endfacet
  facet normal 0.904826 0.425782 0
    outer loop
      vertex 14.4665 4.15693 3
      vertex 14.3729 4.35578 0
      vertex 14.3729 4.35578 3
    endloop
  endfacet
  facet normal 0.904826 0.425782 0
    outer loop
      vertex 14.3729 4.35578 0
      vertex 14.4665 4.15693 3
      vertex 14.4665 4.15693 0
    endloop
  endfacet
  facet normal 0.770514 0.637422 0
    outer loop
      vertex 14.7243 3.80204 3
      vertex 14.5842 3.97138 0
      vertex 14.5842 3.97138 3
    endloop
  endfacet
  facet normal 0.770514 0.637422 0
    outer loop
      vertex 14.5842 3.97138 0
      vertex 14.7243 3.80204 3
      vertex 14.7243 3.80204 0
    endloop
  endfacet
  facet normal -0.481752 0.876307 0
    outer loop
      vertex 16.9377 3.52243 0
      vertex 16.7451 3.41655 3
      vertex 16.9377 3.52243 3
    endloop
  endfacet
  facet normal -0.481752 0.876307 0
    outer loop
      vertex 16.7451 3.41655 3
      vertex 16.9377 3.52243 0
      vertex 16.7451 3.41655 0
    endloop
  endfacet
  facet normal -0.95106 0.309006 0
    outer loop
      vertex 17.6271 4.35578 0
      vertex 17.695 4.56479 3
      vertex 17.695 4.56479 0
    endloop
  endfacet
  facet normal -0.95106 0.309006 0
    outer loop
      vertex 17.695 4.56479 3
      vertex 17.6271 4.35578 0
      vertex 17.6271 4.35578 3
    endloop
  endfacet
  facet normal -0.84433 0.535823 0
    outer loop
      vertex 17.4158 3.97138 0
      vertex 17.5335 4.15693 3
      vertex 17.5335 4.15693 0
    endloop
  endfacet
  facet normal -0.84433 0.535823 0
    outer loop
      vertex 17.5335 4.15693 3
      vertex 17.4158 3.97138 0
      vertex 17.4158 3.97138 3
    endloop
  endfacet
  facet normal 0.982287 0.187383 0
    outer loop
      vertex 14.305 4.56479 3
      vertex 14.2638 4.78067 0
      vertex 14.2638 4.78067 3
    endloop
  endfacet
  facet normal 0.982287 0.187383 0
    outer loop
      vertex 14.2638 4.78067 0
      vertex 14.305 4.56479 3
      vertex 14.305 4.56479 0
    endloop
  endfacet
  facet normal 0.998027 0.0627924 0
    outer loop
      vertex 14.2638 4.78067 3
      vertex 14.25 5 0
      vertex 14.25 5 3
    endloop
  endfacet
  facet normal 0.998027 0.0627924 0
    outer loop
      vertex 14.25 5 0
      vertex 14.2638 4.78067 3
      vertex 14.2638 4.78067 0
    endloop
  endfacet
  facet normal 0.951057 0.309014 0
    outer loop
      vertex 14.3729 4.35578 3
      vertex 14.305 4.56479 0
      vertex 14.305 4.56479 3
    endloop
  endfacet
  facet normal 0.951057 0.309014 0
    outer loop
      vertex 14.305 4.56479 0
      vertex 14.3729 4.35578 3
      vertex 14.3729 4.35578 0
    endloop
  endfacet
  facet normal -0.587786 0.809017 0
    outer loop
      vertex 17.1155 3.6516 0
      vertex 16.9377 3.52243 3
      vertex 17.1155 3.6516 3
    endloop
  endfacet
  facet normal -0.587786 0.809017 0
    outer loop
      vertex 16.9377 3.52243 3
      vertex 17.1155 3.6516 0
      vertex 16.9377 3.52243 0
    endloop
  endfacet
  facet normal -0.248688 0.968584 0
    outer loop
      vertex 16.5408 3.33565 0
      vertex 16.3279 3.281 3
      vertex 16.5408 3.33565 3
    endloop
  endfacet
  facet normal -0.248688 0.968584 0
    outer loop
      vertex 16.3279 3.281 3
      vertex 16.5408 3.33565 0
      vertex 16.3279 3.281 0
    endloop
  endfacet
  facet normal -0.125337 0.992114 0
    outer loop
      vertex 16.3279 3.281 0
      vertex 16.1099 3.25345 3
      vertex 16.3279 3.281 3
    endloop
  endfacet
  facet normal -0.125337 0.992114 0
    outer loop
      vertex 16.1099 3.25345 3
      vertex 16.3279 3.281 0
      vertex 16.1099 3.25345 0
    endloop
  endfacet
  facet normal 0.125337 0.992114 -0
    outer loop
      vertex 15.8901 3.25345 0
      vertex 15.6721 3.281 3
      vertex 15.8901 3.25345 3
    endloop
  endfacet
  facet normal 0.125337 0.992114 0
    outer loop
      vertex 15.6721 3.281 3
      vertex 15.8901 3.25345 0
      vertex 15.6721 3.281 0
    endloop
  endfacet
  facet normal 0.248688 0.968584 -0
    outer loop
      vertex 15.6721 3.281 0
      vertex 15.4592 3.33565 3
      vertex 15.6721 3.281 3
    endloop
  endfacet
  facet normal 0.248688 0.968584 0
    outer loop
      vertex 15.4592 3.33565 3
      vertex 15.6721 3.281 0
      vertex 15.4592 3.33565 0
    endloop
  endfacet
  facet normal 0.844328 0.535826 0
    outer loop
      vertex 14.5842 3.97138 3
      vertex 14.4665 4.15693 0
      vertex 14.4665 4.15693 3
    endloop
  endfacet
  facet normal 0.844328 0.535826 0
    outer loop
      vertex 14.4665 4.15693 0
      vertex 14.5842 3.97138 3
      vertex 14.5842 3.97138 0
    endloop
  endfacet
  facet normal -0.684544 0.728972 0
    outer loop
      vertex 17.2757 3.80204 0
      vertex 17.1155 3.6516 3
      vertex 17.2757 3.80204 3
    endloop
  endfacet
  facet normal -0.684544 0.728972 0
    outer loop
      vertex 17.1155 3.6516 3
      vertex 17.2757 3.80204 0
      vertex 17.1155 3.6516 0
    endloop
  endfacet
  facet normal 0.684546 0.72897 -0
    outer loop
      vertex 14.8845 3.6516 0
      vertex 14.7243 3.80204 3
      vertex 14.8845 3.6516 3
    endloop
  endfacet
  facet normal 0.684546 0.72897 0
    outer loop
      vertex 14.7243 3.80204 3
      vertex 14.8845 3.6516 0
      vertex 14.7243 3.80204 0
    endloop
  endfacet
  facet normal 0.587786 0.809017 -0
    outer loop
      vertex 15.0623 3.52243 0
      vertex 14.8845 3.6516 3
      vertex 15.0623 3.52243 3
    endloop
  endfacet
  facet normal 0.587786 0.809017 0
    outer loop
      vertex 14.8845 3.6516 3
      vertex 15.0623 3.52243 0
      vertex 14.8845 3.6516 0
    endloop
  endfacet
  facet normal 0.368126 0.929776 -0
    outer loop
      vertex 15.4592 3.33565 0
      vertex 15.2549 3.41655 3
      vertex 15.4592 3.33565 3
    endloop
  endfacet
  facet normal 0.368126 0.929776 0
    outer loop
      vertex 15.2549 3.41655 3
      vertex 15.4592 3.33565 0
      vertex 15.2549 3.41655 0
    endloop
  endfacet
  facet normal 0.951056 -0.309019 0
    outer loop
      vertex 13.0943 5.74607 6
      vertex 13.2107 6.10437 3
      vertex 13.2107 6.10437 6
    endloop
  endfacet
  facet normal 0.951056 -0.309019 0
    outer loop
      vertex 13.2107 6.10437 3
      vertex 13.0943 5.74607 6
      vertex 13.0943 5.74607 3
    endloop
  endfacet
  facet normal -0.844329 -0.535825 0
    outer loop
      vertex 18.6289 6.44526 3
      vertex 18.4271 6.76336 6
      vertex 18.4271 6.76336 3
    endloop
  endfacet
  facet normal -0.844329 -0.535825 0
    outer loop
      vertex 18.4271 6.76336 6
      vertex 18.6289 6.44526 3
      vertex 18.6289 6.44526 6
    endloop
  endfacet
  facet normal -0.248688 -0.968584 0
    outer loop
      vertex 16.5621 7.94686 3
      vertex 16.9271 7.85317 6
      vertex 16.5621 7.94686 6
    endloop
  endfacet
  facet normal -0.248688 -0.968584 -0
    outer loop
      vertex 16.9271 7.85317 6
      vertex 16.5621 7.94686 3
      vertex 16.9271 7.85317 3
    endloop
  endfacet
  facet normal -0.368128 -0.929775 0
    outer loop
      vertex 16.9271 7.85317 3
      vertex 17.2773 7.71448 6
      vertex 16.9271 7.85317 6
    endloop
  endfacet
  facet normal -0.368128 -0.929775 -0
    outer loop
      vertex 17.2773 7.71448 6
      vertex 16.9271 7.85317 3
      vertex 17.2773 7.71448 3
    endloop
  endfacet
  facet normal 0.368126 -0.929776 0
    outer loop
      vertex 14.7227 7.71448 3
      vertex 15.0729 7.85317 6
      vertex 14.7227 7.71448 6
    endloop
  endfacet
  facet normal 0.368126 -0.929776 0
    outer loop
      vertex 15.0729 7.85317 6
      vertex 14.7227 7.71448 3
      vertex 15.0729 7.85317 3
    endloop
  endfacet
  facet normal 0.904828 -0.425778 0
    outer loop
      vertex 13.2107 6.10437 6
      vertex 13.3711 6.44526 3
      vertex 13.3711 6.44526 6
    endloop
  endfacet
  facet normal 0.904828 -0.425778 0
    outer loop
      vertex 13.3711 6.44526 3
      vertex 13.2107 6.10437 6
      vertex 13.2107 6.10437 3
    endloop
  endfacet
  facet normal -0.982288 0.187377 0
    outer loop
      vertex 18.9058 4.25393 3
      vertex 18.9763 4.624 6
      vertex 18.9763 4.624 3
    endloop
  endfacet
  facet normal -0.982288 0.187377 0
    outer loop
      vertex 18.9763 4.624 6
      vertex 18.9058 4.25393 3
      vertex 18.9058 4.25393 6
    endloop
  endfacet
  facet normal -0.982288 -0.187377 0
    outer loop
      vertex 18.9763 5.376 3
      vertex 18.9058 5.74607 6
      vertex 18.9058 5.74607 3
    endloop
  endfacet
  facet normal -0.982288 -0.187377 0
    outer loop
      vertex 18.9058 5.74607 6
      vertex 18.9763 5.376 3
      vertex 18.9763 5.376 6
    endloop
  endfacet
  facet normal -0.684549 -0.728967 0
    outer loop
      vertex 17.9123 7.31154 3
      vertex 18.1869 7.05364 6
      vertex 17.9123 7.31154 6
    endloop
  endfacet
  facet normal -0.684549 -0.728967 -0
    outer loop
      vertex 18.1869 7.05364 6
      vertex 17.9123 7.31154 3
      vertex 18.1869 7.05364 3
    endloop
  endfacet
  facet normal -0.587783 -0.809019 0
    outer loop
      vertex 17.6075 7.53298 3
      vertex 17.9123 7.31154 6
      vertex 17.6075 7.53298 6
    endloop
  endfacet
  facet normal -0.587783 -0.809019 -0
    outer loop
      vertex 17.9123 7.31154 6
      vertex 17.6075 7.53298 3
      vertex 17.9123 7.31154 3
    endloop
  endfacet
  facet normal 0.770513 -0.637424 0
    outer loop
      vertex 13.5729 6.76336 6
      vertex 13.8131 7.05364 3
      vertex 13.8131 7.05364 6
    endloop
  endfacet
  facet normal 0.770513 -0.637424 0
    outer loop
      vertex 13.8131 7.05364 3
      vertex 13.5729 6.76336 6
      vertex 13.5729 6.76336 3
    endloop
  endfacet
  facet normal 0.248689 -0.968583 0
    outer loop
      vertex 15.0729 7.85317 3
      vertex 15.4379 7.94686 6
      vertex 15.0729 7.85317 6
    endloop
  endfacet
  facet normal 0.248689 -0.968583 0
    outer loop
      vertex 15.4379 7.94686 6
      vertex 15.0729 7.85317 3
      vertex 15.4379 7.94686 3
    endloop
  endfacet
  facet normal 0.684548 -0.728968 0
    outer loop
      vertex 13.8131 7.05364 3
      vertex 14.0877 7.31154 6
      vertex 13.8131 7.05364 6
    endloop
  endfacet
  facet normal 0.684548 -0.728968 0
    outer loop
      vertex 14.0877 7.31154 6
      vertex 13.8131 7.05364 3
      vertex 14.0877 7.31154 3
    endloop
  endfacet
  facet normal -0.998027 -0.0627931 0
    outer loop
      vertex 19 5 3
      vertex 18.9763 5.376 6
      vertex 18.9763 5.376 3
    endloop
  endfacet
  facet normal -0.998027 -0.0627931 0
    outer loop
      vertex 18.9763 5.376 6
      vertex 19 5 3
      vertex 19 5 6
    endloop
  endfacet
  facet normal -0.770511 -0.637427 0
    outer loop
      vertex 18.4271 6.76336 3
      vertex 18.1869 7.05364 6
      vertex 18.1869 7.05364 3
    endloop
  endfacet
  facet normal -0.770511 -0.637427 0
    outer loop
      vertex 18.1869 7.05364 6
      vertex 18.4271 6.76336 3
      vertex 18.4271 6.76336 6
    endloop
  endfacet
  facet normal 0 -1 0
    outer loop
      vertex 15.8116 7.99408 3
      vertex 16.1884 7.99408 6
      vertex 15.8116 7.99408 6
    endloop
  endfacet
  facet normal 0 -1 -0
    outer loop
      vertex 16.1884 7.99408 6
      vertex 15.8116 7.99408 3
      vertex 16.1884 7.99408 3
    endloop
  endfacet
  facet normal -0.481754 -0.876307 0
    outer loop
      vertex 17.2773 7.71448 3
      vertex 17.6075 7.53298 6
      vertex 17.2773 7.71448 6
    endloop
  endfacet
  facet normal -0.481754 -0.876307 -0
    outer loop
      vertex 17.6075 7.53298 6
      vertex 17.2773 7.71448 3
      vertex 17.6075 7.53298 3
    endloop
  endfacet
  facet normal 0.998027 -0.0627931 0
    outer loop
      vertex 13 5 6
      vertex 13.0237 5.376 3
      vertex 13.0237 5.376 6
    endloop
  endfacet
  facet normal 0.998027 -0.0627931 0
    outer loop
      vertex 13.0237 5.376 3
      vertex 13 5 6
      vertex 13 5 3
    endloop
  endfacet
  facet normal 0.844328 -0.535827 0
    outer loop
      vertex 13.3711 6.44526 6
      vertex 13.5729 6.76336 3
      vertex 13.5729 6.76336 6
    endloop
  endfacet
  facet normal 0.844328 -0.535827 0
    outer loop
      vertex 13.5729 6.76336 3
      vertex 13.3711 6.44526 6
      vertex 13.3711 6.44526 3
    endloop
  endfacet
  facet normal 0.125333 -0.992115 0
    outer loop
      vertex 15.4379 7.94686 3
      vertex 15.8116 7.99408 6
      vertex 15.4379 7.94686 6
    endloop
  endfacet
  facet normal 0.125333 -0.992115 0
    outer loop
      vertex 15.8116 7.99408 6
      vertex 15.4379 7.94686 3
      vertex 15.8116 7.99408 3
    endloop
  endfacet
  facet normal 0.587784 -0.809018 0
    outer loop
      vertex 14.0877 7.31154 3
      vertex 14.3925 7.53298 6
      vertex 14.0877 7.31154 6
    endloop
  endfacet
  facet normal 0.587784 -0.809018 0
    outer loop
      vertex 14.3925 7.53298 6
      vertex 14.0877 7.31154 3
      vertex 14.3925 7.53298 3
    endloop
  endfacet
  facet normal 0.481754 -0.876307 0
    outer loop
      vertex 14.3925 7.53298 3
      vertex 14.7227 7.71448 6
      vertex 14.3925 7.53298 6
    endloop
  endfacet
  facet normal 0.481754 -0.876307 0
    outer loop
      vertex 14.7227 7.71448 6
      vertex 14.3925 7.53298 3
      vertex 14.7227 7.71448 3
    endloop
  endfacet
  facet normal -0.998027 0.0627931 0
    outer loop
      vertex 18.9763 4.624 3
      vertex 19 5 6
      vertex 19 5 3
    endloop
  endfacet
  facet normal -0.998027 0.0627931 0
    outer loop
      vertex 19 5 6
      vertex 18.9763 4.624 3
      vertex 18.9763 4.624 6
    endloop
  endfacet
  facet normal -0.125333 0.992115 0
    outer loop
      vertex 16.5621 2.05314 3
      vertex 16.1884 2.00592 6
      vertex 16.5621 2.05314 6
    endloop
  endfacet
  facet normal -0.125333 0.992115 0
    outer loop
      vertex 16.1884 2.00592 6
      vertex 16.5621 2.05314 3
      vertex 16.1884 2.00592 3
    endloop
  endfacet
  facet normal -0.904827 -0.42578 0
    outer loop
      vertex 18.7893 6.10437 3
      vertex 18.6289 6.44526 6
      vertex 18.6289 6.44526 3
    endloop
  endfacet
  facet normal -0.904827 -0.42578 0
    outer loop
      vertex 18.6289 6.44526 6
      vertex 18.7893 6.10437 3
      vertex 18.7893 6.10437 6
    endloop
  endfacet
  facet normal -0.951056 -0.309019 0
    outer loop
      vertex 18.9058 5.74607 3
      vertex 18.7893 6.10437 6
      vertex 18.7893 6.10437 3
    endloop
  endfacet
  facet normal -0.951056 -0.309019 0
    outer loop
      vertex 18.7893 6.10437 6
      vertex 18.9058 5.74607 3
      vertex 18.9058 5.74607 6
    endloop
  endfacet
  facet normal -0.125333 -0.992115 0
    outer loop
      vertex 16.1884 7.99408 3
      vertex 16.5621 7.94686 6
      vertex 16.1884 7.99408 6
    endloop
  endfacet
  facet normal -0.125333 -0.992115 -0
    outer loop
      vertex 16.5621 7.94686 6
      vertex 16.1884 7.99408 3
      vertex 16.5621 7.94686 3
    endloop
  endfacet
  facet normal 0.982288 -0.18738 0
    outer loop
      vertex 13.0237 5.376 6
      vertex 13.0943 5.74607 3
      vertex 13.0943 5.74607 6
    endloop
  endfacet
  facet normal 0.982288 -0.18738 0
    outer loop
      vertex 13.0943 5.74607 3
      vertex 13.0237 5.376 6
      vertex 13.0237 5.376 3
    endloop
  endfacet
  facet normal -0.904827 0.42578 0
    outer loop
      vertex 18.6289 3.55474 3
      vertex 18.7893 3.89563 6
      vertex 18.7893 3.89563 3
    endloop
  endfacet
  facet normal -0.904827 0.42578 0
    outer loop
      vertex 18.7893 3.89563 6
      vertex 18.6289 3.55474 3
      vertex 18.6289 3.55474 6
    endloop
  endfacet
  facet normal -0.951056 0.309019 0
    outer loop
      vertex 18.7893 3.89563 3
      vertex 18.9058 4.25393 6
      vertex 18.9058 4.25393 3
    endloop
  endfacet
  facet normal -0.951056 0.309019 0
    outer loop
      vertex 18.9058 4.25393 6
      vertex 18.7893 3.89563 3
      vertex 18.7893 3.89563 6
    endloop
  endfacet
  facet normal -0.684549 0.728967 0
    outer loop
      vertex 18.1869 2.94636 3
      vertex 17.9123 2.68846 6
      vertex 18.1869 2.94636 6
    endloop
  endfacet
  facet normal -0.684549 0.728967 0
    outer loop
      vertex 17.9123 2.68846 6
      vertex 18.1869 2.94636 3
      vertex 17.9123 2.68846 3
    endloop
  endfacet
  facet normal -0.770511 0.637427 0
    outer loop
      vertex 18.1869 2.94636 3
      vertex 18.4271 3.23664 6
      vertex 18.4271 3.23664 3
    endloop
  endfacet
  facet normal -0.770511 0.637427 0
    outer loop
      vertex 18.4271 3.23664 6
      vertex 18.1869 2.94636 3
      vertex 18.1869 2.94636 6
    endloop
  endfacet
  facet normal 0.248689 0.968583 -0
    outer loop
      vertex 15.4379 2.05314 3
      vertex 15.0729 2.14683 6
      vertex 15.4379 2.05314 6
    endloop
  endfacet
  facet normal 0.248689 0.968583 0
    outer loop
      vertex 15.0729 2.14683 6
      vertex 15.4379 2.05314 3
      vertex 15.0729 2.14683 3
    endloop
  endfacet
  facet normal 0.125333 0.992115 -0
    outer loop
      vertex 15.8116 2.00592 3
      vertex 15.4379 2.05314 6
      vertex 15.8116 2.00592 6
    endloop
  endfacet
  facet normal 0.125333 0.992115 0
    outer loop
      vertex 15.4379 2.05314 6
      vertex 15.8116 2.00592 3
      vertex 15.4379 2.05314 3
    endloop
  endfacet
  facet normal 0.998027 0.0627931 0
    outer loop
      vertex 13.0237 4.624 6
      vertex 13 5 3
      vertex 13 5 6
    endloop
  endfacet
  facet normal 0.998027 0.0627931 0
    outer loop
      vertex 13 5 3
      vertex 13.0237 4.624 6
      vertex 13.0237 4.624 3
    endloop
  endfacet
  facet normal 0.982288 0.18738 0
    outer loop
      vertex 13.0943 4.25393 6
      vertex 13.0237 4.624 3
      vertex 13.0237 4.624 6
    endloop
  endfacet
  facet normal 0.982288 0.18738 0
    outer loop
      vertex 13.0237 4.624 3
      vertex 13.0943 4.25393 6
      vertex 13.0943 4.25393 3
    endloop
  endfacet
  facet normal 0.904828 0.425778 0
    outer loop
      vertex 13.3711 3.55474 6
      vertex 13.2107 3.89563 3
      vertex 13.2107 3.89563 6
    endloop
  endfacet
  facet normal 0.904828 0.425778 0
    outer loop
      vertex 13.2107 3.89563 3
      vertex 13.3711 3.55474 6
      vertex 13.3711 3.55474 3
    endloop
  endfacet
  facet normal 0.684548 0.728968 -0
    outer loop
      vertex 14.0877 2.68846 3
      vertex 13.8131 2.94636 6
      vertex 14.0877 2.68846 6
    endloop
  endfacet
  facet normal 0.684548 0.728968 0
    outer loop
      vertex 13.8131 2.94636 6
      vertex 14.0877 2.68846 3
      vertex 13.8131 2.94636 3
    endloop
  endfacet
  facet normal -0.368128 0.929775 0
    outer loop
      vertex 17.2773 2.28552 3
      vertex 16.9271 2.14683 6
      vertex 17.2773 2.28552 6
    endloop
  endfacet
  facet normal -0.368128 0.929775 0
    outer loop
      vertex 16.9271 2.14683 6
      vertex 17.2773 2.28552 3
      vertex 16.9271 2.14683 3
    endloop
  endfacet
  facet normal -0.248688 0.968584 0
    outer loop
      vertex 16.9271 2.14683 3
      vertex 16.5621 2.05314 6
      vertex 16.9271 2.14683 6
    endloop
  endfacet
  facet normal -0.248688 0.968584 0
    outer loop
      vertex 16.5621 2.05314 6
      vertex 16.9271 2.14683 3
      vertex 16.5621 2.05314 3
    endloop
  endfacet
  facet normal -0.587783 0.809019 0
    outer loop
      vertex 17.9123 2.68846 3
      vertex 17.6075 2.46702 6
      vertex 17.9123 2.68846 6
    endloop
  endfacet
  facet normal -0.587783 0.809019 0
    outer loop
      vertex 17.6075 2.46702 6
      vertex 17.9123 2.68846 3
      vertex 17.6075 2.46702 3
    endloop
  endfacet
  facet normal -0.481754 0.876307 0
    outer loop
      vertex 17.6075 2.46702 3
      vertex 17.2773 2.28552 6
      vertex 17.6075 2.46702 6
    endloop
  endfacet
  facet normal -0.481754 0.876307 0
    outer loop
      vertex 17.2773 2.28552 6
      vertex 17.6075 2.46702 3
      vertex 17.2773 2.28552 3
    endloop
  endfacet
  facet normal -0.844329 0.535825 0
    outer loop
      vertex 18.4271 3.23664 3
      vertex 18.6289 3.55474 6
      vertex 18.6289 3.55474 3
    endloop
  endfacet
  facet normal -0.844329 0.535825 0
    outer loop
      vertex 18.6289 3.55474 6
      vertex 18.4271 3.23664 3
      vertex 18.4271 3.23664 6
    endloop
  endfacet
  facet normal 0.587784 0.809018 -0
    outer loop
      vertex 14.3925 2.46702 3
      vertex 14.0877 2.68846 6
      vertex 14.3925 2.46702 6
    endloop
  endfacet
  facet normal 0.587784 0.809018 0
    outer loop
      vertex 14.0877 2.68846 6
      vertex 14.3925 2.46702 3
      vertex 14.0877 2.68846 3
    endloop
  endfacet
  facet normal 0 1 -0
    outer loop
      vertex 16.1884 2.00592 3
      vertex 15.8116 2.00592 6
      vertex 16.1884 2.00592 6
    endloop
  endfacet
  facet normal 0 1 0
    outer loop
      vertex 15.8116 2.00592 6
      vertex 16.1884 2.00592 3
      vertex 15.8116 2.00592 3
    endloop
  endfacet
  facet normal 0 0 1
    outer loop
      vertex 17.75 5 3
      vertex 19 5 3
      vertex 18.9763 5.376 3
    endloop
  endfacet
  facet normal 0 0 1
    outer loop
      vertex 17.7362 5.21933 3
      vertex 18.9763 5.376 3
      vertex 18.9058 5.74607 3
    endloop
  endfacet
  facet normal 0 0 1
    outer loop
      vertex 19 5 3
      vertex 17.75 5 3
      vertex 18.9763 4.624 3
    endloop
  endfacet
  facet normal 0 0 1
    outer loop
      vertex 17.695 5.43521 3
      vertex 18.9058 5.74607 3
      vertex 18.7893 6.10437 3
    endloop
  endfacet
  facet normal -0 0 1
    outer loop
      vertex 17.7362 4.78067 3
      vertex 18.9763 4.624 3
      vertex 17.75 5 3
    endloop
  endfacet
  facet normal 0 0 1
    outer loop
      vertex 17.6271 5.64422 3
      vertex 18.7893 6.10437 3
      vertex 18.6289 6.44526 3
    endloop
  endfacet
  facet normal 0 0 1
    outer loop
      vertex 18.9763 4.624 3
      vertex 17.7362 4.78067 3
      vertex 18.9058 4.25393 3
    endloop
  endfacet
  facet normal 0 0 1
    outer loop
      vertex 17.5335 5.84307 3
      vertex 18.6289 6.44526 3
      vertex 18.4271 6.76336 3
    endloop
  endfacet
  facet normal -0 0 1
    outer loop
      vertex 17.695 4.56479 3
      vertex 18.9058 4.25393 3
      vertex 17.7362 4.78067 3
    endloop
  endfacet
  facet normal 0 0 1
    outer loop
      vertex 17.4158 6.02862 3
      vertex 18.4271 6.76336 3
      vertex 18.1869 7.05364 3
    endloop
  endfacet
  facet normal 0 0 1
    outer loop
      vertex 18.9058 4.25393 3
      vertex 17.695 4.56479 3
      vertex 18.7893 3.89563 3
    endloop
  endfacet
  facet normal 0 0 1
    outer loop
      vertex 17.2757 6.19796 3
      vertex 18.1869 7.05364 3
      vertex 17.9123 7.31154 3
    endloop
  endfacet
  facet normal -0 0 1
    outer loop
      vertex 17.6271 4.35578 3
      vertex 18.7893 3.89563 3
      vertex 17.695 4.56479 3
    endloop
  endfacet
  facet normal 0 0 1
    outer loop
      vertex 18.7893 3.89563 3
      vertex 17.6271 4.35578 3
      vertex 18.6289 3.55474 3
    endloop
  endfacet
  facet normal 0 0 1
    outer loop
      vertex 18.9763 5.376 3
      vertex 17.7362 5.21933 3
      vertex 17.75 5 3
    endloop
  endfacet
  facet normal 0 0 1
    outer loop
      vertex 18.9058 5.74607 3
      vertex 17.695 5.43521 3
      vertex 17.7362 5.21933 3
    endloop
  endfacet
  facet normal 0 0 1
    outer loop
      vertex 18.7893 6.10437 3
      vertex 17.6271 5.64422 3
      vertex 17.695 5.43521 3
    endloop
  endfacet
  facet normal 0 0 1
    outer loop
      vertex 17.1155 6.3484 3
      vertex 17.9123 7.31154 3
      vertex 17.6075 7.53298 3
    endloop
  endfacet
  facet normal 0 0 1
    outer loop
      vertex 18.6289 6.44526 3
      vertex 17.5335 5.84307 3
      vertex 17.6271 5.64422 3
    endloop
  endfacet
  facet normal 0 0 1
    outer loop
      vertex 18.4271 6.76336 3
      vertex 17.4158 6.02862 3
      vertex 17.5335 5.84307 3
    endloop
  endfacet
  facet normal 0 0 1
    outer loop
      vertex 16.9377 6.47757 3
      vertex 17.6075 7.53298 3
      vertex 17.2773 7.71448 3
    endloop
  endfacet
  facet normal 0 0 1
    outer loop
      vertex 18.1869 7.05364 3
      vertex 17.2757 6.19796 3
      vertex 17.4158 6.02862 3
    endloop
  endfacet
  facet normal 0 0 1
    outer loop
      vertex 17.9123 7.31154 3
      vertex 17.1155 6.3484 3
      vertex 17.2757 6.19796 3
    endloop
  endfacet
  facet normal 0 0 1
    outer loop
      vertex 17.6075 7.53298 3
      vertex 16.9377 6.47757 3
      vertex 17.1155 6.3484 3
    endloop
  endfacet
  facet normal 0 0 1
    outer loop
      vertex 16.7451 6.58345 3
      vertex 17.2773 7.71448 3
      vertex 16.9271 7.85317 3
    endloop
  endfacet
  facet normal 0 0 1
    outer loop
      vertex 17.2773 7.71448 3
      vertex 16.7451 6.58345 3
      vertex 16.9377 6.47757 3
    endloop
  endfacet
  facet normal 0 0 1
    outer loop
      vertex 16.5408 6.66435 3
      vertex 16.9271 7.85317 3
      vertex 16.5621 7.94686 3
    endloop
  endfacet
  facet normal 0 0 1
    outer loop
      vertex 16.9271 7.85317 3
      vertex 16.5408 6.66435 3
      vertex 16.7451 6.58345 3
    endloop
  endfacet
  facet normal 0 0 1
    outer loop
      vertex 16.5621 7.94686 3
      vertex 16.3279 6.719 3
      vertex 16.5408 6.66435 3
    endloop
  endfacet
  facet normal 0 0 1
    outer loop
      vertex 16.1884 7.99408 3
      vertex 16.3279 6.719 3
      vertex 16.5621 7.94686 3
    endloop
  endfacet
  facet normal 0 0 1
    outer loop
      vertex 16.1884 7.99408 3
      vertex 16.1099 6.74655 3
      vertex 16.3279 6.719 3
    endloop
  endfacet
  facet normal 0 0 1
    outer loop
      vertex 16.1884 7.99408 3
      vertex 15.8901 6.74655 3
      vertex 16.1099 6.74655 3
    endloop
  endfacet
  facet normal -0 0 1
    outer loop
      vertex 15.8116 7.99408 3
      vertex 15.8901 6.74655 3
      vertex 16.1884 7.99408 3
    endloop
  endfacet
  facet normal 0 0 1
    outer loop
      vertex 15.8116 7.99408 3
      vertex 15.6721 6.719 3
      vertex 15.8901 6.74655 3
    endloop
  endfacet
  facet normal -0 0 1
    outer loop
      vertex 15.4379 7.94686 3
      vertex 15.6721 6.719 3
      vertex 15.8116 7.99408 3
    endloop
  endfacet
  facet normal 0 0 1
    outer loop
      vertex 15.6721 6.719 3
      vertex 15.4379 7.94686 3
      vertex 15.4592 6.66435 3
    endloop
  endfacet
  facet normal -0 0 1
    outer loop
      vertex 15.0729 7.85317 3
      vertex 15.4592 6.66435 3
      vertex 15.4379 7.94686 3
    endloop
  endfacet
  facet normal 0 0 1
    outer loop
      vertex 15.4592 6.66435 3
      vertex 15.0729 7.85317 3
      vertex 15.2549 6.58345 3
    endloop
  endfacet
  facet normal -0 0 1
    outer loop
      vertex 14.7227 7.71448 3
      vertex 15.2549 6.58345 3
      vertex 15.0729 7.85317 3
    endloop
  endfacet
  facet normal 0 0 1
    outer loop
      vertex 15.2549 6.58345 3
      vertex 14.7227 7.71448 3
      vertex 15.0623 6.47757 3
    endloop
  endfacet
  facet normal -0 0 1
    outer loop
      vertex 14.3925 7.53298 3
      vertex 15.0623 6.47757 3
      vertex 14.7227 7.71448 3
    endloop
  endfacet
  facet normal 0 0 1
    outer loop
      vertex 15.0623 6.47757 3
      vertex 14.3925 7.53298 3
      vertex 14.8845 6.3484 3
    endloop
  endfacet
  facet normal -0 0 1
    outer loop
      vertex 14.0877 7.31154 3
      vertex 14.8845 6.3484 3
      vertex 14.3925 7.53298 3
    endloop
  endfacet
  facet normal 0 0 1
    outer loop
      vertex 14.8845 6.3484 3
      vertex 14.0877 7.31154 3
      vertex 14.7243 6.19796 3
    endloop
  endfacet
  facet normal -0 0 1
    outer loop
      vertex 13.8131 7.05364 3
      vertex 14.7243 6.19796 3
      vertex 14.0877 7.31154 3
    endloop
  endfacet
  facet normal 0 0 1
    outer loop
      vertex 14.7243 6.19796 3
      vertex 13.8131 7.05364 3
      vertex 14.5842 6.02862 3
    endloop
  endfacet
  facet normal -0 0 1
    outer loop
      vertex 13.5729 6.76336 3
      vertex 14.5842 6.02862 3
      vertex 13.8131 7.05364 3
    endloop
  endfacet
  facet normal 0 0 1
    outer loop
      vertex 14.5842 6.02862 3
      vertex 13.5729 6.76336 3
      vertex 14.4665 5.84307 3
    endloop
  endfacet
  facet normal -0 0 1
    outer loop
      vertex 13.3711 6.44526 3
      vertex 14.4665 5.84307 3
      vertex 13.5729 6.76336 3
    endloop
  endfacet
  facet normal 0 0 1
    outer loop
      vertex 14.4665 5.84307 3
      vertex 13.3711 6.44526 3
      vertex 14.3729 5.64422 3
    endloop
  endfacet
  facet normal -0 0 1
    outer loop
      vertex 17.5335 4.15693 3
      vertex 18.6289 3.55474 3
      vertex 17.6271 4.35578 3
    endloop
  endfacet
  facet normal 0 0 1
    outer loop
      vertex 18.6289 3.55474 3
      vertex 17.5335 4.15693 3
      vertex 18.4271 3.23664 3
    endloop
  endfacet
  facet normal -0 0 1
    outer loop
      vertex 17.4158 3.97138 3
      vertex 18.4271 3.23664 3
      vertex 17.5335 4.15693 3
    endloop
  endfacet
  facet normal 0 0 1
    outer loop
      vertex 18.4271 3.23664 3
      vertex 17.4158 3.97138 3
      vertex 18.1869 2.94636 3
    endloop
  endfacet
  facet normal -0 0 1
    outer loop
      vertex 17.2757 3.80204 3
      vertex 18.1869 2.94636 3
      vertex 17.4158 3.97138 3
    endloop
  endfacet
  facet normal 0 0 1
    outer loop
      vertex 18.1869 2.94636 3
      vertex 17.2757 3.80204 3
      vertex 17.9123 2.68846 3
    endloop
  endfacet
  facet normal -0 0 1
    outer loop
      vertex 17.1155 3.6516 3
      vertex 17.9123 2.68846 3
      vertex 17.2757 3.80204 3
    endloop
  endfacet
  facet normal 0 0 1
    outer loop
      vertex 17.9123 2.68846 3
      vertex 17.1155 3.6516 3
      vertex 17.6075 2.46702 3
    endloop
  endfacet
  facet normal -0 0 1
    outer loop
      vertex 16.9377 3.52243 3
      vertex 17.6075 2.46702 3
      vertex 17.1155 3.6516 3
    endloop
  endfacet
  facet normal 0 0 1
    outer loop
      vertex 17.6075 2.46702 3
      vertex 16.9377 3.52243 3
      vertex 17.2773 2.28552 3
    endloop
  endfacet
  facet normal -0 0 1
    outer loop
      vertex 16.7451 3.41655 3
      vertex 17.2773 2.28552 3
      vertex 16.9377 3.52243 3
    endloop
  endfacet
  facet normal 0 0 1
    outer loop
      vertex 17.2773 2.28552 3
      vertex 16.7451 3.41655 3
      vertex 16.9271 2.14683 3
    endloop
  endfacet
  facet normal -0 0 1
    outer loop
      vertex 16.5408 3.33565 3
      vertex 16.9271 2.14683 3
      vertex 16.7451 3.41655 3
    endloop
  endfacet
  facet normal 0 0 1
    outer loop
      vertex 16.9271 2.14683 3
      vertex 16.5408 3.33565 3
      vertex 16.5621 2.05314 3
    endloop
  endfacet
  facet normal -0 0 1
    outer loop
      vertex 16.3279 3.281 3
      vertex 16.5621 2.05314 3
      vertex 16.5408 3.33565 3
    endloop
  endfacet
  facet normal 0 0 1
    outer loop
      vertex 16.3279 3.281 3
      vertex 16.1884 2.00592 3
      vertex 16.5621 2.05314 3
    endloop
  endfacet
  facet normal -0 0 1
    outer loop
      vertex 16.1099 3.25345 3
      vertex 16.1884 2.00592 3
      vertex 16.3279 3.281 3
    endloop
  endfacet
  facet normal -0 0 1
    outer loop
      vertex 15.8901 3.25345 3
      vertex 16.1884 2.00592 3
      vertex 16.1099 3.25345 3
    endloop
  endfacet
  facet normal 0 0 1
    outer loop
      vertex 15.8901 3.25345 3
      vertex 15.8116 2.00592 3
      vertex 16.1884 2.00592 3
    endloop
  endfacet
  facet normal 0 0 1
    outer loop
      vertex 15.6721 3.281 3
      vertex 15.8116 2.00592 3
      vertex 15.8901 3.25345 3
    endloop
  endfacet
  facet normal 0 0 1
    outer loop
      vertex 15.4379 2.05314 3
      vertex 15.6721 3.281 3
      vertex 15.4592 3.33565 3
    endloop
  endfacet
  facet normal 0 0 1
    outer loop
      vertex 15.6721 3.281 3
      vertex 15.4379 2.05314 3
      vertex 15.8116 2.00592 3
    endloop
  endfacet
  facet normal 0 0 1
    outer loop
      vertex 15.0729 2.14683 3
      vertex 15.4592 3.33565 3
      vertex 15.2549 3.41655 3
    endloop
  endfacet
  facet normal 0 0 1
    outer loop
      vertex 15.4592 3.33565 3
      vertex 15.0729 2.14683 3
      vertex 15.4379 2.05314 3
    endloop
  endfacet
  facet normal 0 0 1
    outer loop
      vertex 14.7227 2.28552 3
      vertex 15.2549 3.41655 3
      vertex 15.0623 3.52243 3
    endloop
  endfacet
  facet normal 0 0 1
    outer loop
      vertex 14.3925 2.46702 3
      vertex 15.0623 3.52243 3
      vertex 14.8845 3.6516 3
    endloop
  endfacet
  facet normal 0 0 1
    outer loop
      vertex 14.0877 2.68846 3
      vertex 14.8845 3.6516 3
      vertex 14.7243 3.80204 3
    endloop
  endfacet
  facet normal 0 0 1
    outer loop
      vertex 15.2549 3.41655 3
      vertex 14.7227 2.28552 3
      vertex 15.0729 2.14683 3
    endloop
  endfacet
  facet normal 0 0 1
    outer loop
      vertex 13.8131 2.94636 3
      vertex 14.7243 3.80204 3
      vertex 14.5842 3.97138 3
    endloop
  endfacet
  facet normal 0 0 1
    outer loop
      vertex 13.5729 3.23664 3
      vertex 14.5842 3.97138 3
      vertex 14.4665 4.15693 3
    endloop
  endfacet
  facet normal 0 0 1
    outer loop
      vertex 15.0623 3.52243 3
      vertex 14.3925 2.46702 3
      vertex 14.7227 2.28552 3
    endloop
  endfacet
  facet normal 0 0 1
    outer loop
      vertex 13.3711 3.55474 3
      vertex 14.4665 4.15693 3
      vertex 14.3729 4.35578 3
    endloop
  endfacet
  facet normal 0 0 1
    outer loop
      vertex 13.2107 3.89563 3
      vertex 14.3729 4.35578 3
      vertex 14.305 4.56479 3
    endloop
  endfacet
  facet normal 0 0 1
    outer loop
      vertex 13.0943 4.25393 3
      vertex 14.305 4.56479 3
      vertex 14.2638 4.78067 3
    endloop
  endfacet
  facet normal 0 0 1
    outer loop
      vertex 13.0237 4.624 3
      vertex 14.2638 4.78067 3
      vertex 14.25 5 3
    endloop
  endfacet
  facet normal -0 0 1
    outer loop
      vertex 13.2107 6.10437 3
      vertex 14.3729 5.64422 3
      vertex 13.3711 6.44526 3
    endloop
  endfacet
  facet normal 0 0 1
    outer loop
      vertex 14.8845 3.6516 3
      vertex 14.0877 2.68846 3
      vertex 14.3925 2.46702 3
    endloop
  endfacet
  facet normal 0 0 1
    outer loop
      vertex 14.3729 5.64422 3
      vertex 13.2107 6.10437 3
      vertex 14.305 5.43521 3
    endloop
  endfacet
  facet normal 0 0 1
    outer loop
      vertex 14.7243 3.80204 3
      vertex 13.8131 2.94636 3
      vertex 14.0877 2.68846 3
    endloop
  endfacet
  facet normal -0 0 1
    outer loop
      vertex 13.0943 5.74607 3
      vertex 14.305 5.43521 3
      vertex 13.2107 6.10437 3
    endloop
  endfacet
  facet normal 0 0 1
    outer loop
      vertex 14.5842 3.97138 3
      vertex 13.5729 3.23664 3
      vertex 13.8131 2.94636 3
    endloop
  endfacet
  facet normal 0 0 1
    outer loop
      vertex 14.305 5.43521 3
      vertex 13.0943 5.74607 3
      vertex 14.2638 5.21933 3
    endloop
  endfacet
  facet normal 0 0 1
    outer loop
      vertex 14.4665 4.15693 3
      vertex 13.3711 3.55474 3
      vertex 13.5729 3.23664 3
    endloop
  endfacet
  facet normal -0 0 1
    outer loop
      vertex 13.0237 5.376 3
      vertex 14.2638 5.21933 3
      vertex 13.0943 5.74607 3
    endloop
  endfacet
  facet normal 0 0 1
    outer loop
      vertex 14.3729 4.35578 3
      vertex 13.2107 3.89563 3
      vertex 13.3711 3.55474 3
    endloop
  endfacet
  facet normal 0 0 1
    outer loop
      vertex 14.2638 5.21933 3
      vertex 13.0237 5.376 3
      vertex 14.25 5 3
    endloop
  endfacet
  facet normal 0 0 1
    outer loop
      vertex 14.305 4.56479 3
      vertex 13.0943 4.25393 3
      vertex 13.2107 3.89563 3
    endloop
  endfacet
  facet normal 0 0 1
    outer loop
      vertex 13 5 3
      vertex 14.25 5 3
      vertex 13.0237 5.376 3
    endloop
  endfacet
  facet normal 0 0 1
    outer loop
      vertex 14.2638 4.78067 3
      vertex 13.0237 4.624 3
      vertex 13.0943 4.25393 3
    endloop
  endfacet
  facet normal 0 0 1
    outer loop
      vertex 14.25 5 3
      vertex 13 5 3
      vertex 13.0237 4.624 3
    endloop
  endfacet
  facet normal 0.481754 0.876307 -0
    outer loop
      vertex 14.7227 2.28552 3
      vertex 14.3925 2.46702 6
      vertex 14.7227 2.28552 6
    endloop
  endfacet
  facet normal 0.481754 0.876307 0
    outer loop
      vertex 14.3925 2.46702 6
      vertex 14.7227 2.28552 3
      vertex 14.3925 2.46702 3
    endloop
  endfacet
  facet normal 0.951056 0.309019 0
    outer loop
      vertex 13.2107 3.89563 6
      vertex 13.0943 4.25393 3
      vertex 13.0943 4.25393 6
    endloop
  endfacet
  facet normal 0.951056 0.309019 0
    outer loop
      vertex 13.0943 4.25393 3
      vertex 13.2107 3.89563 6
      vertex 13.2107 3.89563 3
    endloop
  endfacet
  facet normal 0.770513 0.637424 0
    outer loop
      vertex 13.8131 2.94636 6
      vertex 13.5729 3.23664 3
      vertex 13.5729 3.23664 6
    endloop
  endfacet
  facet normal 0.770513 0.637424 0
    outer loop
      vertex 13.5729 3.23664 3
      vertex 13.8131 2.94636 6
      vertex 13.8131 2.94636 3
    endloop
  endfacet
  facet normal 0.844328 0.535827 0
    outer loop
      vertex 13.5729 3.23664 6
      vertex 13.3711 3.55474 3
      vertex 13.3711 3.55474 6
    endloop
  endfacet
  facet normal 0.844328 0.535827 0
    outer loop
      vertex 13.3711 3.55474 3
      vertex 13.5729 3.23664 6
      vertex 13.5729 3.23664 3
    endloop
  endfacet
  facet normal 0.368126 0.929776 -0
    outer loop
      vertex 15.0729 2.14683 3
      vertex 14.7227 2.28552 6
      vertex 15.0729 2.14683 6
    endloop
  endfacet
  facet normal 0.368126 0.929776 0
    outer loop
      vertex 14.7227 2.28552 6
      vertex 15.0729 2.14683 3
      vertex 14.7227 2.28552 3
    endloop
  endfacet
  facet normal 1 -0 0
    outer loop
      vertex 20 0 3.5
      vertex 20 10 0.5
      vertex 20 10 3.5
    endloop
  endfacet
  facet normal 1 0 0
    outer loop
      vertex 20 10 0.5
      vertex 20 0 3.5
      vertex 20 0 0.5
    endloop
  endfacet
  facet normal 0 0 -1
    outer loop
      vertex 20 0 3.5
      vertex 30 10 3.5
      vertex 30 0 3.5
    endloop
  endfacet
  facet normal -0 0 -1
    outer loop
      vertex 30 10 3.5
      vertex 20 0 3.5
      vertex 20 10 3.5
    endloop
  endfacet
  facet normal -1 0 0
    outer loop
      vertex 30 0 0.5
      vertex 30 10 3.5
      vertex 30 10 0.5
    endloop
  endfacet
  facet normal -1 -0 0
    outer loop
      vertex 30 10 3.5
      vertex 30 0 0.5
      vertex 30 0 3.5
    endloop
  endfacet
  facet normal -0 0 1
    outer loop
      vertex 20 10 0.5
      vertex 22 0 0.5
      vertex 22 10 0.5
    endloop
  endfacet
  facet normal 0 0 1
    outer loop
      vertex 22 0 0.5
      vertex 20 10 0.5
      vertex 20 0 0.5
    endloop
  endfacet
  facet normal -0 0 1
    outer loop
      vertex 28 10 0.5
      vertex 30 0 0.5
      vertex 30 10 0.5
    endloop
  endfacet
  facet normal 0 0 1
    outer loop
      vertex 30 0 0.5
      vertex 28 10 0.5
      vertex 28 0 0.5
    endloop
  endfacet
  facet normal 1 -0 0
    outer loop
      vertex 22 0 0.5
      vertex 22 10 0
      vertex 22 10 0.5
    endloop
  endfacet
  facet normal 1 0 0
    outer loop
      vertex 22 10 0
      vertex 22 0 0.5
      vertex 22 0 0
    endloop
  endfacet
  facet normal -1 0 0
    outer loop
      vertex 28 0 0
      vertex 28 10 0.5
      vertex 28 10 0
    endloop
  endfacet
  facet normal -1 -0 0
    outer loop
      vertex 28 10 0.5
      vertex 28 0 0
      vertex 28 0 0.5
    endloop
  endfacet
  facet normal 0 1 -0
    outer loop
      vertex 45 1.5 0
      vertex 40 1.5 6
      vertex 45 1.5 6
    endloop
  endfacet
  facet normal 0 1 0
    outer loop
      vertex 40 1.5 6
      vertex 45 1.5 0
      vertex 40 1.5 0
    endloop
  endfacet
  facet normal 0 -1 0
    outer loop
      vertex 40 8.5 0
      vertex 45 8.5 6
      vertex 40 8.5 6
    endloop
  endfacet
  facet normal 0 -1 -0
    outer loop
      vertex 45 8.5 6
      vertex 40 8.5 0
      vertex 45 8.5 0
    endloop
  endfacet
endsolid OpenSCAD_Model
